<?xml version="1.0" encoding="iso-8859-1"?>
<!-- Generator: Adobe Illustrator 16.0.0, SVG Export Plug-In . SVG Version: 6.00 Build 0)  -->
<!DOCTYPE svg PUBLIC "-//W3C//DTD SVG 1.1//EN" "http://www.w3.org/Graphics/SVG/1.1/DTD/svg11.dtd">
<svg version="1.1" id="Capa_1" xmlns="http://www.w3.org/2000/svg" xmlns:xlink="http://www.w3.org/1999/xlink" x="0px" y="0px"
	 width="394.4px" height="394.4px" viewBox="0 0 394.4 394.4" style="enable-background:new 0 0 394.4 394.4;" xml:space="preserve"
	>
<g>
	<path style="fill:#a2a2a2;" d="M197.2,0C88.292,0,0,88.292,0,197.2c0,108.909,88.292,197.2,197.2,197.2c108.909,0,197.2-88.291,197.2-197.2
		C394.4,88.292,306.109,0,197.2,0z M197.2,362.005c-91.018,0-164.805-73.787-164.805-164.805
		c0-91.018,73.787-164.805,164.805-164.805c91.018,0,164.805,73.787,164.805,164.805C362.005,288.218,288.218,362.005,197.2,362.005
		z M259.957,136.605c2.387,7.12-1.462,14.831-8.588,17.204c-7.134,2.373-14.838-1.462-17.204-8.588
		c-3.237-9.656-14.852-20.938-36.972-20.938c-18.312,0-29.172,12.315-30.437,24.473c-1.551,14.96,11.186,27.119,33.225,31.729
		c44.091,9.228,57.024,38.712,54.699,61.159c-2.428,23.487-20.4,42.052-43.888,47.314V306c0,7.508-6.093,13.601-13.6,13.601
		c-7.507,0-13.6-6.093-13.6-13.601v-16.564c-28.016-4.509-43.867-22.617-49.157-38.44c-2.387-7.12,1.462-14.831,8.588-17.204
		c7.113-2.4,14.831,1.462,17.204,8.589c3.237,9.655,14.851,20.937,36.972,20.937c18.312,0,29.172-12.314,30.437-24.473
		c1.551-14.96-11.186-27.119-33.225-31.729c-44.091-9.228-57.025-38.712-54.699-61.159c2.428-23.487,20.4-42.051,43.887-47.314V81.6
		c0-7.507,6.093-13.6,13.6-13.6c7.507,0,13.6,6.093,13.6,13.6v16.565C238.816,102.673,254.667,120.782,259.957,136.605z"/>
</g>
<g>
</g>
<g>
</g>
<g>
</g>
<g>
</g>
<g>
</g>
<g>
</g>
<g>
</g>
<g>
</g>
<g>
</g>
<g>
</g>
<g>
</g>
<g>
</g>
<g>
</g>
<g>
</g>
<g>
</g>
</svg>
