<svg width="160" height="145" viewBox="0 0 160 145" fill="none" xmlns="http://www.w3.org/2000/svg"><path fill-rule="evenodd" clip-rule="evenodd" d="M84.834 102.491c-2.164 1.953-4.705 3.294-7.383 4.4-3.833 1.584-7.663 3.177-11.545 4.658-2.48.947-4.98 1.899-7.598 2.492-3.56.807-7.284.98-11.165.4-3.573-.534-7.068-1.62-10.498-3.321-3.067-1.521-5.917-3.507-8.622-5.892-3.165-2.791-5.873-6-8.172-9.566-1.889-2.93-3.369-6.087-4.462-9.358-1.976-5.915-2.63-11.76-1.856-17.43.496-3.63 1.534-7.004 3.182-10.061 1.435-2.66 3.238-4.95 5.303-6.96 1.643-1.6 3.611-2.79 5.662-3.844 2.448-1.258 5.086-2.04 7.866-2.427 4.351-.607 8.82-.134 13.384 1.354 3.661 1.193 7.147 3.028 10.55 5.135 1.552.961 2.985 2.22 4.471 3.346 2.072 1.567 4.153 3.12 6.211 4.712a257.17 257.17 0 015.71 4.526c2.386 1.956 4.767 3.916 6.918 6.222 2.031 2.178 3.794 4.555 5.187 7.186a24.127 24.127 0 012.652 8.408c.556 4.545-.283 8.506-2.32 11.967-.932 1.584-2.145 2.881-3.475 4.053z" fill="#97CAD1"></path><path fill-rule="evenodd" clip-rule="evenodd" d="M35.457 24.732c.797.93 1.608 1.54 2.548 1.977.687.32 1.4.538 2.134.66a10.93 10.93 0 002.276.13 16.08 16.08 0 003.274-.48c1.198-.305 2.32-.789 3.336-1.515.373-.267.74-.557 1.034-.932.222-.284.49-.533.68-.838.278-.442.534-.906.748-1.386.429-.966.579-1.997.495-3.061-.046-.582-.091-1.17-.208-1.74-.121-.59-.323-1.163-.501-1.74-.15-.49-.309-.976-.479-1.458-.248-.705-.47-1.424-.776-2.101-.388-.864-.784-1.733-1.405-2.453-.602-.698-1.309-1.254-2.16-1.55-.747-.26-1.514-.279-2.29-.107-.858.19-1.58.642-2.22 1.231-.467.43-.874.933-1.237 1.47-.3.442-.593.892-.93 1.301-.355.431-.708.87-1.142 1.221-.617.499-1.235.995-1.843 1.505-.534.448-1.001.968-1.435 1.523a5.872 5.872 0 00-.849 1.499c-.394 1.017-.627 2.064-.49 3.184.08.665.18 1.321.446 1.936.13.3.273.596.438.875.201.34.432.661.556.85z" fill="#FFAD43"></path><path fill-rule="evenodd" clip-rule="evenodd" d="M55.754 37.73a50.236 50.236 0 00-4.076 11.944c-.88 4.244-1.313 8.577-1.376 12.936-.09 6.33.386 12.603 1.47 18.838 1.204 6.933 3.358 13.502 6.798 19.542 1.263 2.218 2.646 4.417 4.492 6.221 1.397 1.364 2.604 2.975 4.116 4.167 2.2 1.736 4.515 3.356 6.93 4.737 4.859 2.779 10.139 3.989 15.66 3.874 3.021-.062 6.07-.115 9.048-.586 3.088-.489 6.113-1.442 9.151-2.258 2.572-.69 5.135-1.426 7.677-2.229 3.717-1.175 7.499-2.197 11.095-3.703 4.579-1.917 9.193-3.877 13.104-7.17 3.792-3.193 6.88-7.032 8.678-11.79 1.573-4.165 1.906-8.536 1.259-13.023-.714-4.956-2.826-9.228-5.673-13.078-2.08-2.812-4.548-5.305-7.208-7.563-2.191-1.86-4.427-3.687-6.437-5.75-2.116-2.17-4.273-4.333-5.954-6.932-2.385-3.688-4.759-7.384-7.203-11.028-2.148-3.2-4.69-6.041-7.424-8.708a30.258 30.258 0 00-7.479-5.352c-5.13-2.6-10.47-4.288-16.295-3.896-3.463.232-6.883.578-10.142 1.884-1.588.636-3.162 1.35-4.656 2.196-1.819 1.029-3.547 2.233-4.558 2.88-5.053 4.226-8.448 8.64-10.998 13.848z" fill="#FF6969"></path><path d="M39 47.5a4 4 0 014-4h68a4 4 0 014 4v15s-6 1.5-6 8 6 8 6 8v15a4 4 0 01-4 4H43a4 4 0 01-4-4v-15s6-1.5 6-8-6-8-6-8v-15z" fill="#fff"></path><path d="M42 45a4 4 0 014-4h67a4 4 0 014 4v15s-6 1.5-6 8 6 8 6 8v15a4 4 0 01-4 4H46a4 4 0 01-4-4V76s6-1.5 6-8-6-8-6-8V45zM58 57.5h32M58 67.5h32M100 52v3.5M100 66v3.5M100 80v3.5" stroke="#00455D" stroke-width="3" stroke-linecap="round" stroke-linejoin="round"></path></svg>