<svg id="svg" version="1.1" xmlns="http://www.w3.org/2000/svg" xmlns:xlink="http://www.w3.org/1999/xlink" width="400" height="390.2439024390244" viewBox="0, 0, 400,390.2439024390244"><g id="svgg"><path id="path0" d="M194.537 0.263 C 91.216 3.175,8.332 82.224,0.370 185.444 C -6.181 270.370,42.683 350.852,120.995 384.121 C 135.686 390.362,141.104 391.480,145.449 389.167 C 150.736 386.352,151.073 384.080,150.434 355.560 L 150.151 342.924 147.954 343.150 C 146.745 343.274,143.824 343.654,141.463 343.994 C 112.470 348.178,91.602 339.714,83.689 320.561 C 78.688 308.455,69.870 295.821,63.550 291.707 C 61.973 290.681,60.033 289.409,59.238 288.880 C 51.947 284.033,51.921 279.683,59.178 278.654 C 70.874 276.995,82.594 284.181,92.876 299.314 C 100.677 310.796,107.059 315.966,117.268 319.077 C 124.906 321.405,137.310 320.564,146.979 317.064 C 151.681 315.362,151.208 315.895,152.159 311.220 C 153.799 303.161,157.053 296.258,161.453 291.505 C 164.557 288.152,164.561 288.170,160.488 287.619 C 104.562 280.062,78.493 254.663,73.761 203.122 C 71.371 177.093,77.034 156.316,91.181 139.218 L 93.731 136.135 92.721 132.945 C 88.269 118.883,88.929 101.759,94.510 86.585 L 95.747 83.219 98.042 82.979 C 108.107 81.927,125.705 88.486,144.697 100.367 L 150.271 103.855 155.818 102.476 C 184.533 95.336,215.361 95.334,244.730 102.468 L 250.435 103.854 254.291 101.334 C 273.043 89.079,292.756 81.619,302.725 83.006 L 304.976 83.320 306.079 86.440 C 311.525 101.846,312.351 117.819,308.390 131.122 C 306.806 136.440,306.743 136.021,309.660 139.518 C 323.210 155.759,328.654 174.686,327.051 199.977 C 324.209 244.793,303.559 271.961,264.000 282.925 C 256.856 284.905,240.305 288.000,236.858 288.000 C 236.038 288.000,236.600 288.978,238.798 291.377 C 244.305 297.387,247.555 305.339,249.219 316.878 C 249.714 320.314,249.795 325.987,249.715 352.000 C 249.614 385.060,249.551 383.869,251.542 386.764 C 253.774 390.009,259.993 391.228,265.302 389.461 C 331.511 367.421,383.139 307.696,396.257 237.968 C 419.958 111.987,322.096 -3.333,194.537 0.263 " stroke="none" fill="#e4e4e4" fill-rule="evenodd"></path><path id="path1" d="" stroke="none" fill="#e8e4e4" fill-rule="evenodd"></path><path id="path2" d="" stroke="none" fill="#e8e4e4" fill-rule="evenodd"></path><path id="path3" d="" stroke="none" fill="#e8e4e4" fill-rule="evenodd"></path><path id="path4" d="" stroke="none" fill="#e8e4e4" fill-rule="evenodd"></path></g></svg>