<svg id="svg" version="1.1" xmlns="http://www.w3.org/2000/svg" xmlns:xlink="http://www.w3.org/1999/xlink" width="400" height="390.2439024390244" viewBox="0, 0, 400,390.2439024390244"><g id="svgg"><path id="path0" d="M198.204 0.165 C 198.074 0.297,195.704 0.478,192.935 0.566 C 190.167 0.654,186.673 0.829,185.171 0.954 C 183.668 1.080,181.912 1.202,181.268 1.227 C 178.263 1.343,165.961 3.010,165.358 3.382 C 165.135 3.520,164.409 3.680,163.745 3.738 C 158.193 4.226,142.523 8.200,135.805 10.826 C 135.483 10.952,135.088 11.092,134.927 11.137 C 134.766 11.182,134.590 11.255,134.537 11.298 C 134.483 11.341,134.095 11.441,133.675 11.519 C 132.908 11.663,130.939 12.426,128.390 13.569 C 127.639 13.906,126.725 14.237,126.358 14.305 C 125.148 14.530,120.585 16.468,120.585 16.757 C 120.585 16.913,120.320 17.041,119.996 17.041 C 119.241 17.041,115.407 18.795,115.030 19.313 C 114.873 19.530,114.741 19.572,114.738 19.408 C 114.730 19.043,106.266 23.296,105.936 23.830 C 105.807 24.038,105.559 24.119,105.383 24.011 C 105.208 23.902,104.847 24.075,104.582 24.395 C 104.317 24.714,103.925 24.976,103.711 24.976 C 103.231 24.976,98.627 27.722,98.298 28.205 C 98.167 28.397,97.931 28.514,97.775 28.465 C 97.440 28.360,95.051 29.757,92.731 31.415 C 91.829 32.059,90.484 32.927,89.741 33.345 C 88.414 34.091,81.943 38.567,81.561 39.004 C 81.454 39.127,80.663 39.686,79.805 40.247 C 78.946 40.808,77.594 41.904,76.800 42.682 C 76.006 43.461,75.247 44.098,75.115 44.098 C 72.976 44.098,43.707 73.367,43.707 75.505 C 43.707 75.638,43.070 76.396,42.292 77.190 C 41.514 77.984,40.418 79.337,39.857 80.195 C 39.296 81.054,38.736 81.844,38.614 81.951 C 38.177 82.333,33.700 88.804,32.954 90.131 C 32.537 90.874,31.668 92.220,31.024 93.121 C 29.367 95.442,27.970 97.831,28.075 98.165 C 28.124 98.321,28.007 98.557,27.814 98.688 C 27.332 99.017,24.585 103.621,24.585 104.101 C 24.585 104.315,24.324 104.707,24.004 104.972 C 23.685 105.237,23.512 105.598,23.620 105.773 C 23.729 105.949,23.647 106.198,23.439 106.326 C 22.906 106.656,18.653 115.121,19.017 115.128 C 19.182 115.131,19.140 115.263,18.923 115.421 C 18.405 115.797,16.650 119.631,16.650 120.387 C 16.650 120.711,16.523 120.976,16.367 120.976 C 16.077 120.976,14.140 125.538,13.915 126.748 C 13.847 127.115,13.516 128.029,13.179 128.780 C 12.036 131.329,11.272 133.298,11.129 134.065 C 11.051 134.485,10.951 134.873,10.908 134.927 C 10.865 134.980,10.792 135.156,10.747 135.317 C 10.701 135.478,10.553 135.873,10.416 136.195 C 9.537 138.269,7.808 144.080,7.986 144.367 C 8.104 144.558,8.034 144.773,7.831 144.845 C 7.628 144.917,7.378 145.502,7.276 146.146 C 7.173 146.790,7.061 147.317,7.027 147.317 C 6.931 147.317,6.747 148.046,5.274 154.262 C 3.904 160.042,3.546 161.875,3.348 164.135 C 3.290 164.800,3.130 165.526,2.992 165.748 C 2.621 166.348,0.959 178.607,0.834 181.659 C 0.700 184.955,0.447 187.581,0.209 188.162 C -0.117 188.954,0.166 213.045,0.542 216.585 C 0.690 217.980,0.820 219.385,0.829 219.707 C 0.861 220.735,1.556 226.500,1.771 227.512 C 1.884 228.049,2.069 229.454,2.182 230.634 C 2.294 231.815,2.477 233.044,2.590 233.366 C 2.808 233.991,3.427 237.356,3.738 239.610 C 3.842 240.361,4.109 241.590,4.332 242.341 C 4.554 243.093,4.827 244.322,4.937 245.073 C 5.231 247.071,7.650 256.217,8.603 258.932 C 9.054 260.217,9.509 261.704,9.613 262.236 C 9.718 262.768,9.984 263.314,10.203 263.450 C 10.423 263.586,10.575 263.812,10.540 263.953 C 10.433 264.390,11.001 266.712,11.317 267.122 C 11.482 267.337,11.739 268.083,11.888 268.780 C 12.038 269.478,12.332 270.049,12.542 270.049 C 12.752 270.049,12.830 270.201,12.715 270.387 C 12.512 270.715,14.610 276.283,15.969 279.024 C 16.342 279.776,17.000 281.180,17.433 282.146 C 19.876 287.605,20.874 289.561,21.214 289.561 C 21.423 289.561,21.487 289.667,21.357 289.798 C 21.129 290.026,24.748 297.336,25.294 297.749 C 25.441 297.860,25.605 298.170,25.658 298.437 C 25.818 299.237,31.268 308.058,31.928 308.585 C 32.264 308.854,32.422 309.073,32.277 309.073 C 31.965 309.073,36.313 315.491,39.380 319.557 C 40.580 321.146,41.907 322.906,42.331 323.467 C 42.754 324.029,43.588 324.953,44.184 325.522 C 44.781 326.091,45.268 326.720,45.268 326.918 C 45.268 327.117,46.059 328.140,47.024 329.192 C 47.990 330.244,48.780 331.251,48.780 331.429 C 48.780 331.607,48.943 331.653,49.143 331.530 C 49.342 331.406,49.623 331.679,49.768 332.135 C 50.057 333.045,67.459 350.622,67.766 350.315 C 67.871 350.210,68.669 350.898,69.540 351.843 C 70.411 352.788,71.296 353.561,71.506 353.561 C 71.716 353.561,72.233 354.000,72.655 354.537 C 73.077 355.073,73.563 355.512,73.735 355.512 C 73.907 355.512,74.719 356.127,75.539 356.878 C 76.360 357.629,77.184 358.244,77.372 358.244 C 77.560 358.244,77.993 358.523,78.334 358.864 C 79.451 359.981,82.988 362.537,83.418 362.537 C 83.648 362.537,83.896 362.668,83.967 362.829 C 84.226 363.412,90.927 368.133,90.927 367.733 C 90.927 367.583,91.146 367.742,91.415 368.086 C 91.683 368.430,92.517 369.042,93.268 369.446 C 94.020 369.850,95.600 370.803,96.780 371.564 C 98.688 372.793,103.209 375.350,105.073 376.254 C 105.815 376.614,105.972 376.696,110.732 379.220 C 112.502 380.159,113.951 380.801,113.951 380.647 C 113.951 380.493,114.291 380.675,114.707 381.051 C 115.123 381.427,115.650 381.620,115.878 381.479 C 116.106 381.338,116.293 381.391,116.293 381.597 C 116.293 381.948,118.350 382.930,119.220 382.995 C 119.434 383.011,119.698 383.139,119.805 383.279 C 120.047 383.595,129.219 387.317,129.756 387.317 C 129.971 387.317,130.234 387.427,130.341 387.562 C 130.892 388.252,137.856 390.244,139.719 390.244 C 144.035 390.244,150.522 386.306,149.707 384.180 C 149.586 383.867,149.621 383.610,149.783 383.610 C 150.420 383.610,150.486 379.592,150.257 354.634 L 150.151 343.024 149.124 343.034 C 148.559 343.039,147.395 343.219,146.537 343.434 C 145.678 343.649,144.273 343.901,143.415 343.993 C 142.556 344.086,141.151 344.262,140.293 344.386 C 133.634 345.345,122.179 345.261,115.749 344.205 C 114.484 343.998,113.311 343.913,113.142 344.018 C 112.973 344.122,112.736 344.049,112.617 343.855 C 112.497 343.662,111.738 343.379,110.931 343.228 C 107.132 342.516,99.448 339.379,97.780 337.860 C 97.364 337.481,96.824 337.171,96.580 337.171 C 96.336 337.171,95.724 336.732,95.221 336.197 C 94.718 335.661,94.243 335.285,94.167 335.362 C 93.948 335.581,91.260 332.907,89.118 330.341 C 86.830 327.599,85.521 325.319,83.663 320.837 C 81.994 316.811,80.024 312.860,79.526 312.542 C 79.321 312.410,79.169 312.147,79.189 311.956 C 79.209 311.766,78.963 311.302,78.641 310.927 C 78.320 310.551,78.145 310.244,78.253 310.244 C 78.541 310.244,76.446 306.977,75.942 306.640 C 75.705 306.482,75.665 306.351,75.851 306.347 C 76.253 306.340,74.221 303.554,73.485 303.103 C 73.205 302.931,72.976 302.536,72.976 302.225 C 72.976 301.913,72.790 301.659,72.562 301.659 C 72.335 301.659,72.240 301.511,72.351 301.331 C 72.462 301.152,71.858 300.259,71.008 299.347 C 70.159 298.436,69.463 297.559,69.463 297.398 C 69.463 297.054,66.190 293.949,64.780 292.957 C 64.244 292.579,63.102 291.754,62.244 291.124 C 61.385 290.493,60.471 289.971,60.213 289.964 C 59.954 289.957,59.318 289.556,58.798 289.073 C 55.251 285.776,54.331 284.878,54.498 284.878 C 54.602 284.878,54.307 284.344,53.842 283.691 C 52.534 281.854,54.055 279.225,56.683 278.781 C 56.844 278.754,57.020 278.701,57.073 278.664 C 57.127 278.627,58.097 278.516,59.229 278.417 C 60.361 278.318,61.414 278.207,61.570 278.169 C 62.198 278.016,68.497 278.751,69.058 279.043 C 69.890 279.477,73.041 280.637,73.780 280.783 C 74.115 280.848,75.194 281.446,76.178 282.110 C 77.162 282.774,78.161 283.317,78.398 283.317 C 78.635 283.317,78.829 283.493,78.829 283.707 C 78.829 283.922,79.003 284.098,79.215 284.098 C 80.991 284.098,91.744 296.214,94.202 300.984 C 94.608 301.772,95.118 302.307,95.335 302.172 C 95.553 302.038,95.611 302.120,95.466 302.356 C 95.320 302.592,95.820 303.404,96.576 304.160 C 97.332 304.916,97.951 305.673,97.951 305.841 C 97.952 307.279,109.512 316.488,111.317 316.488 C 111.693 316.488,112.000 316.663,112.000 316.878 C 112.000 317.093,112.341 317.268,112.757 317.268 C 113.174 317.268,113.619 317.436,113.746 317.641 C 113.872 317.847,114.234 317.916,114.549 317.795 C 114.864 317.674,115.122 317.761,115.122 317.989 C 115.122 318.217,115.780 318.512,116.585 318.645 C 117.390 318.777,118.444 319.078,118.926 319.313 C 119.409 319.549,119.920 319.625,120.061 319.484 C 120.203 319.342,120.571 319.436,120.880 319.692 C 121.512 320.217,132.436 320.374,135.415 319.901 C 137.383 319.589,138.732 319.311,138.732 319.217 C 138.732 319.183,139.083 319.096,139.512 319.025 C 141.272 318.732,142.597 318.382,143.229 318.044 C 143.596 317.847,144.008 317.797,144.144 317.932 C 144.279 318.068,144.390 317.979,144.390 317.736 C 144.390 317.492,144.654 317.394,144.976 317.517 C 145.298 317.641,145.561 317.537,145.561 317.287 C 145.561 317.037,145.733 316.938,145.943 317.068 C 146.153 317.198,146.724 317.083,147.211 316.812 C 147.699 316.542,148.185 316.300,148.293 316.275 C 150.949 315.653,151.497 314.841,151.966 310.829 C 152.041 310.185,152.277 309.220,152.489 308.683 C 152.702 308.146,153.008 307.102,153.169 306.361 C 154.186 301.690,159.575 292.353,162.841 289.604 C 164.256 288.413,163.906 288.104,160.780 287.788 C 159.385 287.647,157.717 287.469,157.073 287.392 C 155.274 287.176,149.475 286.154,147.523 285.710 C 146.563 285.491,145.701 285.389,145.607 285.482 C 145.514 285.575,145.246 285.494,145.012 285.302 C 144.777 285.110,143.971 284.854,143.220 284.733 C 142.468 284.612,140.928 284.236,139.796 283.898 C 138.665 283.559,137.582 283.379,137.391 283.497 C 137.199 283.615,136.983 283.546,136.911 283.343 C 136.839 283.141,136.341 282.916,135.805 282.843 C 135.268 282.771,134.654 282.606,134.439 282.477 C 134.074 282.257,130.079 281.050,128.780 280.768 C 128.459 280.698,126.527 279.911,124.488 279.020 C 122.449 278.129,120.605 277.360,120.390 277.310 C 120.176 277.260,118.728 276.570,117.173 275.777 C 115.618 274.983,114.250 274.342,114.134 274.351 C 114.018 274.361,113.654 274.100,113.324 273.770 C 112.994 273.440,112.474 273.171,112.167 273.171 C 111.861 273.171,111.610 273.033,111.610 272.865 C 111.610 272.373,109.409 271.212,109.065 271.522 C 108.894 271.678,108.879 271.585,109.034 271.317 C 109.188 271.049,109.128 270.829,108.901 270.829 C 108.674 270.829,108.409 270.820,108.312 270.809 C 108.215 270.797,107.583 270.271,106.906 269.639 C 106.230 269.008,105.519 268.588,105.326 268.707 C 105.133 268.827,104.976 268.769,104.976 268.580 C 104.976 268.390,104.054 267.491,102.927 266.580 C 98.630 263.109,97.010 261.561,94.504 258.537 C 93.081 256.820,91.826 255.327,91.714 255.220 C 91.602 255.112,91.004 254.278,90.385 253.366 C 89.766 252.454,89.108 251.707,88.923 251.707 C 88.737 251.707,88.585 251.444,88.585 251.122 C 88.585 250.800,88.410 250.537,88.195 250.537 C 87.980 250.537,87.805 250.273,87.805 249.951 C 87.805 249.629,87.498 249.044,87.122 248.650 C 86.746 248.257,86.385 247.699,86.318 247.410 C 86.252 247.121,85.887 246.433,85.508 245.881 C 85.129 245.329,84.592 244.307,84.313 243.610 C 84.035 242.912,83.653 242.341,83.465 242.341 C 83.276 242.341,83.149 242.210,83.182 242.049 C 83.215 241.888,82.952 241.103,82.597 240.305 C 82.242 239.507,81.951 238.673,81.951 238.452 C 81.951 238.230,81.776 238.049,81.561 238.049 C 81.346 238.049,81.200 237.917,81.235 237.756 C 81.362 237.173,80.687 235.317,80.348 235.317 C 80.157 235.317,80.000 234.790,80.000 234.146 C 80.000 233.502,79.814 232.976,79.587 232.976 C 79.359 232.976,79.282 232.800,79.415 232.585 C 79.547 232.371,79.459 232.195,79.220 232.195 C 78.980 232.195,78.896 232.012,79.035 231.788 C 79.173 231.564,79.074 231.125,78.815 230.812 C 78.556 230.500,78.434 230.244,78.545 230.244 C 78.657 230.244,78.399 229.146,77.973 227.805 C 77.547 226.463,77.118 224.839,77.020 224.195 C 76.921 223.551,76.738 222.761,76.613 222.439 C 76.487 222.117,76.330 221.502,76.263 221.073 C 76.196 220.644,75.950 219.415,75.716 218.341 C 75.481 217.268,75.231 216.039,75.158 215.610 C 75.086 215.180,74.993 214.829,74.953 214.829 C 74.913 214.829,74.803 213.951,74.710 212.878 C 74.616 211.805,74.359 209.837,74.139 208.505 C 73.309 203.481,72.771 182.075,73.452 181.195 C 73.649 180.941,73.728 180.206,73.627 179.564 C 73.525 178.921,73.549 178.289,73.679 178.158 C 73.809 178.028,73.970 177.445,74.037 176.863 C 74.104 176.281,74.339 175.012,74.559 174.044 C 74.780 173.075,75.017 171.845,75.087 171.312 C 75.157 170.778,75.316 170.078,75.440 169.756 C 76.098 168.053,76.837 164.933,76.653 164.635 C 76.537 164.447,76.628 164.293,76.855 164.293 C 77.082 164.293,77.268 164.033,77.268 163.715 C 77.268 163.397,78.100 161.246,79.116 158.935 C 80.132 156.623,80.922 154.600,80.872 154.439 C 80.822 154.278,80.966 154.146,81.194 154.146 C 81.421 154.146,81.499 153.971,81.366 153.756 C 81.233 153.541,81.321 153.366,81.561 153.366 C 81.801 153.366,81.889 153.190,81.756 152.976 C 81.623 152.761,81.701 152.585,81.928 152.585 C 82.155 152.585,82.341 152.400,82.341 152.173 C 82.341 151.946,83.395 150.083,84.683 148.034 C 85.971 145.985,87.024 144.232,87.024 144.137 C 87.024 144.043,87.463 143.492,88.000 142.914 C 88.537 142.335,88.976 141.659,88.976 141.412 C 88.976 141.164,89.201 140.875,89.477 140.769 C 89.753 140.663,90.498 139.810,91.132 138.874 C 91.767 137.937,92.592 136.889,92.965 136.546 C 93.339 136.202,93.516 135.792,93.359 135.635 C 93.202 135.478,93.051 135.189,93.024 134.992 C 92.998 134.795,92.932 134.546,92.878 134.439 C 92.824 134.332,92.737 134.068,92.683 133.854 C 92.629 133.639,92.549 133.420,92.504 133.366 C 92.460 133.312,92.339 132.745,92.235 132.105 C 92.131 131.465,91.926 130.850,91.779 130.739 C 91.632 130.628,91.462 130.185,91.400 129.756 C 91.072 127.473,90.826 126.090,90.497 124.683 C 89.704 121.283,89.183 107.436,89.800 106.133 C 89.956 105.804,90.166 104.399,90.267 103.011 C 90.368 101.623,90.552 100.224,90.675 99.902 C 90.799 99.580,90.981 98.615,91.080 97.756 C 91.179 96.898,91.528 95.334,91.854 94.281 C 92.181 93.229,92.419 92.263,92.385 92.135 C 92.350 92.007,92.542 91.505,92.811 91.020 C 93.080 90.535,93.337 89.613,93.382 88.972 C 93.427 88.331,93.595 87.806,93.756 87.806 C 93.917 87.805,94.020 87.673,93.986 87.512 C 93.951 87.351,94.144 86.693,94.415 86.049 C 94.685 85.405,94.964 84.615,95.033 84.293 C 95.103 83.971,95.194 83.620,95.236 83.512 C 95.278 83.405,95.306 83.229,95.298 83.122 C 95.258 82.544,103.961 82.720,105.480 83.328 C 105.865 83.483,106.270 83.519,106.379 83.410 C 106.488 83.300,107.379 83.452,108.359 83.747 C 109.338 84.041,110.283 84.194,110.457 84.086 C 110.632 83.978,110.893 84.080,111.037 84.313 C 111.181 84.546,111.538 84.644,111.832 84.531 C 112.125 84.419,112.456 84.473,112.566 84.652 C 112.743 84.938,115.818 85.933,116.878 86.048 C 117.093 86.071,117.830 86.388,118.517 86.752 C 119.204 87.117,119.946 87.415,120.166 87.415 C 120.386 87.415,121.756 87.961,123.210 88.630 C 128.305 90.971,129.951 91.663,129.951 91.463 C 129.951 91.352,130.227 91.537,130.564 91.875 C 130.902 92.212,131.414 92.488,131.703 92.488 C 131.991 92.488,132.286 92.627,132.358 92.796 C 132.572 93.305,136.869 95.586,137.127 95.328 C 137.258 95.197,137.366 95.263,137.366 95.476 C 137.366 95.688,138.112 96.263,139.024 96.755 C 142.191 98.459,144.297 99.718,147.319 101.711 L 150.357 103.714 154.691 102.560 C 157.074 101.925,159.376 101.345,159.805 101.271 C 161.216 101.029,166.809 99.939,167.805 99.713 C 168.341 99.591,169.659 99.391,170.732 99.268 C 171.805 99.145,172.783 98.983,172.906 98.908 C 173.029 98.833,174.170 98.669,175.442 98.543 C 176.715 98.418,178.283 98.244,178.927 98.156 C 179.571 98.069,181.502 97.883,183.220 97.742 C 184.937 97.601,187.044 97.371,187.902 97.231 C 191.251 96.684,214.301 97.091,217.765 97.758 C 218.297 97.860,219.961 98.029,221.463 98.133 C 222.966 98.237,224.634 98.415,225.171 98.528 C 225.707 98.641,226.849 98.815,227.707 98.913 C 229.250 99.091,229.738 99.173,233.561 99.902 C 236.805 100.521,237.799 100.698,239.074 100.881 C 239.745 100.977,240.780 101.241,241.372 101.466 C 241.965 101.691,242.522 101.803,242.611 101.714 C 242.700 101.625,243.554 101.787,244.508 102.075 C 245.463 102.362,246.244 102.496,246.244 102.373 C 246.244 102.249,246.463 102.329,246.732 102.550 C 247.000 102.770,247.779 103.038,248.464 103.145 C 249.148 103.252,249.895 103.454,250.122 103.595 C 250.350 103.736,250.537 103.665,250.537 103.438 C 250.537 103.210,250.719 103.024,250.943 103.024 C 251.398 103.024,253.698 101.481,254.140 100.878 C 254.298 100.663,254.430 100.631,254.433 100.807 C 254.436 100.983,255.009 100.719,255.706 100.222 C 256.402 99.724,257.588 98.991,258.340 98.593 C 259.092 98.195,260.059 97.547,260.488 97.153 C 260.917 96.760,261.394 96.471,261.548 96.511 C 261.702 96.552,262.187 96.278,262.626 95.902 C 263.065 95.527,263.670 95.220,263.972 95.220 C 264.274 95.220,264.579 95.088,264.650 94.927 C 264.722 94.766,265.659 94.204,266.732 93.679 C 267.805 93.154,268.990 92.468,269.366 92.155 C 269.741 91.842,270.049 91.695,270.049 91.829 C 270.049 91.962,271.410 91.401,273.073 90.582 C 274.737 89.763,277.151 88.673,278.439 88.160 C 279.727 87.647,280.910 87.050,281.067 86.833 C 281.225 86.616,281.357 86.561,281.360 86.711 C 281.365 86.944,284.640 85.973,286.439 85.205 C 287.502 84.751,292.344 83.510,293.854 83.304 C 303.713 81.959,304.657 82.187,306.107 86.268 C 306.714 87.977,307.369 89.473,307.563 89.592 C 307.757 89.712,307.828 89.952,307.720 90.125 C 307.550 90.402,308.316 93.577,308.950 95.220 C 309.074 95.541,309.236 96.244,309.309 96.780 C 309.383 97.317,309.623 98.634,309.844 99.707 C 311.117 105.907,311.455 117.844,310.478 122.146 C 310.356 122.683,310.201 123.828,310.133 124.692 C 310.065 125.556,309.878 126.474,309.718 126.733 C 309.558 126.991,309.368 127.777,309.296 128.480 C 309.223 129.182,309.069 130.020,308.953 130.341 C 308.838 130.663,308.379 131.943,307.933 133.185 C 306.911 136.033,306.889 135.837,308.390 137.402 C 309.761 138.831,310.635 140.026,314.131 145.246 C 315.380 147.112,316.538 148.517,316.703 148.368 C 316.868 148.219,316.886 148.303,316.742 148.554 C 316.598 148.805,316.758 149.288,317.097 149.627 C 317.437 149.966,317.570 150.247,317.394 150.250 C 317.217 150.253,317.249 150.385,317.463 150.543 C 317.959 150.907,322.156 159.538,322.395 160.685 C 322.428 160.845,322.936 162.307,323.524 163.934 C 324.111 165.562,324.716 167.624,324.867 168.518 C 325.018 169.411,325.285 170.231,325.461 170.340 C 325.637 170.448,325.694 170.869,325.588 171.273 C 325.482 171.678,325.579 172.123,325.803 172.261 C 326.027 172.400,326.110 172.773,325.988 173.091 C 325.866 173.408,325.930 173.886,326.129 174.151 C 326.329 174.417,326.522 175.073,326.559 175.610 C 326.596 176.146,326.801 178.254,327.016 180.293 C 327.409 184.020,327.530 195.082,327.229 199.805 C 326.773 206.970,326.648 208.442,326.476 208.721 C 326.372 208.889,326.178 210.156,326.043 211.537 C 325.775 214.294,325.703 214.755,325.311 216.195 C 325.062 217.107,324.942 217.866,324.412 221.854 C 324.298 222.712,324.034 223.626,323.825 223.885 C 323.616 224.144,323.558 224.539,323.697 224.763 C 323.835 224.987,323.742 225.171,323.490 225.171 C 323.227 225.171,323.116 225.496,323.230 225.933 C 323.340 226.351,323.305 226.747,323.152 226.811 C 322.826 226.947,319.610 236.241,319.610 237.045 C 319.610 237.347,319.425 237.655,319.198 237.731 C 318.972 237.806,318.741 238.128,318.686 238.446 C 318.630 238.764,317.760 240.649,316.752 242.634 C 315.744 244.620,315.009 246.244,315.118 246.244 C 315.228 246.244,315.010 246.568,314.634 246.963 C 313.912 247.724,312.598 249.990,312.634 250.412 C 312.646 250.549,312.376 250.818,312.035 251.009 C 311.694 251.200,311.415 251.521,311.415 251.722 C 311.415 252.054,310.731 253.005,309.640 254.190 C 309.415 254.434,308.476 255.600,307.552 256.780 C 305.139 259.868,301.395 263.683,299.024 265.474 C 297.898 266.324,296.976 267.175,296.976 267.364 C 296.976 267.553,296.747 267.707,296.467 267.707 C 296.186 267.707,295.265 268.342,294.418 269.118 C 293.571 269.893,292.829 270.499,292.770 270.464 C 292.526 270.322,289.561 272.168,289.561 272.462 C 289.561 272.637,289.298 272.780,288.976 272.780 C 288.654 272.780,288.390 272.956,288.390 273.171 C 288.390 273.385,288.259 273.518,288.098 273.465 C 287.723 273.342,281.249 276.688,280.932 277.168 C 280.801 277.367,280.581 277.515,280.444 277.497 C 280.307 277.478,280.151 277.477,280.098 277.493 C 280.044 277.510,279.666 277.586,279.259 277.662 C 278.851 277.739,278.412 277.967,278.283 278.169 C 278.154 278.371,277.478 278.660,276.780 278.811 C 276.083 278.963,275.512 279.258,275.512 279.469 C 275.512 279.679,275.350 279.751,275.151 279.628 C 274.820 279.423,272.848 280.102,272.390 280.577 C 272.283 280.689,271.932 280.810,271.610 280.845 C 271.288 280.881,270.410 281.127,269.659 281.392 C 267.902 282.012,267.192 282.254,266.829 282.357 C 266.668 282.402,266.405 282.482,266.244 282.534 C 266.083 282.586,265.826 282.610,265.672 282.587 C 265.519 282.564,264.904 282.748,264.306 282.996 C 263.709 283.244,263.132 283.468,263.024 283.493 C 262.917 283.518,261.249 283.872,259.317 284.280 C 257.385 284.688,255.717 285.121,255.610 285.242 C 255.502 285.364,255.063 285.499,254.634 285.543 C 254.205 285.587,253.239 285.726,252.488 285.851 C 251.737 285.977,250.507 286.169,249.756 286.278 C 249.005 286.387,248.168 286.551,247.897 286.643 C 247.626 286.734,246.572 286.913,245.556 287.040 C 244.539 287.168,242.654 287.457,241.366 287.683 C 240.078 287.908,238.541 288.138,237.951 288.193 C 237.361 288.248,236.762 288.315,236.621 288.341 C 236.479 288.368,237.126 289.137,238.058 290.049 C 239.843 291.797,243.326 296.877,244.546 299.512 C 244.943 300.371,245.415 301.181,245.594 301.312 C 245.774 301.443,245.892 301.619,245.857 301.702 C 245.678 302.128,246.779 305.561,247.094 305.561 C 247.296 305.561,247.354 305.733,247.224 305.943 C 247.095 306.153,247.171 306.666,247.394 307.083 C 247.617 307.500,247.905 308.513,248.034 309.335 C 248.164 310.157,248.397 311.005,248.553 311.220 C 248.710 311.434,248.869 312.137,248.908 312.780 C 248.946 313.424,249.067 314.390,249.177 314.927 C 249.732 317.657,249.844 323.507,249.895 352.553 C 249.940 377.512,250.054 384.164,250.441 384.293 C 250.711 384.383,250.832 384.618,250.711 384.814 C 250.590 385.010,250.687 385.171,250.927 385.171 C 251.167 385.171,251.262 385.334,251.139 385.534 C 250.831 386.031,254.524 389.154,256.093 389.723 C 258.757 390.689,265.181 390.029,266.712 388.631 C 266.916 388.445,267.300 388.293,267.565 388.293 C 267.830 388.293,268.541 388.090,269.145 387.843 C 269.750 387.595,270.564 387.331,270.956 387.255 C 271.348 387.180,272.051 386.905,272.517 386.646 C 272.984 386.386,273.454 386.153,273.561 386.128 C 274.914 385.812,275.902 385.426,275.902 385.214 C 275.902 385.069,276.702 384.715,277.680 384.426 C 278.658 384.137,279.668 383.704,279.924 383.463 C 280.180 383.222,280.566 383.011,280.780 382.995 C 281.650 382.930,283.707 381.948,283.707 381.597 C 283.707 381.391,283.858 381.316,284.043 381.430 C 284.454 381.683,286.432 380.805,286.436 380.367 C 286.438 380.194,286.615 380.160,286.829 380.293 C 287.044 380.425,287.220 380.348,287.220 380.121 C 287.220 379.893,287.466 379.707,287.767 379.707 C 288.885 379.707,303.823 371.473,306.146 369.577 C 306.576 369.227,307.407 368.700,307.993 368.408 C 308.580 368.115,309.454 367.508,309.935 367.060 C 310.417 366.611,310.827 366.332,310.846 366.439 C 310.865 366.546,312.051 365.826,313.482 364.838 C 314.912 363.850,315.998 362.928,315.895 362.789 C 315.792 362.650,315.819 362.619,315.956 362.720 C 316.256 362.942,318.314 361.548,319.471 360.338 C 319.932 359.857,320.383 359.537,320.474 359.628 C 320.565 359.720,321.308 359.182,322.125 358.434 C 322.942 357.685,323.762 357.073,323.948 357.073 C 324.134 357.073,324.505 356.722,324.773 356.293 C 325.042 355.863,325.455 355.512,325.692 355.512 C 325.929 355.512,326.457 355.138,326.866 354.680 C 327.275 354.222,328.488 353.195,329.561 352.397 C 332.522 350.197,351.401 331.317,350.640 331.317 C 350.482 331.317,350.960 330.746,351.701 330.049 C 353.128 328.707,356.491 324.683,356.185 324.683 C 356.086 324.683,356.616 324.035,357.363 323.244 C 358.109 322.452,359.184 321.091,359.750 320.219 C 360.316 319.347,360.976 318.459,361.216 318.244 C 362.131 317.426,366.001 311.497,365.770 311.266 C 365.637 311.133,365.707 311.024,365.925 311.024 C 366.360 311.024,368.974 307.107,368.854 306.634 C 368.814 306.473,368.952 306.341,369.161 306.341 C 369.609 306.341,370.893 304.003,370.449 303.994 C 370.283 303.991,370.337 303.859,370.570 303.701 C 371.623 302.989,375.551 296.072,375.138 295.658 C 375.004 295.524,375.087 295.415,375.323 295.415 C 375.559 295.415,376.378 294.185,377.144 292.683 C 377.910 291.180,378.421 289.951,378.281 289.951 C 378.140 289.951,378.291 289.644,378.616 289.268 C 379.573 288.161,381.692 283.688,381.448 283.291 C 381.324 283.091,381.437 282.927,381.701 282.927 C 381.964 282.927,382.067 282.815,381.930 282.678 C 381.793 282.541,382.028 281.944,382.451 281.350 C 382.873 280.756,383.220 280.025,383.220 279.725 C 383.220 279.426,383.430 278.970,383.688 278.712 C 383.945 278.455,383.989 278.241,383.785 278.238 C 383.568 278.234,383.576 278.113,383.805 277.945 C 384.611 277.353,390.155 262.634,389.573 262.634 C 389.460 262.634,389.560 262.403,389.795 262.120 C 390.289 261.525,391.823 256.780,391.521 256.780 C 391.410 256.780,391.493 256.561,391.706 256.293 C 392.039 255.873,392.858 252.944,393.112 251.267 C 393.156 250.972,393.304 250.555,393.439 250.338 C 393.574 250.122,393.812 249.244,393.967 248.387 C 394.272 246.702,394.327 246.448,394.886 244.098 C 395.090 243.239,395.364 241.834,395.495 240.976 C 395.894 238.353,396.125 237.150,396.276 236.905 C 396.630 236.331,398.328 224.818,398.642 220.855 C 398.754 219.447,398.931 217.866,399.036 217.343 C 399.853 213.245,399.859 195.314,399.046 185.561 C 398.920 184.059,398.798 182.302,398.773 181.659 C 398.657 178.653,396.990 166.351,396.618 165.748 C 396.480 165.526,396.320 164.800,396.262 164.135 C 395.774 158.583,391.800 142.913,389.174 136.195 C 389.048 135.873,388.908 135.478,388.863 135.317 C 388.818 135.156,388.745 134.980,388.702 134.927 C 388.659 134.873,388.559 134.485,388.481 134.065 C 388.337 133.298,387.574 131.329,386.431 128.780 C 386.094 128.029,385.763 127.115,385.695 126.748 C 385.470 125.538,383.532 120.976,383.243 120.976 C 383.087 120.976,382.959 120.711,382.959 120.387 C 382.959 119.631,381.205 115.797,380.687 115.421 C 380.470 115.263,380.428 115.131,380.592 115.128 C 380.957 115.121,376.704 106.656,376.170 106.326 C 375.962 106.198,375.881 105.949,375.989 105.773 C 376.098 105.598,375.925 105.237,375.605 104.972 C 375.286 104.707,375.024 104.315,375.024 104.101 C 375.024 103.621,372.278 99.017,371.795 98.688 C 371.603 98.557,371.486 98.321,371.535 98.165 C 371.640 97.831,370.243 95.442,368.585 93.121 C 367.941 92.220,367.073 90.874,366.655 90.131 C 365.909 88.804,361.433 82.333,360.996 81.951 C 360.873 81.844,360.314 81.054,359.753 80.195 C 359.192 79.337,358.096 77.984,357.318 77.190 C 356.539 76.396,355.902 75.638,355.902 75.505 C 355.902 73.367,326.633 44.098,324.495 44.098 C 324.362 44.098,323.604 43.461,322.810 42.682 C 322.016 41.904,320.663 40.808,319.805 40.247 C 318.946 39.686,318.156 39.127,318.049 39.004 C 317.667 38.567,311.196 34.091,309.869 33.345 C 309.126 32.927,307.780 32.059,306.879 31.415 C 304.558 29.757,302.169 28.360,301.835 28.465 C 301.679 28.514,301.443 28.397,301.312 28.205 C 300.983 27.722,296.379 24.976,295.899 24.976 C 295.685 24.976,295.293 24.714,295.028 24.395 C 294.763 24.075,294.402 23.902,294.227 24.011 C 294.051 24.119,293.802 24.038,293.674 23.830 C 293.344 23.296,284.879 19.043,284.872 19.408 C 284.869 19.572,284.737 19.530,284.579 19.313 C 284.203 18.795,280.369 17.041,279.613 17.041 C 279.289 17.041,279.024 16.913,279.024 16.757 C 279.024 16.468,274.462 14.530,273.252 14.305 C 272.885 14.237,271.971 13.906,271.220 13.569 C 268.671 12.426,266.702 11.663,265.935 11.519 C 265.515 11.441,265.127 11.341,265.073 11.298 C 265.020 11.255,264.844 11.182,264.683 11.137 C 264.522 11.092,264.127 10.943,263.805 10.806 C 261.731 9.927,255.920 8.198,255.633 8.376 C 255.442 8.494,255.227 8.424,255.155 8.222 C 255.083 8.019,254.498 7.769,253.854 7.666 C 253.210 7.563,252.683 7.451,252.683 7.417 C 252.683 7.322,251.954 7.138,245.738 5.664 C 239.958 4.294,238.125 3.937,235.865 3.738 C 235.200 3.680,234.474 3.520,234.252 3.382 C 233.649 3.010,221.347 1.343,218.341 1.227 C 217.698 1.202,215.941 1.078,214.439 0.951 C 212.937 0.824,209.951 0.662,207.805 0.592 C 205.659 0.522,202.673 0.343,201.171 0.194 C 199.668 0.045,198.333 0.032,198.204 0.165 " stroke="none" fill="#8c24ac" fill-rule="evenodd"></path><path id="path1" d="M95.509 29.235 C 93.905 30.263,93.683 30.625,95.097 29.906 C 95.781 29.558,96.450 29.097,96.584 28.881 C 96.897 28.374,96.803 28.405,95.509 29.235 M303.026 28.880 C 303.287 29.303,305.561 30.570,305.561 30.292 C 305.561 30.201,304.936 29.757,304.172 29.306 C 303.408 28.855,302.892 28.664,303.026 28.880 M91.317 32.000 C 90.780 32.420,90.534 32.767,90.769 32.772 C 91.004 32.777,91.514 32.429,91.902 32.000 C 92.792 31.017,92.574 31.017,91.317 32.000 M307.794 32.029 C 308.271 32.526,308.759 32.834,308.879 32.714 C 308.999 32.594,308.609 32.188,308.012 31.811 L 306.927 31.125 307.794 32.029 M75.512 43.317 C 75.124 43.746,75.003 44.098,75.243 44.098 C 75.483 44.098,75.868 43.746,76.098 43.317 C 76.327 42.888,76.448 42.537,76.367 42.537 C 76.285 42.537,75.901 42.888,75.512 43.317 M323.512 43.317 C 323.742 43.746,324.127 44.098,324.367 44.098 C 324.607 44.098,324.486 43.746,324.098 43.317 C 323.709 42.888,323.324 42.537,323.243 42.537 C 323.161 42.537,323.282 42.888,323.512 43.317 M329.366 47.732 C 329.366 47.799,329.937 48.370,330.634 49.000 L 331.902 50.146 330.756 48.878 C 329.688 47.696,329.366 47.430,329.366 47.732 M61.434 55.555 C 56.148 60.636,47.816 69.468,50.522 67.122 C 51.141 66.585,52.188 65.535,52.848 64.787 C 54.610 62.793,62.679 54.765,65.325 52.374 C 66.582 51.239,67.531 50.230,67.434 50.133 C 67.337 50.036,64.637 52.476,61.434 55.555 M332.878 50.912 C 333.415 51.531,334.465 52.578,335.213 53.238 C 337.207 55.000,345.235 63.069,347.626 65.715 C 348.761 66.972,349.770 67.921,349.867 67.824 C 350.132 67.559,339.344 56.446,335.374 52.894 C 333.465 51.185,332.341 50.294,332.878 50.912 M48.171 69.561 L 47.024 70.829 48.293 69.683 C 49.475 68.615,49.740 68.293,49.439 68.293 C 49.372 68.293,48.801 68.863,48.171 69.561 M42.695 76.154 C 41.955 76.987,41.956 76.989,42.829 76.531 C 43.312 76.277,43.707 75.901,43.707 75.694 C 43.707 75.139,43.521 75.224,42.695 76.154 M355.902 75.694 C 355.902 75.901,356.298 76.277,356.780 76.531 C 357.654 76.989,357.655 76.987,356.915 76.154 C 356.089 75.224,355.902 75.139,355.902 75.694 M31.420 91.988 L 30.735 93.073 31.639 92.206 C 32.135 91.729,32.444 91.241,32.324 91.121 C 32.204 91.001,31.797 91.391,31.420 91.988 M367.220 91.257 C 367.220 91.438,367.598 91.921,368.060 92.330 L 368.901 93.073 368.211 92.000 C 367.499 90.893,367.220 90.684,367.220 91.257 M28.916 95.828 C 28.465 96.592,28.273 97.108,28.490 96.974 C 28.913 96.713,30.180 94.439,29.902 94.439 C 29.811 94.439,29.367 95.064,28.916 95.828 M370.134 95.585 C 370.459 96.215,370.903 96.840,371.120 96.974 C 371.336 97.108,371.145 96.592,370.694 95.828 C 369.705 94.153,369.303 93.978,370.134 95.585 M143.220 99.272 C 143.220 99.355,143.702 99.733,144.293 100.113 L 145.366 100.804 144.622 99.963 C 143.965 99.219,143.220 98.852,143.220 99.272 M92.665 136.698 C 91.696 137.822,91.668 138.263,92.620 137.395 C 93.191 136.875,93.659 136.392,93.659 136.322 C 93.659 136.027,93.042 136.260,92.665 136.698 M307.453 136.780 C 307.695 137.210,308.694 138.439,309.673 139.512 C 311.057 141.028,311.254 141.158,310.556 140.095 C 309.528 138.527,306.787 135.600,307.453 136.780 M73.097 187.512 C 73.099 188.800,73.172 189.280,73.258 188.578 C 73.345 187.877,73.343 186.823,73.254 186.237 C 73.165 185.651,73.094 186.224,73.097 187.512 M73.710 206.134 C 73.889 207.218,73.944 207.273,74.067 206.492 C 74.147 205.984,74.052 205.408,73.855 205.211 C 73.638 204.995,73.581 205.359,73.710 206.134 M323.956 222.114 C 323.926 222.472,323.789 223.087,323.650 223.480 C 323.455 224.032,323.507 224.094,323.878 223.752 C 324.142 223.509,324.280 222.894,324.184 222.386 C 324.087 221.879,323.985 221.756,323.956 222.114 M302.654 261.607 C 300.090 264.211,298.811 265.676,299.813 264.862 C 302.150 262.964,308.264 256.525,307.443 256.827 C 307.374 256.852,305.219 259.003,302.654 261.607 M95.351 259.610 C 96.773 261.271,100.160 264.489,101.397 265.353 C 101.541 265.454,99.906 263.742,97.763 261.549 C 93.425 257.107,92.736 256.554,95.351 259.610 M73.756 280.899 C 73.756 281.087,74.206 281.446,74.757 281.696 C 75.328 281.957,75.653 281.985,75.515 281.761 C 75.161 281.188,73.756 280.500,73.756 280.899 M56.103 286.634 C 57.083 287.600,57.980 288.390,58.097 288.390 C 58.213 288.390,57.533 287.600,56.585 286.634 C 55.637 285.668,54.740 284.878,54.592 284.878 C 54.444 284.878,55.124 285.668,56.103 286.634 M82.707 287.195 C 83.901 288.361,85.816 290.293,86.962 291.487 L 89.045 293.659 86.899 291.122 C 85.164 289.073,81.017 285.073,80.627 285.073 C 80.577 285.073,81.513 286.028,82.707 287.195 M238.049 288.000 C 237.273 288.501,238.248 288.501,239.415 288.000 L 240.195 287.665 239.415 287.643 C 238.985 287.631,238.371 287.792,238.049 288.000 M58.965 289.073 C 59.262 289.556,59.755 289.951,60.061 289.951 C 60.367 289.951,60.545 289.905,60.455 289.849 C 60.366 289.794,59.873 289.398,59.359 288.971 L 58.426 288.195 58.965 289.073 M162.732 289.693 C 161.539 290.778,160.206 292.293,160.444 292.293 C 160.540 292.293,161.394 291.502,162.341 290.537 C 164.156 288.688,164.388 288.186,162.732 289.693 M238.451 291.024 C 241.321 294.127,241.479 294.262,240.207 292.528 C 239.088 291.002,236.931 288.780,236.568 288.780 C 236.462 288.780,237.309 289.790,238.451 291.024 M64.000 292.273 C 64.751 292.947,65.629 293.694,65.951 293.935 C 66.273 294.175,67.063 294.826,67.707 295.380 C 68.783 296.307,68.772 296.273,67.569 294.963 C 66.849 294.179,65.444 292.977,64.447 292.293 L 62.634 291.049 64.000 292.273 M92.689 299.037 C 93.066 299.634,93.472 300.024,93.592 299.904 C 93.712 299.784,93.404 299.295,92.907 298.818 L 92.003 297.951 92.689 299.037 M72.419 301.567 C 72.649 301.725,72.951 302.161,73.089 302.537 C 73.228 302.912,73.566 303.217,73.841 303.214 C 74.175 303.210,74.202 303.112,73.923 302.921 C 73.692 302.763,73.391 302.327,73.252 301.951 C 73.113 301.576,72.775 301.271,72.500 301.274 C 72.167 301.278,72.140 301.376,72.419 301.567 M96.939 305.114 C 97.764 306.044,97.951 306.129,97.951 305.575 C 97.951 305.368,97.556 304.991,97.073 304.737 C 96.200 304.279,96.199 304.281,96.939 305.114 M100.488 309.073 C 101.979 310.576,103.305 311.805,103.434 311.805 C 103.564 311.805,102.441 310.576,100.939 309.073 C 99.436 307.571,98.110 306.341,97.992 306.341 C 97.874 306.341,98.997 307.571,100.488 309.073 M151.090 314.517 C 150.862 315.172,150.758 315.707,150.859 315.707 C 151.123 315.707,151.859 313.680,151.666 313.487 C 151.577 313.398,151.318 313.862,151.090 314.517 M44.295 326.246 C 44.685 326.677,45.084 326.949,45.182 326.850 C 45.394 326.639,44.281 325.463,43.870 325.463 C 43.714 325.463,43.905 325.816,44.295 326.246 M86.794 327.345 C 87.107 327.951,87.668 328.698,88.041 329.004 C 88.424 329.319,88.243 328.840,87.624 327.902 C 86.373 326.004,85.955 325.725,86.794 327.345 M351.451 330.342 C 350.828 330.878,350.490 331.317,350.701 331.317 C 350.911 331.317,351.496 330.878,352.000 330.341 C 353.175 329.091,352.906 329.091,351.451 330.342 M90.128 331.512 C 91.644 333.336,94.049 335.635,94.049 335.261 C 94.049 335.118,92.875 333.865,91.440 332.477 C 89.902 330.988,89.363 330.592,90.128 331.512 M49.172 331.618 C 49.170 332.523,57.795 341.616,64.182 347.442 C 66.107 349.198,63.876 346.833,59.226 342.188 C 54.575 337.542,50.411 333.152,49.972 332.432 C 49.533 331.711,49.173 331.345,49.172 331.618 M349.268 332.914 C 349.268 333.148,345.201 337.406,340.230 342.377 C 335.259 347.348,332.054 350.627,333.108 349.664 C 340.372 343.030,350.555 332.488,349.699 332.488 C 349.462 332.488,349.268 332.679,349.268 332.914 M67.902 350.301 C 67.902 350.511,68.473 351.199,69.171 351.829 L 70.439 352.976 69.268 351.612 C 68.624 350.862,68.054 350.174,68.000 350.083 C 67.946 349.993,67.902 350.091,67.902 350.301 M328.148 353.591 L 326.439 355.182 328.293 353.703 C 329.312 352.890,330.146 352.174,330.146 352.112 C 330.146 351.812,329.720 352.127,328.148 353.591 M150.399 360.976 C 150.399 364.088,150.460 365.361,150.534 363.805 C 150.608 362.249,150.608 359.702,150.534 358.146 C 150.460 356.590,150.399 357.863,150.399 360.976 M84.293 363.459 C 84.293 363.566,84.820 364.029,85.463 364.488 C 86.107 364.946,86.634 365.234,86.634 365.126 C 86.634 365.019,86.107 364.556,85.463 364.098 C 84.820 363.639,84.293 363.352,84.293 363.459 M249.519 376.195 C 249.519 379.093,249.580 380.278,249.655 378.829 C 249.730 377.380,249.730 375.010,249.655 373.561 C 249.580 372.112,249.519 373.298,249.519 376.195 M105.398 376.731 C 105.488 376.811,106.176 377.173,106.927 377.535 L 108.293 378.193 107.317 377.398 C 106.550 376.773,104.743 376.145,105.398 376.731 M147.491 387.364 C 146.752 388.141,146.498 388.564,146.927 388.302 C 147.631 387.874,149.305 385.951,148.973 385.951 C 148.898 385.951,148.231 386.587,147.491 387.364 M251.638 386.901 C 252.122 387.531,253.082 388.383,253.771 388.795 C 255.153 389.620,255.045 389.490,252.500 387.274 C 251.026 385.990,250.892 385.933,251.638 386.901 " stroke="none" fill="#8c24a4" fill-rule="evenodd"></path><path id="path2" d="" stroke="none" fill="#9024ac" fill-rule="evenodd"></path><path id="path3" d="" stroke="none" fill="#9024ac" fill-rule="evenodd"></path><path id="path4" d="" stroke="none" fill="#9024ac" fill-rule="evenodd"></path></g></svg>