<?xml version="1.0" encoding="UTF-8"?>
<svg
  width="593"
  height="570"
  viewBox="0 0 593 570"
  fill="none"
  xmlns="http://www.w3.org/2000/svg"
>
  <g opacity="0.2">
    <path
      fill-rule="evenodd"
      clip-rule="evenodd"
      d="M426.693 569.647C400.184 569.956 374.471 563.874 349.118 555.379C312.822 543.22 276.5 531.146 240.442 518.002C217.402 509.608 194.187 501.124 172.184 489.514C142.251 473.722 114.76 452.648 90.4338 425.539C68.0355 400.582 49.3389 372.344 34.6029 340.325C21.4256 311.698 12.4329 281.208 6.74664 248.89C0.0943514 211.055 -0.933108 173.135 2.9924 135.225C6.21535 104.085 13.6405 73.8389 24.4685 45.1324C44.0478 -6.76837 72.6372 -50.2968 110.399 -84.1109C134.58 -105.755 161.163 -122.436 190.293 -133.317C215.633 -142.781 241.491 -147.532 267.622 -148.826C288.417 -149.859 309.204 -146.173 329.798 -141.071C354.374 -134.978 377.602 -124.518 399.592 -110.543C434.012 -88.6645 463.138 -58.7703 487.156 -21.4252C506.428 8.5329 520.804 41.7931 533.042 76.406C538.618 92.1866 541.661 109.283 545.837 125.788C551.664 148.79 557.648 171.745 563.238 194.832C568.45 216.344 573.522 237.919 578.141 259.622C583.99 287.13 589.79 314.638 591.981 343.116C594.049 370.017 593.083 396.657 588.025 422.812C582.861 449.522 573.06 473.877 559.08 495.654C537.178 529.783 508.676 551.624 474.488 562.926C458.843 568.097 442.834 569.647 426.693 569.647Z"
      fill="#97CAD1"
    />
  </g>
</svg>