<svg width="338" height="240" viewBox="0 0 338 240" xmlns="http://www.w3.org/2000/svg"><g fill="none" fill-rule="evenodd"><path fill="#FFF" d="M0 240h338V0H0z"/><path d="M109.204 220.327c9.963 1.166 19.818.537 29.61-.772 14.02-1.874 28.044-3.723 42.002-5.877 8.92-1.376 17.907-2.77 26.532-5.076 11.732-3.134 22.705-7.826 32.668-14.311 9.171-5.971 17.05-12.997 23.551-21.228 5.814-7.36 10.108-15.403 13.213-24.085 3.635-10.165 5.154-20.582 4.812-31.2-.282-8.72-2.17-17.366-5.386-25.725-5.815-15.115-15.269-28.287-28.463-39.154a105.669 105.669 0 0 0-28.586-16.83c-9.25-3.644-18.836-6.01-28.628-7.432-7.792-1.133-15.722-.964-23.622-.396-9.428.678-18.479 2.616-27.17 5.574-13.603 4.63-25.454 11.689-35.607 21.01-8.146 7.478-14.548 16.065-20.188 25.114-2.569 4.125-4.225 8.717-6.29 13.099-2.88 6.107-5.817 12.195-8.61 18.335-2.605 5.72-5.157 11.465-7.544 17.264-3.023 7.348-6.027 14.699-7.703 22.465-1.583 7.336-2.016 14.724-.895 22.144 1.144 7.578 4.103 14.696 8.711 21.272 7.22 10.308 17.29 17.495 29.813 22.006 5.731 2.065 11.708 3.145 17.78 3.803" fill="#C3E5E8"/><path d="M227.425 84.231V64.848" stroke="#00465F" stroke-width="1.25" stroke-linecap="round" stroke-linejoin="round" stroke-dasharray="27.641,4.607,18.427,2.303,9.214,0.921"/><path d="M216.695 86.366l-7.418-17.908" stroke="#00465F" stroke-width="1.25" stroke-linecap="round" stroke-linejoin="round" stroke-dasharray="4.803,3.362,18.427,2.303,9.214,0.921"/><path d="M207.597 92.445L193.89 78.739m44.266 7.627l7.418-17.908" stroke="#00465F" stroke-width="1.25" stroke-linecap="round" stroke-linejoin="round" stroke-dasharray="27.641,4.607,18.427,2.303,9.214,0.921"/><path d="M247.254 92.445l13.706-13.706" stroke="#00465F" stroke-width="1.25" stroke-linecap="round" stroke-linejoin="round" stroke-dasharray="9.605,4.607,18.427,2.303,9.214,0.921"/><path d="M198.73 101.411h-7.245c-7.6 0-13.76 6.161-13.76 13.76H149.59v24.08h56.994l.336-28.545" fill="#009AAD"/><path d="M198.73 101.411h-7.245c-7.6 0-13.76 6.161-13.76 13.76H149.59v24.08h56.994l.336-28.545" stroke="#00465F" stroke-width="1.25" stroke-linecap="round" stroke-linejoin="round"/><path d="M201.017 106.892a4.604 4.604 0 0 0 4.604 4.604h8.906a4.604 4.604 0 1 0 0-9.208h-8.906a4.604 4.604 0 0 0-4.604 4.604" fill="#009AAD"/><path d="M201.017 106.892h0a4.604 4.604 0 0 0 4.604 4.604h8.906a4.604 4.604 0 1 0 0-9.208h-8.906a4.604 4.604 0 0 0-4.604 4.604z" stroke="#00465F" stroke-width="1.25" stroke-linecap="round" stroke-linejoin="round"/><path d="M198.73 116.1a4.604 4.604 0 0 0 4.604 4.604h13.729a4.604 4.604 0 1 0 0-9.208h-13.73a4.604 4.604 0 0 0-4.603 4.604" fill="#009AAD"/><path d="M198.73 116.1h0a4.604 4.604 0 0 0 4.604 4.604h13.729a4.604 4.604 0 1 0 0-9.208h-13.73a4.604 4.604 0 0 0-4.603 4.604z" stroke="#00465F" stroke-width="1.25" stroke-linecap="round" stroke-linejoin="round"/><path d="M198.73 125.309a4.604 4.604 0 0 0 4.604 4.604h13.729a4.604 4.604 0 1 0 0-9.208h-13.73a4.604 4.604 0 0 0-4.603 4.604" fill="#009AAD"/><path d="M198.73 125.309h0a4.604 4.604 0 0 0 4.604 4.604h13.729a4.604 4.604 0 1 0 0-9.208h-13.73a4.604 4.604 0 0 0-4.603 4.604z" stroke="#00465F" stroke-width="1.25" stroke-linecap="round" stroke-linejoin="round"/><path d="M199.362 134.518a4.605 4.605 0 0 0 4.604 4.604h9.218a4.605 4.605 0 0 0 0-9.208h-9.218a4.604 4.604 0 0 0-4.604 4.604" fill="#009AAD"/><path d="M199.362 134.518h0a4.605 4.605 0 0 0 4.604 4.604h9.218a4.605 4.605 0 0 0 0-9.208h-9.218a4.604 4.604 0 0 0-4.604 4.604z" stroke="#00465F" stroke-width="1.25" stroke-linecap="round" stroke-linejoin="round"/><path d="M197.644 101.411h9.712a7.246 7.246 0 0 1 7.246 7.246v11.344a9.209 9.209 0 0 1-9.21-9.209v-.172h-7.378" fill="#009AAD"/><path d="M197.644 101.411h9.712a7.246 7.246 0 0 1 7.246 7.246v11.344a9.209 9.209 0 0 1-9.21-9.209v-.172h-7.378" stroke="#00465F" stroke-width="1.25" stroke-linecap="round" stroke-linejoin="round"/><path d="M197.644 110.496c0 5.249-4.256 9.504-9.505 9.504" fill="#009AAD"/><path d="M197.644 110.496c0 5.249-4.256 9.504-9.505 9.504" stroke="#00465F" stroke-width="1.25" stroke-linecap="round" stroke-linejoin="round" stroke-dasharray="20.851,3.475,13.901,1.738,6.95,0.695"/><path d="M256.245 101.411h7.246c7.6 0 13.76 6.161 13.76 13.76h4.204s.087 9.922-.21 13.792c-.299 3.87-1.643 10.287-1.643 10.287h-31.21l-.337-28.544" fill="#F2DCC9"/><path d="M253.96 106.892a4.604 4.604 0 0 1-4.605 4.604h-8.907a4.603 4.603 0 0 1 0-9.208h8.907a4.604 4.604 0 0 1 4.604 4.604" fill="#F2DCC9"/><path d="M253.96 106.892h0a4.604 4.604 0 0 1-4.605 4.604h-8.907a4.603 4.603 0 0 1 0-9.208h8.907a4.604 4.604 0 0 1 4.604 4.604z" stroke="#00465F" stroke-width="1.25" stroke-linecap="round" stroke-linejoin="round"/><path d="M256.245 116.1a4.604 4.604 0 0 1-4.604 4.604h-13.728a4.604 4.604 0 1 1 0-9.208h13.728a4.604 4.604 0 0 1 4.604 4.604" fill="#F2DCC9"/><path d="M256.245 116.1h0a4.604 4.604 0 0 1-4.604 4.604h-13.728a4.604 4.604 0 1 1 0-9.208h13.728a4.604 4.604 0 0 1 4.604 4.604z" stroke="#00465F" stroke-width="1.25" stroke-linecap="round" stroke-linejoin="round"/><path d="M256.245 125.309a4.604 4.604 0 0 1-4.604 4.604h-13.728a4.604 4.604 0 1 1 0-9.208h13.728a4.604 4.604 0 0 1 4.604 4.604" fill="#F2DCC9"/><path d="M256.245 125.309h0a4.604 4.604 0 0 1-4.604 4.604h-13.728a4.604 4.604 0 1 1 0-9.208h13.728a4.604 4.604 0 0 1 4.604 4.604z" stroke="#00465F" stroke-width="1.25" stroke-linecap="round" stroke-linejoin="round"/><path d="M255.614 134.518a4.605 4.605 0 0 1-4.603 4.604h-9.219a4.605 4.605 0 0 1 0-9.208h9.219a4.604 4.604 0 0 1 4.603 4.604" fill="#F2DCC9"/><path d="M255.614 134.518h0a4.605 4.605 0 0 1-4.603 4.604h-9.219a4.605 4.605 0 0 1 0-9.208h9.219a4.604 4.604 0 0 1 4.603 4.604z" stroke="#00465F" stroke-width="1.25" stroke-linecap="round" stroke-linejoin="round"/><path d="M257.332 101.411h-9.712a7.246 7.246 0 0 0-7.246 7.246v11.344a9.209 9.209 0 0 0 9.21-9.209v-.172h7.378" fill="#F2DCC9"/><path d="M257.332 101.411h-9.712a7.246 7.246 0 0 0-7.246 7.246v11.344a9.209 9.209 0 0 0 9.21-9.209v-.172h7.378" stroke="#00465F" stroke-width="1.25" stroke-linecap="round" stroke-linejoin="round"/><path d="M257.332 110.496c0 5.249 4.256 9.504 9.504 9.504" fill="#F2DCC9"/><path d="M257.332 110.496c0 5.249 4.256 9.504 9.504 9.504" stroke="#00465F" stroke-width="1.25" stroke-linecap="round" stroke-linejoin="round"/><path d="M107.336 43.187V23.804" stroke="#00465F" stroke-width="1.316" stroke-linecap="round" stroke-linejoin="round" stroke-dasharray="27.641,4.607,18.427,2.303,9.214,0.921"/><path d="M96.605 45.322l-7.418-17.908" stroke="#00465F" stroke-width="1.316" stroke-linecap="round" stroke-linejoin="round" stroke-dasharray="4.803,3.362,18.427,2.303,9.214,0.921"/><path d="M87.507 51.4L73.801 37.696m44.266 7.626l7.418-17.908" stroke="#00465F" stroke-width="1.316" stroke-linecap="round" stroke-linejoin="round" stroke-dasharray="27.641,4.607,18.427,2.303,9.214,0.921"/><path d="M127.164 51.4l13.706-13.705" stroke="#00465F" stroke-width="1.316" stroke-linecap="round" stroke-linejoin="round" stroke-dasharray="9.605,4.607,18.427,2.303,9.214,0.921"/><path d="M52.496 169.852l43.176-42.131a15.18 15.18 0 0 0 4.446-10.732V81.835a3.795 3.795 0 0 0-4.168-3.776c-1.973.188-3.422 1.958-3.422 3.939v19.394-30.94a3.794 3.794 0 1 0-7.589 0v30.94-38.53a3.795 3.795 0 1 0-7.589 0v38.53-30.94a3.795 3.795 0 1 0-7.588 0v36.886-11.083a7.59 7.59 0 0 0-7.59-7.59v27.03c0 3.512 1.193 6.746 3.196 9.318l-.13.229-4.264 4.672s-6.385 15.448-7.848 24.714c-.929 5.882-.63 15.224-.63 15.224" fill="#87CBD1"/><path d="M82.668 116.445h-3.8a9.106 9.106 0 0 0-9.106-9.107V96.254a7.59 7.59 0 0 0-7.59-7.589v27.03c0 8.383 6.796 15.179 15.18 15.179h4.24" stroke="#00465F" stroke-width="1.25" stroke-linecap="round" stroke-linejoin="round"/><path d="M62.663 128.063l2.575-2.821" fill="#FF5760"/><path d="M62.663 128.063l2.575-2.821m-11.986 43.872l42.42-41.394a15.175 15.175 0 0 0 4.446-10.732V81.835a3.795 3.795 0 0 0-4.168-3.777c-1.972.188-3.422 1.958-3.422 3.94v19.393-30.94a3.794 3.794 0 1 0-7.589 0v30.94-38.529a3.794 3.794 0 1 0-7.588 0v38.53-30.94a3.796 3.796 0 0 0-7.589 0v30.94" stroke="#00465F" stroke-width="1.25" stroke-linecap="round" stroke-linejoin="round"/><path d="M229.99 200.05l-76.779-76.775-.003-41.44a3.796 3.796 0 0 0-4.167-3.776c-1.973.188-3.421 1.957-3.421 3.94v19.392-30.94a3.795 3.795 0 1 0-7.59 0v30.94-38.529a3.794 3.794 0 1 0-7.589 0v38.53-30.94a3.795 3.795 0 1 0-7.59 0V111.9 96.253a7.589 7.589 0 0 0-7.588-7.589v27.03c0 7.55 5.335 13.782 12.557 14.951l81.255 77.194" fill="#FA6666"/><path d="M229.99 200.05l-76.779-76.775-.003-41.44a3.796 3.796 0 0 0-4.167-3.776c-1.973.188-3.421 1.957-3.421 3.94v19.392-30.94a3.795 3.795 0 1 0-7.59 0v30.94-38.529a3.794 3.794 0 1 0-7.589 0v38.53-30.94a3.795 3.795 0 1 0-7.59 0V111.9 96.253a7.589 7.589 0 0 0-7.588-7.589v27.03c0 7.55 5.335 13.782 12.557 14.951l81.255 77.194" stroke="#00465F" stroke-width="1.25" stroke-linecap="round" stroke-linejoin="round"/><path fill="#FFF" d="M100.975 219.402l.486-.579.66-.408.418-.652.555-.515.55-.524.56-.513.63-.441.38-.689.599-.473.548-.52.467-.602.536-.533.598-.472.533-.539.62-.453.51-.565.556-.516.375-.696.575-.498.508-.562.646-.428.476-.594.604-.471.557-.514.52-.549.526-.54.42-.647.676-.391.407-.664.508-.566.583-.494.625-.45.462-.61.47-.604.578-.502.566-.511.51-.567.588-.479.45-.625.634-.447.499-.58.604-.481.53-.557.523-.565.636-.454.403-.648.46-.584.52-.537.5-.564.366-.654.398-.636.344-.666.092-.774.503-.604.074-.762.318-.686.206-.722.053-.751.126-.738.065-.747-.138-.749.098-.759.085-.76-.134-.76-.054-.761.2-.763-.24-.764.118-.764.086-.763-.09-.762-.105-.761.19-.762.02-.761-.206-.761.12-.762.019-.763-.145-.764.173-.765-.195-.765.237-.763-.096-.762.064-.763.007-.764-.066-.764-.14-.766.232-.764-.013-.764-.002-.765-.055-.765.018-.759-.15-.761.128-.764-.153-.767.23-.764-.114-.762-.07-.764-.022-.768.134-.766.046-.766-.206-.768.062-.767.01-.767.154-.765-.123-.77.09-.77.025-.773-.227-.773.167-.812-.256-.775-.424-.694-.58-.563-.648-.465-.75-.26-.746-.328-.807.1-.67.254-.691.17-.607.385-.427.574-.556.484-.31.661.013.741-.26.691.05.744-.047.744.167.744-.184.746.037.745.084.744.005.744.079.746-.085.74-.114.741.04.745.13.746-.064.744.048.743.006.745v.747l-.146.746.01.746-.01.749.066.747.138.747-.097.746.033.749-.176.751.11.752-.02.753-.063-.754.22-.754-.227-.753.022-.752-.001-.752.182-.751-.175-.751.169-.752-.137-.751.156-.753-.223-.754-.023-.756.24-.754.009-.753-.197-.753-.028-.753.037-.753.136-.755-.06-.756-.033-.754.132-.754-.212-.754.13-.756-.155-.749.124-.751-.114-.754.006-.756.118-.754-.117-.753.04-.754.178-.757-.038-.756-.047-.756.11-.758-.098-.758-.135-.756.218-.755-.01-.76.004-.76-.036-.763-.131-.762-.015-.741-.336-.662-.21-.72-.543-.511-.463-.615-.765-.144-.652-.393-.754.033-.725.104-.77.043-.674.36-.575.502-.484.587-.371.665-.082.759-.151.733.056.753.049.755v.753l.049.752-.036.752-.058.751-.148.751.068.751-.041.752-.005.753.063.754.056.755-.11.754.154.754-.013.753-.084.752.078.754-.118.755.053.755-.034.755.185.753-.16.755-.034.755.129.749.006.751-.05.755.046.756-.025.753.04.753-.027.755-.094.757-.062.756-.023.756.078.758-.041.757.144.757.054.755-.071.759-.073.761.096.762v.763l-.167-.75.15-.751-.113-.75.007-.75-.066-.751.134-.751.12-.751-.193-.753.038-.753-.07-.754.002-.756.155-.756.033-.755-.134-.754-.048-.753.088-.753.016-.753.023-.753-.118-.754.065-.755.044-.756-.131-.756.158-.757.07-.755-.225-.754.056-.755-.037-.755.118-.757-.131-.757.105-.756.064-.756.009-.756.033-.758-.07-.751-.133-.752-.033-.756.219-.758-.077-.756.013-.755.075-.756-.168-.759-.066-.758.124-.757.119-.761-.095-.758.07-.759.018-.757-.108-.761-.064-.762.17-.765-.153-.764-.11-.725-.117-.735-.267-.716-.604-.476-.533-.518-.635-.41-.75-.105-.733-.096-.765-.064-.655.418-.712.237-.567.492-.356.657-.513.563-.27.715.062.763-.052.75-.03.751-.054.75.033.75.203.751-.134.751-.08.751.165.753.028.752-.197.755-.022.756.152.756-.137.754.18.754-.134.754.147.753-.123.753.13.753-.175.753-.03.755-.015.756.082.757.077.756.052.755-.16.755.19.755-.052.755-.176.756.104.758.017.756.004.756-.034.756-.085.757.085.751.08.753-.09.756.076.758-.16.756.006.754.21.756-.007.76-.182.757.094.758.078.76-.001.759-.118.758.058.758-.001.761.005.762.019.764-.022.765-.035-.754-.026-.754-.041-.753.087-.752.073-.752-.17-.751.079-.751.084-.752.024-.751-.018-.753-.055-.754.079-.756-.101-.754-.071-.753.057-.753.002-.753.117-.753-.137-.755.083-.756-.134-.754.012-.754.029-.754.085-.756-.052-.749.089-.751.015-.754-.146-.756-.076-.754.029-.753.115-.754-.09-.757.139-.756-.002-.756.014-.758-.085-.758.05-.756-.154-.755.16-.76-.153-.76.203-.763-.148-.762-.07-.732-.234-.695-.25-.709-.523-.536-.57-.473-.647-.365-.71-.236-.744-.033-.758-.028-.72.244-.617.428-.503.538-.57.481-.382.645-.102.745-.167.726.044.753-.064.755.087.753-.104.752.005.752.17.751.002.751-.11.751.013.752.062.753-.05.754.06.755-.08.754-.111.754.109.753.114.752-.144.754.123.755-.22.755.002.755.027.753-.041.755.004.755.048.749.155.751-.078.755-.128.756.182.753.067.753-.053.755.005.757-.122.756.107.756-.107.758-.038.757-.028.757.025.755.197.759-.168.761.157.762-.035.763-.087.743-.09.741.129.741-.127.739.066.744.016.745.009.746-.097.747.12-.738.013-.736.105-.734-.206-.736.02-.739-.02-.738.066-.737-.087-.74v-.739l.007-.738.01-.737.114-.741.074-.742-.176-.744-.016-.744.153-.754-.077-.752-.245-.716-.222-.721-.413-.633-.33-.675-.506-.553-.563-.486-.498-.55-.564-.489-.663-.341-.63-.414-.757-.091-.692-.289-.736-.139-.75.029-.1-.016.156.748.065.747-.175.747.016.748-.008.749-.058.75.09.751-.105.75.216.749-.13.749.148.749-.084.75.07.75.018.752-.19.75.068.75-.052.75-.066.752.009.745.096.747.037.75.109.752-.134.75-.048.749.03.75.036.753.038.752-.06.752-.035.754.123.753-.174.752.046.752-.077.755.065.756-.027.759.218.758-.2.777.238.756.045.769.146.756.02.789.406.687.072.791.462.646.199.757.294.722.54.579.36.686.437.606-.017.282-.675.397-.462.6-.574.492-.491.572-.517.545-.487.574-.61.452-.514.548-.516.547-.446.619-.561.5-.664.395-.54.516-.48.577-.512.545-.527.534-.47.594-.558.511-.522.542-.49.574-.65.414-.503.567-.475.591-.665.402-.48.579-.407.658-.584.486-.532.537-.541.534-.567.509-.5.581-.628.451"/><path d="M112.143 183.996h-3.8a9.107 9.107 0 0 0-9.107-9.107v-11.083a7.59 7.59 0 0 0-7.59-7.59v27.03c0 8.383 6.797 15.179 15.18 15.179h4.24" stroke="#00465F" stroke-width="1.25" stroke-linecap="round" stroke-linejoin="round"/><path d="M94.713 192.793l-17.04 17.04" fill="#FF5760"/><path d="M94.713 192.793l-17.04 17.04m21.563-40.89v-30.94a3.795 3.795 0 1 1 7.59 0v30.94-38.529a3.794 3.794 0 1 1 7.589 0v38.529-30.94a3.794 3.794 0 1 1 7.589 0v30.94-19.394c0-1.981 1.449-3.751 3.42-3.939a3.794 3.794 0 0 1 4.168 3.776v35.154c0 4.026-1.598 7.886-4.445 10.732l-24.15 24.151" stroke="#00465F" stroke-width="1.25" stroke-linecap="round" stroke-linejoin="round"/><path fill="#F2DCC9" d="M200.957 209.216l-.466-.606-.598-.475-.396-.68-.649-.428-.563-.515-.42-.656-.64-.436-.598-.477-.366-.71-.704-.371-.425-.654-.559-.52-.457-.617-.57-.501-.604-.468-.464-.606-.573-.499-.513-.559-.526-.551-.694-.388-.412-.666-.633-.442-.435-.645-.612-.47-.47-.613-.664-.416-.45-.619-.538-.542-.609-.475-.473-.61-.592-.498-.416-.673-.693-.4-.406-.638.027-.716-.137-.75.018-.75.064-.75.073-.748-.063-.749-.069-.748-.017-.748.032-.75.054-.749-.155-.75-.042-.75.256-.751-.169-.752.135-.754-.22-.756.237-.751-.227-.754.07-.75.062-.752-.026-.751.11-.751-.022-.752-.005-.754-.058-.755-.048-.754.081-.755-.065-.752.131-.754-.056-.752-.183-.754.252-.755-.16-.756.04-.755-.057-.754.086-.754.026-.756.062-.749-.06-.75.036-.755-.11-.757-.092-.752.111-.754.107-.755-.24-.757.254-.756-.177-.756.06-.758-.1-.757.06-.756-.018-.756.093-.76-.16-.76.175-.763-.11-.762-.025-.79-.213-.768-.515-.608-.532-.553-.57-.53-.662-.478-.8-.161-.814-.004-.688.26-.702.19-.487.553-.556.436-.342.619-.454.572-.052.726-.2.698.086.743-.008.744-.103.745.156.746.032.746-.159.744.166.744-.23.745.175.74-.172.742.028.744.192.746-.197.743.114.744-.076.744-.049.749.243.745-.096.746-.16.748.09.749.111.746-.154.745.023.75-.058.75.143.753.011.754-.039-.754-.126-.755.095-.754.065-.752-.002-.75.022-.752-.09-.751.043-.751-.084-.752-.023-.754.198-.754-.059-.754-.04-.755.112-.752-.1-.754.026-.752-.09-.755.133-.754-.15-.756.158-.754-.172-.754.038-.754-.07-.756-.009-.749.034-.75.122-.755v-.755l-.147-.755.131-.752-.113-.754-.02-.758.246-.756-.005-.756-.008-.758-.167-.757-.028-.757.106-.755.052-.76-.185-.76.074-.762-.023-.762-.035-.737-.3-.674-.236-.706-.512-.538-.588-.44-.608-.425-.732-.133-.726-.125-.762-.048-.687.328-.692.293-.592.472-.37.659-.459.599-.235.719-.064.756.051.752-.079.755.031.752.08.752-.06.753-.064.75.01.751.027.752.048.753.017.752-.045.754.141.756-.055.754.007.752-.076.754.102.752.03.754-.08.755-.06.756.063.754.076.754.033.754-.183.756.177.749-.166.75.155.754.01.757-.18.754.022.752.08.754-.102.758-.048.755.05.756-.075.76.205.757-.155.756-.01.756.034.758.14.76.01.763-.217.763.088-.75.083-.75.012-.75.03-.752.037-.75-.064-.75-.154-.752.154-.752-.106-.754.04-.754.101-.756.026-.756-.069-.755.033-.754-.012-.753.022-.752-.166-.754-.064-.754.187-.754-.082-.754-.009-.756.08-.756-.002-.756.06-.756-.032-.755-.156-.754.106-.756-.147-.757.1-.757.058-.756-.089-.756.104-.756.065-.756-.22-.751.041-.754.13-.756-.153-.757-.035-.756.021-.755.08-.756.135-.76-.002-.756-.139-.758-.057-.76.147-.76-.118-.758.035-.757.141-.762-.005-.762-.187-.763.18-.766-.14-.748-.236-.712-.398-.63-.517-.52-.497-.552-.642-.386-.72-.22-.75.064-.75-.062-.666.352-.73.205-.512.553-.59.487-.37.672-.018.774-.048.724-.158.75.125.75-.107.75.13.752-.192.75.22.75-.038.752.023.752-.042.754-.027.754-.047.756-.009.756-.087.755.031.754.04.752-.077.754.1.752-.102.755.135.752.036.756-.104.756-.066.756.208.756-.077.756.015.754.018.755-.182.756.123.756.004.757-.129.757.126.755.112.756-.076.758-.082.75.051.752.074.756-.04.76.05.755-.16.755.07.756-.064.76-.066.756.041.758.014.76.146.76.04.757-.092.757-.092.763.134.762-.066.764.103.764-.212-.754.203-.754-.127-.754-.043-.752.112-.75.02-.752-.066-.751.018-.751.08-.752-.02-.754-.146-.754-.04-.754.134-.755.01-.752-.063-.754.032-.752-.042-.755.141-.754-.05-.756.001-.754.03-.754-.09-.754.002-.756v-.749l.081-.75-.143-.755.205-.755-.175-.755-.055-.752.038-.754.147-.758.01-.756-.085-.756-.056-.758.098-.757-.178-.757.162-.755-.04-.76-.004-.76.005-.762-.027-.762.008-.75-.252-.707-.457-.588-.416-.599-.574-.455-.645-.339-.696-.218-.728-.11-.756-.036-.692.304-.596.439-.617.397-.398.617-.465.584-.148.73-.246.73.11.754.08.754.012.752-.18.752v.753l.135.75-.064.751.023.752-.086.753.167.752-.196.754.08.756.042.754.046.752-.119.754.151.752-.17.754.046.755.125.756-.092.754.064.754-.048.754.047.756-.012.749.004.75.01.754-.072.757.062.754-.05.752-.006.754.066.758-.179.755.088.756.063.76.001.757-.057.756-.028.756.182.758-.094.76-.156.763.031.763.217.747-.209.746.096.748-.065.75.105.75.03.749-.033.752-.025.75-.146.75.143.749.1.751-.218.755.071.756.148.756-.226-.744.014-.743.127-.745-.125-.738-.005-.74.185-.742-.02-.746-.164-.743.041-.743.047-.743.063-.746-.034-.744-.078-.745.034-.748.118-.745.03-.746-.056-.744-.113-.75.163-.748-.056-.751-.123-.752-.06-.736.085-.766-.319-.692-.163-.736-.452-.61-.296-.685-.54-.522-.506-.53-.52-.52-.578-.458-.579-.48-.703-.257-.695-.264-.717-.202-.75.025-.735-.196.128.04-.188.747.11.748-.006.746-.053.749.124.748-.164.75.111.751-.095.75.147.75-.23.749.073.748-.04.75.101.75.091.751-.16.751-.068.75.04.75.016.751.102.746-.02.746.062.75-.163.754.193.749-.072.749.03.75.011.754.01.751-.015.751-.196.756.023.752.142.752.02.751-.012.756.014.756-.082.758.141.76-.02.754.08.751-.019.764.2.736.173.734.041.776.312.7.277.708.254.72.348.678.332.688.55.553.314.709.527.553.601.482.52.547.502.57.552.523.643.406.558.532.676.357.691.322.73.222.63.464.753.154.714.261.772.03.671.326.584.46.592.474.492.573.477.585.573.488.53.531.552.513.575.487.384.68.531.53.677.382.515.544.41.647.536.522.568.492.54.525.57.499.557.507.394.67.536.529.594.476.477.59.595.474.596.46.387.678.63.444.606.462.465.61.56.518.482.597.625.454"/><path d="M201.017 209.157l-18.331-18.33-.004-41.441a3.794 3.794 0 0 0-4.167-3.776c-1.973.188-3.422 1.958-3.422 3.94v19.393-30.94a3.794 3.794 0 1 0-7.59 0v30.94-38.53a3.795 3.795 0 1 0-7.588 0v38.53-30.94a3.795 3.795 0 1 0-7.588 0v41.448-15.645a7.59 7.59 0 0 0-7.59-7.59v27.03c0 7.552 5.336 13.783 12.556 14.952l16.492 16.54m105.818-75.488h-31.211m7.853-37.839h7.246c7.6 0 13.76 6.161 13.76 13.76h3.204" stroke="#00465F" stroke-width="1.25" stroke-linecap="round" stroke-linejoin="round"/></g></svg>