<svg width="160" height="151" viewBox="0 0 160 151" fill="none" xmlns="http://www.w3.org/2000/svg"><g clip-path="url(#clip0)"><g style="mix-blend-mode:multiply"><path fill-rule="evenodd" clip-rule="evenodd" d="M112.366 41.8906C115.613 47.6415 117.22 52.9273 117.736 58.6056C118.114 62.7623 117.937 66.8807 117.239 70.9512C116.522 75.1203 115.351 79.1994 113.818 83.1603C111.592 88.9125 108.849 94.3944 105.543 99.6104C101.868 105.411 97.4264 110.519 91.9579 114.657C89.95 116.177 87.835 117.633 85.4255 118.556C83.603 119.253 81.87 120.246 80.0004 120.744C77.2806 121.47 74.4928 122.046 71.6972 122.369C66.0751 123.02 60.6256 122.092 55.4315 119.875C52.5895 118.663 49.7173 117.447 47.0656 115.882C44.3154 114.259 41.7948 112.24 39.2123 110.341C37.0249 108.733 34.8637 107.088 32.7461 105.389C29.65 102.906 26.4364 100.535 23.5764 97.7993C19.9343 94.3153 16.275 90.7797 13.7687 86.3081C11.3386 81.9737 9.81268 77.3242 9.84592 72.3399C9.87509 67.9762 11.1561 63.9009 13.4088 60.0969C15.8968 55.894 19.4601 52.8446 23.5657 50.4577C26.565 48.714 29.8172 47.4069 33.1644 46.386C35.9219 45.5441 38.7094 44.7503 41.3684 43.6574C44.1682 42.5068 47.0033 41.3791 49.5471 39.6746C53.1557 37.2575 56.7571 34.828 60.406 32.4727C63.6125 30.4044 67.0605 28.8117 70.6275 27.4496C73.5533 26.3318 76.5828 25.6842 79.6754 25.4789C85.4903 25.0941 91.1712 25.6137 96.5512 28.1965C99.7506 29.7317 102.867 31.3532 105.481 33.7802C106.755 34.9624 107.986 36.2095 109.094 37.545C110.443 39.1704 111.642 40.9198 112.366 41.8906Z" fill="#008294"></path></g><g style="mix-blend-mode:multiply"><path fill-rule="evenodd" clip-rule="evenodd" d="M57.1609 68.421C60.741 64.2358 64.4244 61.469 68.7259 59.4443C71.8746 57.9618 75.1515 56.9253 78.5395 56.311C82.0099 55.6825 85.5394 55.4363 89.0792 55.5069C94.2199 55.6094 99.2961 56.1937 104.324 57.2945C109.915 58.5181 115.183 60.5403 119.983 63.643C121.745 64.7824 123.489 66.0234 124.898 67.6478C125.964 68.8765 127.235 69.9507 128.158 71.2731C129.502 73.1966 130.748 75.2159 131.797 77.3137C133.909 81.5321 134.734 86.0659 134.477 90.7672C134.337 93.3395 134.203 95.9362 133.733 98.4599C133.245 101.078 132.381 103.628 131.629 106.193C130.993 108.365 130.319 110.528 129.592 112.671C128.529 115.805 127.587 118.999 126.258 122.02C124.567 125.868 122.839 129.743 120.05 132.982C117.347 136.123 114.139 138.645 110.225 140.041C106.798 141.264 103.24 141.423 99.6179 140.744C95.6164 139.994 92.2121 138.073 89.1724 135.538C86.9518 133.686 85.0013 131.511 83.2478 129.181C81.8026 127.261 80.3865 125.304 78.7727 123.533C77.0736 121.668 75.3825 119.769 73.3223 118.262C70.4006 116.125 67.4712 113.997 64.5863 111.811C62.0523 109.889 59.8222 107.643 57.7389 105.237C56.0296 103.264 54.6591 101.076 53.6172 98.7121C51.659 94.2667 50.4475 89.6683 50.9381 84.7169C51.2293 81.7725 51.6116 78.8683 52.7684 76.1282C53.3316 74.7929 53.9579 73.4727 54.6885 72.2237C55.5775 70.7029 56.6064 69.2647 57.1609 68.421Z" fill="#FFAD43"></path></g><path d="M83.8448 15.8264L83.8651 15.5752L83.8287 15.3244L83.9004 15.0735L83.8319 14.8231L83.8836 14.5729L83.8343 14.3225L83.8623 14.0723L83.842 13.8222L83.8693 13.5721L83.8766 13.3219L83.8232 13.0715L83.8679 12.821L83.8546 12.5701L83.8696 12.319L83.8291 12.0674L83.8637 11.8156L83.8417 11.5633L83.8263 11.3118L83.8791 11.0603L83.82 10.8094L83.8375 10.5583L83.856 10.3071L83.8417 10.0559L83.8721 9.80473L83.8357 9.5532L83.9056 9.30132L83.8417 9.04874L83.8958 8.79652L83.8343 8.54499L83.8232 8.29346L83.8815 8.04158L83.8521 7.79005L83.8347 7.53748L83.835 7.28525L83.8403 7.03302L83.899 6.78115L83.8273 6.52892L83.8287 6.27879L83.8361 6.02831L83.8651 5.77713L83.8892 5.5249L83.9025 5.27233L83.8284 5.0201L83.8228 4.76822L83.8651 4.51634V4.26272L83.8368 4.01014L83.8658 3.75757L83.8976 3.50394L83.8857 3.25067L83.8315 2.99774L83.8605 2.74516L83.8818 2.49119L83.8948 2.23687L83.8881 1.98219L83.8214 1.72717" stroke="#353E48" stroke-width="3.2" stroke-linecap="round" stroke-linejoin="round" stroke-dasharray="28.78 4.8 19.18 2.4 9.59 0.96"></path><path d="M76.0866 17.3669L75.9465 17.1531L75.8913 16.904L75.7316 16.6989L75.6988 16.4415L75.6045 16.2095L75.4431 16.0058L75.4074 15.7498L75.2562 15.5416L75.2233 15.2844L75.093 15.0675L75.035 14.8205L74.9351 14.5906L74.8418 14.358L74.6976 14.1459L74.6067 13.9112L74.4848 13.689L74.3929 13.4542L74.358 13.1964L74.2036 12.9882L74.1578 12.7353L74.016 12.5222L73.9758 12.2671L73.8661 12.0408L73.7515 11.8161L73.6324 11.5933L73.5521 11.354L73.4752 11.1126L73.3362 10.897L73.246 10.6623L73.2031 10.4076L73.0417 10.2022L72.9924 9.94994L72.8562 9.73334L72.8247 9.47308L72.6518 9.27186L72.6001 9.02173L72.5323 8.77858L72.3898 8.56653L72.3091 8.32863L72.1722 8.11343L72.1201 7.8619L72.0094 7.63413L71.8885 7.4109L71.826 7.16426L71.6894 6.94767L71.6205 6.70208L71.5377 6.46243L71.4151 6.23954L71.3121 6.00758L71.282 5.74592L71.1164 5.54051L71.0867 5.2792L70.9474 5.06225L70.8775 4.81561L70.7632 4.58679L70.6647 4.35168" stroke="#353E48" stroke-width="3.2" stroke-linecap="round" stroke-linejoin="round" stroke-dasharray="5 3.5 19.18 2.4 9.59 0.96"></path><path d="M69.468 21.7722L69.2402 21.6451L69.0987 21.4313L68.8929 21.2828L68.7033 21.1183L68.5405 20.9272L68.3595 20.7539L68.2229 20.537L68.0402 20.3658L67.8446 20.2075L67.6957 20.0028L67.461 19.8833L67.3048 19.6849L67.12 19.5151L66.9293 19.3506L66.7899 19.1343L66.6047 18.9632L66.4357 18.7759L66.2662 18.5894L66.0884 18.4115L65.8879 18.2571L65.7275 18.0622L65.5668 17.8683L65.3869 17.6926L65.1927 17.5315L64.9827 17.3859L64.8129 17.1993L64.6519 17.0033L64.4933 16.8053L64.2757 16.6673L64.1419 16.4447L63.9176 16.3134L63.7499 16.1268L63.5644 15.9564L63.4295 15.7338L63.1941 15.6136L63.0634 15.3894L62.851 15.2475L62.7176 15.0267L62.4898 14.8999L62.3459 14.6882L62.1799 14.4975L61.9668 14.3522L61.7695 14.1929L61.6318 13.9742L61.4446 13.8044L61.2573 13.6336L61.0718 13.461L60.8919 13.2832L60.7054 13.1151L60.5495 12.9139L60.3847 12.7197L60.2229 12.5226L59.9927 12.3927L59.8261 12.1984L59.6238 12.0388L59.4823 11.8184" stroke="#353E48" stroke-width="3.2" stroke-linecap="round" stroke-linejoin="round" stroke-dasharray="28.78 4.8 19.18 2.4 9.59 0.96"></path><path d="M91.6622 17.3764L91.7988 17.1609L91.8285 16.9017L91.9857 16.6956L92.0406 16.4472L92.1475 16.2204L92.26 15.9962L92.378 15.7743L92.471 15.5424L92.5304 15.2957L92.6138 15.0596L92.7008 14.8245L92.7913 14.5911L92.8916 14.3609L93.0201 14.1425L93.0841 13.897L93.2381 13.6877L93.3262 13.4515L93.388 13.2049L93.4788 12.9701L93.591 12.7448L93.6535 12.4992L93.7705 12.2756L93.8774 12.0482L94 11.8271L94.0895 11.5916L94.1356 11.338L94.2544 11.1141L94.377 10.8919L94.4283 10.6407L94.5118 10.4032L94.6701 10.1963L94.756 9.95948L94.8566 9.72787L94.9356 9.48717L95.0341 9.2552L95.1655 9.03826L95.1854 8.7752L95.2919 8.54848L95.4554 8.34481L95.5256 8.10202L95.6042 7.86132L95.6811 7.61922L95.7845 7.38935L95.9019 7.16542L95.9843 6.92612L96.0947 6.69765L96.2271 6.47896L96.2519 6.2152L96.3553 5.98359L96.457 5.75162L96.6103 5.54097L96.6379 5.27896L96.7972 5.07005L96.8682 4.82411L96.988 4.59739L97.0732 4.35669" stroke="#353E48" stroke-width="3.2" stroke-linecap="round" stroke-linejoin="round" stroke-dasharray="28.78 4.8 19.18 2.4 9.59 0.96"></path><path d="M98.2661 21.7807L98.4802 21.6392L98.6175 21.4219L98.7897 21.2396L99.0245 21.1197L99.1866 20.9279L99.327 20.7145L99.5523 20.5859L99.6921 20.3721L99.901 20.2272L100.075 20.0476L100.233 19.8516L100.385 19.649L100.565 19.4743L100.774 19.3283L100.948 19.1466L101.107 18.9489L101.287 18.7725L101.495 18.6251L101.645 18.4196L101.805 18.2233L102.034 18.0979L102.159 17.868L102.342 17.6958L102.553 17.5508L102.701 17.3437L102.906 17.1927L103.068 16.9978L103.238 16.8109L103.419 16.6359L103.63 16.4902L103.796 16.3012L103.973 16.1231L104.123 15.9173L104.344 15.7817L104.507 15.5889L104.676 15.4027L104.856 15.2287L105.039 15.0575L105.197 14.8605L105.388 14.6963L105.539 14.4902L105.72 14.3131L105.948 14.1852L106.078 13.9585L106.301 13.824L106.444 13.6081L106.669 13.4761L106.809 13.2581L106.998 13.0925L107.178 12.915L107.339 12.7173L107.535 12.5548L107.708 12.3683L107.901 12.1996L108.075 12.0113L108.247 11.8223" stroke="#353E48" stroke-width="3.2" stroke-linecap="round" stroke-linejoin="round" stroke-dasharray="10 4.8 19.18 2.4 9.59 0.96"></path><path fill-rule="evenodd" clip-rule="evenodd" d="M36.9611 115.637L37.4187 115.315L37.8551 114.971L38.2285 114.564L38.5303 114.085L38.9922 113.766L39.3677 113.36L39.7122 112.922L40.0877 112.516L40.5279 112.173L40.8626 111.725L41.3227 111.402L41.6986 110.995L42.0678 110.583L42.5041 110.238L42.8049 109.757L43.2849 109.456L43.5906 108.98L44.0626 108.671L44.3724 108.2L44.7683 107.815L45.1952 107.461L45.6675 107.152L46.0241 106.727L46.4395 106.361L46.7585 105.898L47.1979 105.555L47.555 105.129L47.9026 104.693L48.3997 104.407L48.792 104.016L49.1882 103.63L49.5169 103.177L49.8732 102.751L50.2876 102.384L50.6617 101.976L51.024 101.557L51.4509 101.202L51.8229 100.791L52.2233 100.409L52.6306 100.033L53.0386 99.6579L53.3775 99.2132L53.847 98.8995L54.1611 98.431L54.6152 98.103L54.9433 97.6485L55.3307 97.2534L55.8236 96.9634L56.1461 96.503L56.5055 96.0792L57.0089 95.7987L57.2884 95.2946L57.7241 94.9467L58.1234 94.5634L58.5342 94.1914L58.8538 93.7303L59.2902 93.3844L59.6965 93.0071L60.0965 92.6235L60.4951 92.2393L60.8731 91.8358L61.2888 91.4703L61.6483 91.049L61.9993 90.6197L62.3745 90.2138L62.8748 89.9325L63.2622 89.5374L63.6594 89.1514L64.0207 88.7273L64.4077 88.3308L64.7773 87.9175L65.1627 87.5203L65.5211 87.0965L65.9913 86.7832L66.3455 86.3535L66.7358 85.9584L67.1092 85.5476L67.4785 85.1336L67.9578 84.8289L68.3518 84.4377L68.7564 84.0572L69.1448 83.6614L69.5033 83.2349L69.9029 82.8489L70.2848 82.4454L70.7012 82.0803L71.0683 81.6649L71.4166 81.2269L71.8324 80.8579L72.2579 80.4988L72.653 80.1069L73.0058 79.6737L73.4467 79.3275L73.767 78.86L74.1412 78.4475L74.523 78.0415L75.0034 77.7313L75.3506 77.2887L75.6905 76.8681L76.0615 76.4772L76.4888 76.1229L76.7525 75.6443L77.0582 75.1954L77.264 74.6903L77.5064 74.2082L77.7761 73.7365L77.9424 73.2202L78.1541 72.7196L78.3267 72.2036L78.3749 71.6586L78.5164 71.1332L78.5506 70.5914L78.5765 70.0506L78.6743 69.5098L78.5513 68.9547L78.5548 68.3996L78.6903 67.8445L78.5517 67.2894L78.6421 66.7343L78.6991 66.1785L78.6568 65.6227L78.538 65.0672L78.5485 64.5117L78.6676 63.9566L78.5324 63.4015L78.5342 62.8454L78.6806 62.2896L78.6516 61.7341L78.6114 61.1797L78.5545 60.6246L78.5572 60.0688L78.6945 59.5137L78.6055 58.9589L78.6282 58.4045L78.6456 57.8501L78.6474 57.2953L78.5894 56.7395L78.6205 56.1834L78.6103 55.6282L78.7022 55.0731L78.6201 54.5177L78.6009 53.9615L78.573 53.4054L78.6145 52.8496L78.5946 52.2938L78.5943 51.7369L78.5841 51.1811L78.5915 50.6242L78.6792 50.0677L78.5328 49.5109L78.7064 48.9558L78.6173 48.4003L78.6299 47.8431L78.5831 47.2869L78.5377 46.7297L78.6212 46.1722L78.6282 45.6153L78.5649 45.0571L78.5807 44.4981L78.5513 43.9392L78.5527 43.3669L78.3096 42.8496L78.1171 42.3014L77.738 41.8578L77.2032 41.6202L76.6931 41.3928L76.1517 41.2366L75.5749 41.1259L75.062 41.26L74.5538 41.419L74.2079 41.8372L73.7499 42.1093L73.5291 42.59L73.2591 43.034L73.2032 43.5521L73.0027 44.0576V44.598L73.1749 45.1392L73.1857 45.681L73.0516 46.2235L73.0376 46.765L73.1141 47.3065L73.1019 47.848L73.068 48.3905L73.0544 48.9331L73.0096 49.4745L73.0393 50.0171L73.1567 50.56L73.1536 51.1021L73.1787 51.645L73.076 52.1875L73.1036 52.7308L73.0502 53.2723L73.1113 53.8137L73.0365 54.3573L73.0173 54.8999L73.0138 55.4427L73.0827 55.9867L73.0977 56.5299L73.0222 57.0738L73.1179 57.6192L73.1127 58.1641L73.0781 57.6157L73.1452 57.0672L73.0338 56.5184L73.047 55.9703L73.1847 55.4221L73.1616 54.8737L73.0414 54.3248L73.01 53.776L73.1801 53.2279L73.032 52.6805L73.1424 52.1324L73.0526 51.5832L73.054 51.0354L73.1766 50.4876L73.1689 49.9406L73.0359 49.3931L73.061 48.8454L73.1277 48.2969L73.0865 47.7477L73.0257 47.1993L73.0191 46.6511L73.1057 46.1027L73.082 45.5538L73.0376 45.0047L73.156 44.4562L73.0278 43.907L73.1504 43.3575L73.1599 42.8083L73.1379 42.2588L73.1847 41.7096L73.1717 41.1598L73.0617 40.6113L73.1085 40.0628L73.054 39.513L73.0449 38.9638L73.0634 38.4139L73.0027 37.8634L73.0607 37.3135L73.1131 36.7622L73.0956 36.2106L73.1836 35.6586L73.0257 35.1224L72.8905 34.5984L72.6051 34.1393L72.2551 33.7352L71.8393 33.4019L71.3723 33.1465L70.8657 32.976L70.3319 32.815L69.7838 32.9027L69.2549 33.0588L68.7899 33.3512L68.3228 33.6496L67.9958 34.0978L67.8372 34.6253L67.6074 35.1165L67.6535 35.6586L67.4785 36.2071L67.5896 36.7559L67.6248 37.3041L67.6559 37.8525L67.5665 38.4007L67.6657 38.9491L67.5253 39.4979L67.5309 40.0468L67.6126 40.5949L67.6427 41.1423L67.6647 41.6904L67.6643 42.2393L67.5497 42.7877L67.5333 43.3351L67.6004 43.8826L67.5134 44.4296L67.5441 44.9774L67.5497 45.5262L67.5745 46.0751L67.5487 46.6235L67.5815 47.1717L67.6434 47.7198L67.584 48.2693L67.5368 48.8181L67.5518 49.3669L67.6413 49.9158L67.5379 50.4653L67.5822 51.0144L67.6158 51.564L67.5431 52.1135L67.592 52.663L67.5277 53.2115L67.5979 53.7596L67.6556 54.3098L67.6252 54.859L67.4987 55.4092L67.4907 55.9598L67.5627 56.5093L67.6165 57.0606L67.4931 57.6122L67.6165 58.1641L67.5193 57.6157L67.6266 57.0672L67.4991 56.5177L67.4799 55.9685L67.541 55.4193L67.5459 54.8705L67.5061 54.3213L67.5993 53.7729L67.5106 53.2241L67.6486 52.6749L67.6622 52.1257L67.5696 51.5758L67.6584 51.027L67.5326 50.4779L67.6018 49.929L67.4869 49.3799L67.5354 48.8303L67.505 48.2808L67.592 47.7317L67.5689 47.1835L67.6266 46.6347L67.5407 46.0848L67.4778 45.536L67.6476 44.9879L67.6346 44.4398L67.6221 43.8917L67.498 43.3432L67.6077 42.7937L67.6014 42.2438L67.5155 41.6946L67.5218 41.1462L67.5452 40.597L67.6018 40.0471L67.5791 39.4972L67.6668 38.9477L67.6622 38.3979L67.5868 37.8476L67.5124 37.2978L67.6126 36.7476L67.6329 36.1973L67.5064 35.6468L67.5131 35.0979L67.5703 34.5488L67.5609 33.9979L67.5689 33.448L67.6032 32.8971L67.65 32.3458L67.5787 31.7952L67.6234 31.2436L67.4848 30.6906L67.628 30.1379L67.5875 29.586L67.4076 29.0627L67.1826 28.5537L66.705 28.2445L66.3745 27.7987L65.8676 27.5888L65.3356 27.5056L64.8116 27.4476L64.2753 27.4427L63.7429 27.5584L63.2559 27.8103L62.8283 28.1551L62.5496 28.627L62.3036 29.0993L62.1066 29.6L61.9993 30.1379L61.9599 30.6868L62.0158 31.2352L62.0888 31.7844L62.1234 32.3339L62.1153 32.8831L62.1104 33.4319L62.0919 33.9807L61.9955 34.5296L62.057 35.0784L62.0175 35.6276L62.1272 36.1767L62.0601 36.7262L62.1363 37.2754L62.0105 37.8246L62.0039 38.3734L61.9819 38.9226L61.963 39.4724L61.9679 40.0216L62.0116 40.5711L62.1377 41.1189L61.9948 41.6677L62.0423 42.2176L61.9875 42.7664L61.9941 43.3149L61.9808 43.8627L62.1202 44.4108L62.0035 44.9593L62.0724 45.5088L62.0772 46.0586L62.035 46.6078L62.1111 47.1566L62.1408 47.7055L62.0234 48.2557L62.1181 48.8052L62.1419 49.3547L62.145 49.9042L62.0965 50.4548L62.0248 51.0047L62.0598 51.5549L61.9634 52.1051L61.9896 52.6557L62.0144 53.2048L62.1429 53.7537L62.0933 54.3046L62.1038 54.8548L62.1366 55.4054L61.9578 55.9566L62.1195 56.5072L62.0643 57.0588L61.97 57.6115L61.9979 58.1641L61.9655 57.6157L62.0193 57.0672L61.9972 56.5184L62.1286 55.9703L62.036 55.4221L62.1069 54.8737L62.1202 54.3248L61.9878 53.776L61.991 53.2279L62.0496 52.6805L62.13 52.1324L62.0605 51.5832L62.1174 51.0354L62.0839 50.4876L62.0856 49.9406L62.057 49.3931L62.1394 48.8454L62.0123 48.2969L62.0661 47.7477L62.0154 47.1993L62.0598 46.6511L62.1181 46.1027L62.1324 45.5538L62.0842 45.0047L62.021 44.4562L62.0028 43.907L62.0371 43.3575L62.1167 42.8083L62.0381 42.2588L61.9595 41.7096L62.0584 41.1598L62.0081 40.6113L61.9836 40.0628L62.0252 39.513L62.0392 38.9638L62.0699 38.4139L62.1062 37.8634L61.9731 37.3135L62.1115 36.7622L62.0769 36.2106L61.9665 35.6586L61.9365 35.1322L61.7936 34.6218L61.6357 34.0915L61.2744 33.6751L60.8615 33.3083L60.3256 33.1615L59.8414 32.8922L59.2912 32.8932L58.77 33.0389L58.2124 33.0543L57.7241 33.3135L57.33 33.6974L56.9185 34.0733L56.6575 34.5673L56.6505 35.1332L56.5192 35.6586L56.4521 36.2071L56.5932 36.7559L56.4877 37.3041L56.4381 37.8525L56.5188 38.4007L56.472 38.9491L56.6037 39.4979L56.5545 40.0468L56.5391 40.5949L56.4622 41.1423L56.523 41.6904L56.5974 42.2393L56.4814 42.7877L56.5848 43.3351L56.5007 43.8826L56.4524 44.4296L56.5342 44.9774L56.5803 45.5262L56.5178 46.0751L56.4933 46.6235L56.617 47.1717L56.4647 47.7198L56.4867 48.2693L56.5821 48.8181L56.4664 49.3669L56.4675 49.9158L56.5772 50.4653L56.5269 51.0144L56.4797 51.564L56.501 52.1135L56.5545 52.663L56.4671 53.2115L56.5094 53.7596L56.5545 54.3098L56.5492 54.859L56.5237 55.4092L56.436 55.9598L56.4371 56.5093L56.6079 57.0606L56.4828 57.6122L56.4779 58.1641L56.4608 58.7046L56.4902 59.244L56.5796 59.7841L56.4591 60.3245L56.5289 60.8646L56.5101 61.4057L56.5069 61.9476L56.602 62.4897L56.5097 61.9524L56.5803 61.4158L56.4741 60.8789L56.4881 60.342L56.6257 59.8047L56.6236 59.2688L56.5464 58.7325L56.5639 58.1949L56.6076 57.6579L56.4923 57.1207L56.5052 56.5827L56.5932 56.0454L56.4406 55.5067L56.4654 54.9673L56.4385 54.4275L56.4734 53.8896L56.486 53.3383L56.3833 52.7975L56.0755 52.3294L55.8533 51.8389L55.6105 51.3537L55.3255 50.8859L54.8797 50.5579L54.4615 50.2221L54.0825 49.8295L53.6067 49.5703L53.1061 49.369L52.6201 49.1224L52.0821 49.0427L51.5553 48.8981L51.0107 48.9942L51.0331 48.9072L50.9503 49.4529L50.9813 49.9989L51.0704 50.5446L50.9943 51.0903L51.0645 51.6345L51.0862 52.1799L51.1012 52.7262L51.089 53.2716L50.923 53.8162L50.931 54.3608L51.0065 54.9051L50.9384 55.4501L51.0407 55.9958L51.0865 56.5421L50.9262 57.0875L50.9817 57.6328L51.1047 58.1781L50.9314 58.7248L50.9303 59.2709L50.9684 59.8169L51.0673 60.3626L50.9621 60.9096L50.9503 61.4557L50.9698 62.0028L50.9702 62.5491L51.04 63.0962L50.944 63.6415L51.0593 64.1872L50.996 64.7343L50.9276 65.2803L50.9174 65.8277L51.0841 66.3755L51.0324 66.9226L50.9384 67.4707L51.0963 68.0195L51.0778 68.569L51.0586 69.1287L51.0701 69.6901L51.2311 70.233L51.2849 70.7902L51.33 71.3554L51.5274 71.8836L51.6297 72.4436L51.8669 72.9565L52.2156 73.4131L52.3735 73.9626L52.7068 74.4181L52.9649 74.9208L53.3978 75.3421L53.1703 75.4522L52.8444 75.8948L52.4835 76.3119L52.0283 76.6344L51.7258 77.1102L51.3136 77.4763L50.8895 77.8302L50.4636 78.183L50.1314 78.6298L49.7855 79.0634L49.3985 79.456L48.9838 79.8214L48.6016 80.2197L48.2138 80.6127L47.7461 80.9264L47.3705 81.332L47.0201 81.7617L46.5929 82.1145L46.2627 82.5645L45.86 82.9411L45.4676 83.3285L45.0009 83.6408L44.6184 84.0377L44.2844 84.4827L43.8788 84.8562L43.453 85.2094L43.1333 85.6695L42.6579 85.9734L42.3655 86.4611L41.9826 86.8583L41.5693 87.2258L41.1917 87.6289L40.7889 88.008L40.3354 88.336L39.9822 88.7636L39.585 89.1472L39.2322 89.5744L38.7766 89.899L38.4458 90.3479L38.0563 90.7388L37.6919 91.1545L37.2203 91.463L36.8353 91.8585L36.4273 92.2312L36.1024 92.6878L35.6895 93.0564L35.3027 93.4515L34.9758 93.906L34.5188 94.2298L34.1464 94.6382L33.7848 95.0571L33.3555 95.4085L32.9251 95.7586L32.6205 96.2354L32.2076 96.6036L31.8034 96.982L31.4236 97.3837L31.0474 97.7889L30.5988 98.1215L30.1761 98.4799L29.7841 98.8667L29.3782 99.2412L29.0069 99.6517L28.6072 100.034L28.2788 100.486L27.8495 100.837L27.4708 101.238L27.0652 101.611L26.7731 102.098L26.2666 102.37L25.9997 102.883L25.6081 103.272L25.2095 103.655L24.7284 103.957L24.362 104.372L23.9504 104.742L23.5417 105.114L23.1864 105.54L22.7613 105.895L22.4283 106.345L21.9724 106.673L21.7024 107.185L21.2528 107.517L20.8951 107.942L20.4427 108.272L20.0067 108.62L19.6856 109.081L19.3132 109.492L18.9621 109.924L18.5359 110.282L18.0811 110.607L17.6629 110.969L17.3125 111.404L16.9317 111.805L16.5897 112.247L16.1496 112.592L15.8093 113.035L15.3132 113.324L15.0114 113.809L14.6502 114.232L14.2166 114.585L13.782 114.939L13.4219 115.367" fill="white"></path><path d="M65.9194 69.114H63.1554C63.1554 65.4554 60.1898 62.4898 56.5311 62.4898V54.4276C56.5311 51.3788 54.0595 48.9072 51.0107 48.9072V68.5687C51.0107 74.6665 55.954 79.6094 62.0514 79.6094H65.1365" stroke="#353E48" stroke-width="3.2" stroke-linecap="round" stroke-linejoin="round" stroke-dasharray="50.61 5.9 19.18 2.4 9.59 0.96"></path><path d="M13.4045 115.349L53.241 75.5133" stroke="#353E48" stroke-width="3.2" stroke-linecap="round" stroke-linejoin="round"></path><path d="M37.0101 115.686L75.379 77.3169C77.4492 75.2463 78.6125 72.438 78.6125 69.5098V43.9391C78.6125 42.3251 77.2274 41.035 75.5813 41.1918C74.1461 41.3288 73.0922 42.6161 73.0922 44.0575V58.1644V35.6586C73.0922 34.134 71.8565 32.8984 70.332 32.8984C68.8075 32.8984 67.5718 34.134 67.5718 35.6586V58.1644V30.1382C67.5718 28.6137 66.3358 27.3781 64.8116 27.3781C63.2871 27.3781 62.0515 28.6137 62.0515 30.1382V58.1644V35.6586C62.0515 34.134 60.8158 32.8984 59.2913 32.8984C57.7668 32.8984 56.5311 34.134 56.5311 35.6586V58.1644" stroke="#353E48" stroke-width="3.2" stroke-linecap="round" stroke-linejoin="round" stroke-dasharray="28.78 4.8 19.18 2.4 9.59 0.96"></path><path fill-rule="evenodd" clip-rule="evenodd" d="M158.501 115.462L158.17 115.016L157.814 114.596L157.425 114.208L157.015 113.842L156.619 113.461L156.221 113.083L155.883 112.644L155.482 112.268L155.037 111.936L154.632 111.564L154.349 111.069L153.879 110.762L153.562 110.301L153.173 109.912L152.668 109.637L152.306 109.221L151.979 108.768L151.619 108.348L151.201 107.987L150.732 107.676L150.43 107.2L150.035 106.816L149.607 106.465L149.25 106.045L148.878 105.639L148.492 105.246L148.036 104.924L147.602 104.581L147.275 104.13L146.903 103.724L146.558 103.29L146.044 103.026L145.745 102.546L145.36 102.152L144.941 101.791L144.523 101.428L144.141 101.03L143.835 100.556L143.32 100.293L143.04 99.7927L142.588 99.4658L142.167 99.1087L141.821 98.6759L141.397 98.3213L141.006 97.9339L140.671 97.4895L140.212 97.1695L139.849 96.7517L139.51 96.3105L139.086 95.9538L138.64 95.6202L138.334 95.1458L137.985 94.7154L137.568 94.3531L137.155 93.9866L136.739 93.6237L136.395 93.188L135.915 92.8879L135.563 92.4582L135.187 92.054L134.823 91.6383L134.361 91.3201L134.074 90.8279L133.633 90.4904L133.232 90.1127L132.829 89.7351L132.484 89.2998L132.136 88.8684L131.753 88.4726L131.361 88.0869L130.907 87.7627L130.552 87.34L130.199 86.9155L129.767 86.5693L129.413 86.1442L128.915 85.8619L128.527 85.4678L128.24 84.9742L127.81 84.6249L127.353 84.3017L126.971 83.9045L126.577 83.5185L126.216 83.0982L125.892 82.6399L125.518 82.2333L125.085 81.8857L124.609 81.5807L124.297 81.1112L123.876 80.7503L123.476 80.3678L123.138 79.9248L122.749 79.5307L122.327 79.1713L121.943 78.7768L121.527 78.4128L121.09 78.0666L120.778 77.5978L120.369 77.2247L119.971 76.8383L119.528 76.4991L119.259 75.9838L118.737 75.7218L118.445 75.2299L118.066 74.824L117.616 74.4869L117.208 74.0935L117.317 73.5356L117.228 72.9886L117.145 72.4418L117.314 71.8944L117.309 71.3477L117.314 70.7999L117.262 70.2525L117.159 69.7044L117.219 69.1562L117.284 68.6088L117.269 68.0614L117.31 67.514L117.246 66.9669L117.153 66.4188L117.17 65.871L117.303 65.3229L117.317 64.7751L117.173 64.2277L117.156 63.6799L117.193 63.1321L117.191 62.584L117.226 62.0355L117.172 61.4881L117.184 60.9417L117.297 60.394L117.315 59.8455L117.175 59.2981L117.168 58.751L117.236 58.2046L117.308 57.6579L117.3 57.1108L117.289 56.5627L117.263 56.0142L117.196 55.4665L117.225 54.919L117.166 54.3713L117.184 53.8231L117.148 53.2743L117.198 52.7262L117.184 52.1781L117.206 51.6293L117.316 51.0808L117.155 50.5316L117.175 49.9831L117.303 49.434L117.239 48.8862L117.153 48.3384L117.266 47.7889L117.314 47.2404L117.267 46.6913L117.262 46.141L117.154 45.5922L117.231 45.0417L117.283 44.4904L117.286 43.9391L117.18 43.3651L116.965 42.8331L116.717 42.3147L116.382 41.8294L115.906 41.4745L115.343 41.2956L114.781 41.1318L114.203 41.2296L113.687 41.2817L113.176 41.4273L112.785 41.7872L112.427 42.1589L112.084 42.5536L111.956 43.063L111.822 43.552L111.75 44.0576L111.711 44.5983L111.615 45.1391L111.66 45.681L111.682 46.2235L111.645 46.765L111.653 47.3065L111.798 47.8479L111.789 48.3905L111.647 48.933L111.752 49.4748L111.633 50.017L111.648 50.5599L111.763 51.1021L111.615 51.645L111.775 52.1875L111.628 52.7307L111.755 53.2722L111.806 53.8137L111.682 54.3573L111.653 54.8998L111.722 55.4427L111.631 55.9866L111.656 56.5299L111.689 57.0738L111.777 57.6191L111.798 58.1641L111.69 57.6156L111.633 57.0672L111.787 56.5183L111.629 55.9702L111.617 55.4221L111.711 54.8736L111.755 54.3248L111.748 53.776L111.67 53.2279L111.632 52.6804L111.72 52.1323L111.667 51.5831L111.776 51.0354L111.795 50.4876L111.674 49.9405L111.642 49.3931L111.653 48.8453L111.723 48.2969L111.69 47.7477L111.778 47.1992L111.627 46.6511L111.799 46.1026L111.671 45.5538L111.718 45.0046L111.734 44.4562L111.743 43.907L111.616 43.3575L111.689 42.8083L111.635 42.2588L111.705 41.7096L111.63 41.1597L111.778 40.6113L111.689 40.0628L111.663 39.5129L111.779 38.9638L111.75 38.4139L111.747 37.8633L111.755 37.3134L111.772 36.7622L111.703 36.2106L111.674 35.6586L111.664 35.1185L111.506 34.5994L111.218 34.1431L110.889 33.719L110.459 33.3997L109.978 33.1765L109.48 32.9931L108.95 32.8628L108.423 33.0071L107.871 33.0539L107.443 33.4029L107.046 33.755L106.717 34.1669L106.403 34.6036L106.294 35.1297L106.165 35.6586L106.122 36.2071L106.166 36.7559L106.264 37.304L106.209 37.8525L106.201 38.4006L106.132 38.9491L106.262 39.4979L106.214 40.0467L106.124 40.5948L106.104 41.1423L106.143 41.6904L106.2 42.2392L106.168 42.7877L106.17 43.3351L106.122 43.8825L106.221 44.4296L106.204 44.9774L106.199 45.5262L106.271 46.075L106.203 46.6235L106.184 47.1716L106.252 47.7197L106.28 48.2693L106.255 48.8181L106.211 49.3669L106.264 49.9157L106.199 50.4652L106.235 51.0144L106.209 51.5639L106.166 52.1134L106.106 52.663L106.18 53.2114L106.099 53.7596L106.152 54.3098L106.237 54.8589L106.2 55.4092L106.116 55.9597L106.141 56.5093L106.111 57.0605L106.279 57.6121L106.248 58.1641L106.108 57.6156L106.096 57.0672L106.24 56.5176L106.21 55.9685L106.261 55.4193L106.105 54.8705L106.209 54.3213L106.203 53.7728L106.18 53.224L106.236 52.6748L106.252 52.1257L106.1 51.5758L106.175 51.027L106.161 50.4778L106.125 49.929L106.121 49.3798L106.181 48.8303L106.251 48.2808L106.192 47.7316L106.235 47.1835L106.193 46.6347L106.12 46.0848L106.276 45.536L106.283 44.9879L106.112 44.4397L106.109 43.8916L106.147 43.3431L106.102 42.7936L106.157 42.2438L106.278 41.6946L106.238 41.1461L106.284 40.5969L106.208 40.0471L106.172 39.4972L106.158 38.9477L106.099 38.3978L106.169 37.8476L106.252 37.2977L106.101 36.7475L106.111 36.1973L106.121 35.6467L106.214 35.0979L106.231 34.5487L106.27 33.9978L106.235 33.4479L106.242 32.897L106.274 32.3458L106.247 31.7952L106.176 31.2436L106.249 30.6906L106.132 30.1379L106.202 29.5866L106.053 29.0511L105.785 28.5638L105.334 28.2336L104.932 27.8899L104.461 27.6488L103.984 27.3491L103.43 27.4493L102.874 27.3407L102.344 27.5164L101.885 27.8266L101.458 28.1669L101.174 28.6312L100.906 29.0927L100.64 29.5831L100.749 30.1379L100.758 30.6867L100.592 31.2352L100.665 31.7844L100.705 32.3339L100.674 32.8831L100.652 33.4319L100.741 33.9807L100.679 34.5295L100.729 35.0783L100.58 35.6275L100.682 36.1767L100.677 36.7262L100.754 37.2754L100.747 37.8245L100.58 38.3734L100.602 38.9225L100.705 39.4724L100.665 40.0216L100.606 40.5711L100.734 41.1189L100.712 41.6677L100.634 42.2176L100.714 42.7664L100.679 43.3148L100.649 43.8626L100.611 44.4107L100.617 44.9592L100.664 45.5087L100.701 46.0586L100.644 46.6078L100.631 47.1566L100.738 47.7054L100.644 48.2556L100.745 48.8052L100.746 49.3547L100.609 49.9042L100.659 50.4548L100.699 51.0046L100.623 51.5548L100.651 52.1051L100.634 52.6556L100.586 53.2048L100.755 53.7536L100.686 54.3045L100.582 54.8548L100.765 55.4053L100.584 55.9566L100.723 56.5072L100.658 57.0588L100.756 57.6114L100.721 58.1641L100.715 57.6156L100.614 57.0672L100.762 56.5183L100.694 55.9702L100.752 55.4221L100.706 54.8736L100.641 54.3248L100.763 53.776L100.758 53.2279L100.756 52.6804L100.616 52.1323L100.744 51.5831L100.74 51.0354L100.7 50.4876L100.704 49.9405L100.594 49.3931L100.696 48.8453L100.667 48.2969L100.655 47.7477L100.586 47.1992L100.754 46.6511L100.588 46.1026L100.657 45.5538L100.756 45.0046L100.612 44.4562L100.74 43.907L100.602 43.3575L100.665 42.8083L100.624 42.2588L100.737 41.7096L100.6 41.1597L100.753 40.6113L100.637 40.0628L100.638 39.5129L100.723 38.9638L100.697 38.4139L100.66 37.8633L100.733 37.3134L100.729 36.7622L100.643 36.2106L100.612 35.6586L100.552 35.1325L100.434 34.6123L100.25 34.0942L99.9062 33.6614L99.4751 33.3148L98.9479 33.1503L98.4543 32.918L97.9093 32.8778L97.3595 32.8956L96.8669 33.1423L96.3467 33.3204L95.96 33.7089L95.5523 34.0838L95.407 34.6217L95.2875 35.1367L95.0629 35.6586L95.145 36.2071L95.2431 36.7559L95.1698 37.304L95.2138 37.8525L95.1883 38.4006L95.1635 38.9491L95.1746 39.4979L95.2218 40.0467L95.1785 40.5948L95.189 41.1423L95.2361 41.6904L95.2194 42.2392L95.1544 42.7877L95.1624 43.3351L95.1282 43.8825L95.2002 44.4296L95.1802 44.9774L95.1027 45.5262L95.0988 46.075L95.0852 46.6235L95.1299 47.1716L95.1568 47.7197L95.1415 48.2693L95.1956 48.8181L95.1827 49.3669L95.0653 49.9157L95.1226 50.4652L95.1593 51.0144L95.1505 51.5639L95.2375 52.1134L95.0849 52.663L95.1478 53.2114L95.0569 53.7596L95.1436 54.3098L95.1271 54.8589L95.1827 55.4092L95.0817 55.9597L95.1488 56.5093L95.1369 57.0605L95.2431 57.6121L95.1942 58.1641L95.204 58.7094L95.1184 59.2551L95.1869 59.8004L95.0716 60.3461L95.1645 60.8907L95.2382 61.4354L95.0985 61.9814L95.1991 62.5267L95.1373 63.0724L95.1879 63.6195L95.0765 64.1651L95.1635 64.7122L95.0793 65.2603L95.2386 65.8081L95.2162 65.2677L95.1076 64.7272L95.1963 64.1858L95.1568 63.6439L95.1058 63.1031L95.073 62.5617L95.1614 62.0198L95.1352 61.4783L95.1355 60.9365L95.1795 60.3947L95.0765 59.8525L95.0852 59.312L95.1247 58.7713L95.1135 58.2287L95.2319 57.6869L95.0814 57.1447L95.1708 56.6018L95.1418 56.0596L95.1862 55.5161L95.1303 54.9721L95.1519 54.4275L95.0782 53.8906L95.131 53.333L94.9182 52.8226L94.6793 52.3353L94.5731 51.7847L94.2126 51.3645L93.9631 50.8701L93.4912 50.5644L93.1303 50.1606L92.6443 49.914L92.1923 49.6303L91.7315 49.3508L91.2159 49.1964L90.7104 48.9907L90.1689 48.9459L89.6288 48.8831L89.5774 48.9072L89.634 49.4528L89.6264 49.9989L89.5331 50.5445L89.6655 51.0902L89.5977 51.6345L89.6952 52.1798L89.6976 52.7262L89.6627 53.2715L89.677 53.8162L89.6609 54.3608L89.6739 54.9051L89.5991 55.45L89.6567 55.9957L89.6714 56.5421L89.6218 57.0874L89.6236 57.6327L89.685 58.1781L89.612 58.7248L89.5869 59.2708L89.5568 59.8169L89.6197 60.3625L89.6501 60.9096L89.6781 61.4556L89.5565 62.0027L89.641 62.5491L89.692 63.0961L89.6323 63.6415L89.5334 64.1872L89.5512 64.7342L89.6512 65.2803L89.6519 65.8277L89.6494 66.3755L89.6484 66.9225L89.6519 67.4706L89.683 68.0195L89.7189 68.569L89.6407 69.121L89.6271 69.6771L89.7119 70.2259L89.866 70.7601L89.8765 71.3253L90.0278 71.8609L90.3659 72.3307L90.4068 72.9068L90.7387 73.3644L90.9689 73.8654L91.2487 74.3398L91.5215 74.8205L91.8782 75.2425L92.2171 75.6761L92.6017 76.0694L92.8955 76.5536L93.3528 76.874L93.7818 77.2195L94.1857 77.6017L94.6657 77.879L95.1254 78.1865L95.6278 78.4181L96.1116 78.6867L96.607 78.9407L97.1568 79.0462L97.6809 79.2205L98.2147 79.3672L98.7383 79.478L99.0901 79.893L99.4821 80.2773L99.8842 80.6518L100.346 80.9679L100.707 81.3851L101.109 81.7599L101.505 82.1403L101.829 82.5931L102.25 82.948L102.66 83.3141L103.007 83.7431L103.4 84.1257L103.862 84.4394L104.127 84.9494L104.62 85.2331L104.912 85.7166L105.385 86.0191L105.761 86.4181L106.185 86.7706L106.466 87.2659L106.955 87.5538L107.262 88.0244L107.693 88.3723L108.129 88.7143L108.388 89.2313L108.832 89.5643L109.172 90.002L109.63 90.3199L110.004 90.723L110.442 91.0609L110.754 91.5251L111.192 91.864L111.532 92.3003L111.933 92.6759L112.374 93.0134L112.681 93.4843L113.064 93.8794L113.528 94.1931L113.892 94.6071L114.245 95.0301L114.678 95.3749L115.037 95.7924L115.416 96.1903L115.822 96.5613L116.188 96.9739L116.637 97.304L116.999 97.7194L117.426 98.0705L117.809 98.4649L118.091 98.9568L118.505 99.3194L118.934 99.6666L119.366 100.013L119.724 100.433L120.095 100.839L120.527 101.184L120.937 101.55L121.205 102.056L121.678 102.36L122.026 102.786L122.365 103.224L122.802 103.564L123.247 103.898L123.562 104.361L124.02 104.682L124.367 105.113L124.743 105.514L125.102 105.932L125.544 106.268L125.98 106.611L126.251 107.12L126.733 107.416L127.019 107.908L127.504 108.202L127.894 108.592L128.216 109.049L128.611 109.432L129.004 109.819L129.379 110.225L129.78 110.603L130.242 110.917L130.639 111.297L130.998 111.72L131.365 112.132L131.744 112.532L132.154 112.904L132.555 113.283L132.945 113.675L133.371 114.031L133.735 114.449L134.138 114.829L134.482 115.269L134.832 115.704" fill="white"></path><path d="M158.558 115.406L148.227 105.075L137.896 94.7445L117.233 74.0831L117.231 43.9392C117.231 42.3252 115.845 41.0348 114.199 41.192C112.764 41.3289 111.71 42.6163 111.71 44.0576V58.1642V35.6587C111.71 34.1342 110.474 32.8982 108.95 32.8982C107.426 32.8982 106.19 34.1342 106.19 35.6587V58.1642V30.138C106.19 28.6138 104.954 27.3782 103.43 27.3782C101.905 27.3782 100.67 28.6138 100.67 30.138V58.1642V35.6587C100.67 34.1342 99.4339 32.8982 97.9094 32.8982C96.3848 32.8982 95.1492 34.1342 95.1492 35.6587V58.1642V65.8082V54.4276C95.1492 51.3789 92.6776 48.9073 89.6285 48.9073V68.5691C89.6285 74.0615 93.5101 78.5949 98.7628 79.4449L134.873 115.663" stroke="#353E48" stroke-width="3.2" stroke-linecap="round" stroke-linejoin="round" stroke-dasharray="28.78 4.8 19.18 2.4 9.59 0.96"></path></g><defs><clipPath id="clip0"><rect width="160" height="150.218" fill="white"></rect></clipPath></defs></svg>