<svg id="svg" version="1.1" xmlns="http://www.w3.org/2000/svg" xmlns:xlink="http://www.w3.org/1999/xlink" width="400" height="400" viewBox="0, 0, 400,400"><g id="svgg"><path id="path0" d="M188.287 0.260 C 185.074 0.454,181.377 0.748,179.754 0.939 C 179.428 0.978,178.399 1.092,177.467 1.193 C 176.535 1.294,175.582 1.405,175.349 1.438 C 175.116 1.472,174.545 1.546,174.079 1.603 C 160.205 3.292,141.721 7.881,129.693 12.622 C 128.667 13.026,126.760 13.773,125.455 14.281 C 124.151 14.788,122.740 15.358,122.321 15.547 C 121.902 15.735,120.377 16.404,118.933 17.033 C 116.156 18.243,108.539 21.945,105.972 23.334 C 103.575 24.630,102.151 25.420,101.144 26.015 C 100.631 26.317,99.934 26.719,99.595 26.907 C 96.246 28.768,86.951 34.757,83.640 37.188 C 68.523 48.281,55.389 60.570,45.427 72.939 C 45.275 73.128,44.534 74.043,43.782 74.972 C 38.657 81.300,32.722 89.832,28.345 97.162 C 26.521 100.218,26.012 101.105,24.605 103.685 C 24.376 104.104,23.812 105.133,23.353 105.972 C 20.769 110.682,16.662 119.474,14.488 124.947 C 12.310 130.432,11.863 131.643,10.427 135.959 C 7.705 144.138,6.301 149.135,4.737 156.205 C 3.522 161.699,2.050 170.065,1.608 173.994 C 1.550 174.507,1.474 175.116,1.439 175.349 C -0.237 186.440,-0.477 207.582,0.931 220.161 C 0.973 220.534,1.088 221.563,1.186 222.448 C 1.485 225.141,1.531 225.515,1.799 227.446 C 3.106 236.881,5.188 246.762,7.709 255.485 C 8.867 259.494,11.546 267.571,12.654 270.394 C 14.931 276.196,15.695 278.061,17.025 281.067 C 18.556 284.525,21.922 291.420,23.353 294.028 C 23.813 294.867,24.474 296.086,24.822 296.739 C 27.348 301.467,33.799 311.711,37.129 316.279 C 50.825 335.068,64.541 348.791,83.638 362.812 C 84.773 363.646,93.321 369.336,94.741 370.203 C 102.846 375.153,111.623 379.784,118.933 382.967 C 120.377 383.596,121.902 384.265,122.321 384.453 C 122.740 384.642,124.151 385.212,125.455 385.719 C 126.760 386.227,128.666 386.971,129.691 387.373 C 131.289 388.000,137.751 390.204,141.296 391.332 C 177.505 402.851,222.495 402.851,258.704 391.332 C 262.249 390.204,268.711 388.000,270.309 387.373 C 271.334 386.971,273.240 386.227,274.545 385.719 C 275.849 385.212,277.260 384.640,277.679 384.449 C 278.098 384.259,279.242 383.759,280.220 383.340 C 283.471 381.946,290.734 378.435,293.859 376.748 C 298.274 374.363,301.154 372.710,305.259 370.203 C 306.680 369.335,315.227 363.646,316.362 362.812 C 318.427 361.296,323.353 357.574,324.031 357.018 C 324.395 356.719,325.379 355.925,326.218 355.253 C 329.262 352.814,334.411 348.299,337.481 345.375 C 344.118 339.057,352.717 329.718,356.210 325.034 C 356.487 324.663,356.883 324.164,357.091 323.925 C 357.462 323.501,361.136 318.643,362.812 316.361 C 364.922 313.490,369.993 305.671,372.462 301.482 C 374.222 298.498,374.766 297.530,376.749 293.859 C 382.319 283.548,387.875 270.092,391.437 258.280 C 391.690 257.442,392.038 256.298,392.211 255.739 C 394.421 248.603,396.879 236.989,398.201 227.446 C 398.469 225.515,398.515 225.141,398.814 222.448 C 398.912 221.563,399.028 220.534,399.070 220.161 C 400.300 209.369,400.300 190.631,399.070 179.839 C 399.028 179.466,398.912 178.437,398.814 177.552 C 398.515 174.859,398.469 174.485,398.201 172.554 C 396.743 162.024,394.085 149.925,391.355 141.381 C 388.385 132.088,386.183 126.186,382.979 118.933 C 381.664 115.954,378.116 108.670,376.750 106.141 C 374.840 102.609,374.311 101.651,373.657 100.551 C 373.270 99.898,372.160 98.030,371.189 96.400 C 369.469 93.508,364.507 85.949,362.812 83.639 C 348.833 64.579,335.474 51.220,316.362 37.188 C 315.227 36.354,306.679 30.664,305.259 29.797 C 297.154 24.847,288.377 20.216,281.067 17.033 C 279.623 16.404,278.098 15.735,277.679 15.547 C 277.260 15.358,275.849 14.788,274.545 14.281 C 273.240 13.773,271.334 13.028,270.309 12.625 C 268.738 12.007,262.248 9.796,258.619 8.641 C 250.695 6.120,238.815 3.448,229.648 2.127 C 227.971 1.885,226.351 1.651,226.049 1.607 C 225.746 1.563,224.450 1.410,223.169 1.268 C 221.887 1.126,220.534 0.975,220.161 0.932 C 212.411 0.050,197.113 -0.273,188.287 0.260 M109.615 75.049 C 110.220 75.153,110.888 75.267,111.098 75.304 C 111.309 75.340,111.614 75.410,111.776 75.459 C 111.938 75.508,112.262 75.582,112.495 75.624 C 114.259 75.942,119.277 78.086,121.169 79.331 C 121.700 79.680,122.215 79.966,122.313 79.966 C 122.411 79.966,122.490 80.045,122.490 80.141 C 122.490 80.237,122.624 80.367,122.787 80.429 C 123.095 80.546,123.133 80.573,123.869 81.197 C 126.634 83.540,126.792 83.691,128.103 85.261 C 128.667 85.936,129.198 86.514,129.283 86.545 C 129.367 86.576,129.437 86.712,129.437 86.847 C 129.437 86.982,129.551 87.136,129.691 87.190 C 129.831 87.244,129.945 87.394,129.945 87.523 C 129.945 87.653,130.021 87.759,130.114 87.759 C 130.208 87.759,130.284 87.859,130.284 87.982 C 130.284 88.104,130.436 88.367,130.623 88.567 C 130.809 88.768,130.961 89.011,130.961 89.108 C 130.961 89.205,131.038 89.284,131.131 89.284 C 131.224 89.284,131.300 89.365,131.300 89.465 C 131.300 89.564,131.681 90.336,132.147 91.181 C 132.613 92.025,132.994 92.781,132.994 92.859 C 132.994 92.938,133.180 93.405,133.407 93.896 C 133.814 94.778,134.643 97.277,134.798 98.086 C 134.841 98.314,134.982 99.000,135.110 99.610 C 135.678 102.310,135.858 107.439,135.457 109.445 C 135.281 110.323,135.208 110.733,135.123 111.309 C 135.075 111.635,134.963 112.151,134.873 112.455 C 134.784 112.760,134.716 113.027,134.723 113.048 C 134.730 113.070,134.520 113.774,134.257 114.612 C 133.995 115.451,133.773 116.175,133.764 116.222 C 133.755 116.269,133.540 116.754,133.286 117.301 C 133.033 117.848,132.825 118.382,132.825 118.487 C 132.825 118.592,132.520 119.174,132.147 119.780 C 131.775 120.385,131.470 120.970,131.470 121.079 C 131.470 121.187,131.413 121.302,131.343 121.333 C 131.217 121.389,129.926 123.266,129.791 123.589 C 129.752 123.680,129.618 123.858,129.492 123.985 C 129.365 124.111,129.054 124.489,128.799 124.825 C 128.544 125.160,128.183 125.593,127.997 125.787 C 127.810 125.980,127.426 126.404,127.142 126.728 C 126.858 127.053,126.096 127.771,125.448 128.324 C 124.800 128.876,124.193 129.410,124.100 129.510 C 124.007 129.609,123.549 129.955,123.083 130.277 C 122.618 130.599,122.211 130.923,122.180 130.997 C 122.149 131.071,122.059 131.131,121.979 131.131 C 121.845 131.131,120.135 132.129,119.949 132.316 C 119.732 132.535,117.160 133.700,115.714 134.235 C 111.539 135.780,106.876 136.440,102.874 136.054 C 100.754 135.850,100.655 135.836,99.195 135.536 C 98.729 135.440,98.196 135.331,98.009 135.294 C 97.823 135.257,97.442 135.139,97.162 135.031 C 96.883 134.923,96.654 134.852,96.654 134.874 C 96.654 134.938,94.837 134.341,94.282 134.095 C 94.003 133.971,93.050 133.551,92.165 133.163 C 91.280 132.774,90.518 132.399,90.471 132.328 C 90.375 132.184,89.526 131.705,89.072 131.539 C 88.909 131.479,88.776 131.363,88.776 131.281 C 88.776 131.198,88.662 131.131,88.522 131.131 C 88.382 131.131,88.268 131.055,88.268 130.961 C 88.268 130.868,88.153 130.792,88.014 130.792 C 87.874 130.792,87.759 130.713,87.759 130.617 C 87.759 130.521,87.626 130.392,87.463 130.330 C 87.300 130.268,86.938 130.004,86.658 129.743 C 86.379 129.482,86.085 129.268,86.006 129.268 C 85.723 129.267,82.227 125.600,81.158 124.185 C 80.560 123.393,80.019 122.706,79.956 122.660 C 79.894 122.613,79.793 122.417,79.733 122.224 C 79.673 122.031,79.488 121.726,79.323 121.546 C 79.157 121.367,78.920 120.972,78.796 120.669 C 78.671 120.366,78.503 120.119,78.421 120.119 C 78.339 120.119,78.272 120.052,78.272 119.970 C 78.272 119.889,77.992 119.222,77.649 118.488 C 77.306 117.754,77.017 117.116,77.006 117.069 C 76.942 116.792,76.517 115.602,76.431 115.460 C 76.375 115.366,76.321 115.252,76.312 115.205 C 76.302 115.159,76.250 115.006,76.196 114.867 C 73.930 108.980,74.452 99.269,77.369 93.030 C 77.604 92.528,77.946 91.767,78.129 91.339 C 78.313 90.912,78.515 90.522,78.580 90.474 C 78.758 90.339,79.797 88.604,79.797 88.440 C 79.797 88.361,79.857 88.271,79.931 88.239 C 80.004 88.208,80.328 87.802,80.651 87.336 C 80.973 86.870,81.332 86.428,81.449 86.353 C 81.565 86.279,81.660 86.147,81.660 86.060 C 81.660 85.802,84.088 83.253,85.326 82.210 C 88.529 79.512,93.393 76.825,96.569 76.000 C 99.106 75.341,100.389 75.081,101.821 74.936 C 102.334 74.884,102.785 74.813,102.824 74.778 C 102.970 74.645,108.557 74.869,109.615 75.049 M272.596 153.568 C 274.497 153.784,276.227 154.030,278.611 154.424 C 279.319 154.541,282.837 155.367,283.631 155.603 C 284.087 155.739,284.497 155.855,284.541 155.862 C 284.647 155.880,284.760 155.915,286.735 156.556 C 287.663 156.857,289.131 157.392,289.997 157.744 C 290.863 158.096,291.573 158.333,291.574 158.269 C 291.575 158.205,291.633 158.232,291.701 158.327 C 291.844 158.528,293.304 159.198,293.411 159.113 C 293.450 159.082,293.528 159.129,293.585 159.219 C 293.642 159.308,294.311 159.693,295.070 160.074 C 298.117 161.602,301.546 163.891,304.447 166.335 C 306.453 168.025,311.563 173.253,311.563 173.615 C 311.563 173.689,311.784 173.991,312.054 174.287 C 312.325 174.583,312.573 174.886,312.605 174.960 C 312.755 175.304,315.197 178.837,315.360 178.947 C 315.469 179.021,315.475 179.074,315.375 179.077 C 315.262 179.080,315.262 179.123,315.375 179.206 C 315.468 179.275,315.773 179.769,316.053 180.304 C 316.332 180.840,316.618 181.278,316.688 181.279 C 316.758 181.279,316.806 181.336,316.795 181.406 C 316.749 181.694,316.827 181.945,317.027 182.159 C 317.701 182.881,321.526 192.324,321.591 193.431 C 321.596 193.503,321.673 193.753,321.763 193.986 C 321.854 194.219,321.954 194.524,321.985 194.663 C 322.017 194.803,322.311 196.023,322.637 197.374 C 322.964 198.725,323.396 200.745,323.598 201.864 C 324.067 204.461,324.043 204.308,324.265 206.099 C 324.369 206.938,324.487 207.883,324.527 208.200 C 324.637 209.082,324.764 210.746,324.948 213.723 C 325.052 215.413,325.116 236.894,325.116 270.775 L 325.116 325.116 299.449 325.116 L 273.782 325.116 273.771 279.246 C 273.766 254.017,273.734 233.109,273.702 232.783 C 273.670 232.457,273.591 231.389,273.527 230.411 C 273.463 229.432,273.386 228.593,273.357 228.545 C 273.328 228.497,273.256 228.002,273.198 227.444 C 272.947 225.031,272.331 222.016,271.625 219.737 C 271.380 218.945,271.171 218.259,271.161 218.213 C 270.773 216.427,267.794 210.419,267.297 210.419 C 267.199 210.419,267.166 210.371,267.225 210.313 C 267.419 210.119,263.982 206.014,263.626 206.014 C 263.554 206.014,263.199 205.734,262.836 205.392 C 258.491 201.285,248.370 198.968,240.322 200.238 C 239.763 200.327,239.000 200.447,238.628 200.506 C 235.249 201.037,229.419 203.196,228.159 204.382 C 228.046 204.488,227.745 204.682,227.489 204.815 C 226.247 205.455,223.637 207.833,221.794 210.003 C 220.587 211.424,217.357 216.811,217.507 217.152 C 217.517 217.174,217.382 217.525,217.207 217.933 C 216.830 218.812,215.744 222.147,215.599 222.872 C 215.543 223.151,215.310 224.257,215.081 225.328 C 214.667 227.265,214.219 230.600,214.070 232.867 C 214.027 233.520,213.988 254.543,213.984 279.585 L 213.977 325.116 189.242 325.116 L 164.507 325.116 164.507 241.677 L 164.507 158.238 189.242 158.238 L 213.977 158.238 213.977 169.335 C 213.977 178.106,214.022 180.429,214.189 180.420 C 214.305 180.413,214.959 179.549,215.642 178.500 C 217.682 175.367,222.347 170.111,225.356 167.556 C 225.740 167.230,226.269 166.773,226.530 166.540 C 226.792 166.307,227.829 165.509,228.835 164.766 C 229.842 164.024,230.690 163.357,230.721 163.284 C 230.753 163.211,230.886 163.151,231.018 163.151 C 231.150 163.151,231.258 163.075,231.258 162.982 C 231.258 162.889,231.326 162.812,231.410 162.812 C 231.557 162.812,234.643 160.975,234.816 160.785 C 235.246 160.310,243.940 156.423,244.194 156.591 C 244.226 156.612,244.377 156.524,244.531 156.396 C 244.685 156.268,244.812 156.213,244.812 156.273 C 244.812 156.334,245.040 156.265,245.320 156.120 C 245.599 155.976,245.828 155.894,245.828 155.939 C 245.828 155.984,246.152 155.903,246.548 155.759 C 246.944 155.616,247.382 155.472,247.522 155.441 C 247.662 155.410,247.776 155.372,247.776 155.358 C 247.776 155.344,247.959 155.299,248.182 155.258 C 248.406 155.217,249.168 155.037,249.877 154.858 C 252.711 154.142,256.424 153.574,260.313 153.260 C 262.140 153.113,270.415 153.321,272.596 153.568 M131.300 241.678 L 131.300 325.118 105.506 325.075 L 79.712 325.032 79.669 241.847 C 79.645 196.095,79.662 158.566,79.706 158.450 C 79.770 158.282,85.093 158.238,105.543 158.238 L 131.300 158.238 131.300 241.678 " stroke="none" fill="#e4e4e4" fill-rule="evenodd"></path><path id="path1" d="" stroke="none" fill="#e8e4e4" fill-rule="evenodd"></path><path id="path2" d="" stroke="none" fill="#e8e4e4" fill-rule="evenodd"></path><path id="path3" d="" stroke="none" fill="#e8e4e4" fill-rule="evenodd"></path><path id="path4" d="" stroke="none" fill="#e8e4e4" fill-rule="evenodd"></path></g></svg>