<svg id="svg" version="1.1" xmlns="http://www.w3.org/2000/svg" xmlns:xlink="http://www.w3.org/1999/xlink" width="400" height="400" viewBox="0, 0, 400,400"><g id="svgg"><path id="path0" d="M189.496 0.173 C 91.809 5.992,13.376 78.988,1.454 175.180 C 0.321 184.326,0.085 188.604,0.085 200.000 C 0.085 211.396,0.321 215.674,1.454 224.820 C 12.698 315.543,84.457 387.302,175.180 398.546 C 184.326 399.679,188.604 399.915,200.000 399.915 C 211.396 399.915,215.674 399.679,224.820 398.546 C 315.543 387.302,387.302 315.543,398.546 224.820 C 399.679 215.674,399.915 211.396,399.915 200.000 C 399.915 135.905,370.541 77.499,319.017 39.144 C 288.355 16.319,253.298 3.456,213.215 0.324 C 210.264 0.093,192.709 -0.019,189.496 0.173 M108.114 74.893 C 130.997 77.228,143.293 103.364,130.494 122.460 C 116.237 143.730,84.475 139.297,76.263 114.891 C 69.347 94.335,86.579 72.696,108.114 74.893 M273.189 153.648 C 302.934 157.187,321.211 176.652,324.508 208.302 C 325.092 213.909,325.115 216.289,325.116 270.775 L 325.116 325.116 299.453 325.116 L 273.790 325.116 273.735 277.891 C 273.676 226.843,273.731 230.123,272.839 224.905 C 269.804 207.155,259.124 198.605,241.847 200.094 C 226.538 201.413,216.951 211.268,214.579 228.124 C 213.994 232.281,213.977 233.655,213.977 279.416 L 213.977 325.116 189.242 325.116 L 164.507 325.116 164.507 241.677 L 164.507 158.238 189.242 158.238 L 213.977 158.238 213.977 169.335 C 213.977 178.105,214.022 180.430,214.189 180.423 C 214.305 180.418,214.873 179.674,215.450 178.771 C 224.150 165.155,241.003 155.116,257.857 153.509 C 258.928 153.406,260.110 153.292,260.483 153.255 C 262.330 153.072,270.457 153.323,273.189 153.648 M131.300 241.678 L 131.300 325.118 105.506 325.075 L 79.712 325.032 79.669 241.847 C 79.645 196.095,79.662 158.566,79.706 158.450 C 79.770 158.282,85.093 158.238,105.543 158.238 L 131.300 158.238 131.300 241.678 " stroke="none" fill="#047cbc" fill-rule="evenodd"></path><path id="path1" d="" stroke="none" fill="#087cbc" fill-rule="evenodd"></path><path id="path2" d="" stroke="none" fill="#087cbc" fill-rule="evenodd"></path><path id="path3" d="" stroke="none" fill="#087cbc" fill-rule="evenodd"></path><path id="path4" d="" stroke="none" fill="#087cbc" fill-rule="evenodd"></path></g></svg>