<svg version="1.1" id="Layer_1" xmlns="http://www.w3.org/2000/svg" xmlns:xlink="http://www.w3.org/1999/xlink" x="0px" y="0px"
	 width="100%" viewBox="0 0 157 200" enable-background="new 0 0 157 200" xml:space="preserve">
<path fill="#3A424C" opacity="1.000000" stroke="none" 
	d="
M70.000000,1.000000 
	C76.021156,1.000000 82.042305,1.000000 88.721939,1.350997 
	C121.063225,5.955756 147.799652,31.203060 154.987869,63.721863 
	C156.107941,68.788925 157.001617,73.906036 158.000000,79.000000 
	C158.000000,83.024544 158.000000,87.049088 157.638580,91.705048 
	C155.876266,98.473488 154.917374,104.752533 152.998764,110.723183 
	C144.209839,138.074051 129.279984,162.199646 112.675629,185.319366 
	C106.984749,193.243271 98.608765,197.824844 89.037872,200.023224 
	C88.321579,200.187744 87.677597,200.667038 87.000000,201.000000 
	C81.977905,201.000000 76.955818,201.000000 71.324112,200.657242 
	C57.786530,197.075928 48.197487,189.464828 41.327873,178.143936 
	C36.250149,169.776001 30.757971,161.654510 25.829220,153.202332 
	C16.113878,136.541748 7.618309,119.323112 3.433485,100.303078 
	C2.605330,96.539124 1.810303,92.767883 1.000000,89.000000 
	C1.000000,86.629440 1.000000,84.258888 1.382756,81.280243 
	C2.155917,77.541008 2.575653,74.413208 2.932197,71.278214 
	C6.569328,39.297989 30.669727,11.369295 61.623417,3.268238 
	C64.421806,2.535854 67.208092,1.757178 70.000000,1.000000 
M39.455235,24.900312 
	C15.994700,43.826546 5.932049,75.351707 14.548912,104.383270 
	C22.751232,132.018188 37.479855,156.403351 54.492573,179.266556 
	C67.168724,196.301910 93.707085,195.101501 106.222862,177.656540 
	C118.844864,160.063538 129.874527,141.484818 138.630478,121.614685 
	C146.240128,104.345901 149.956619,86.691780 146.038956,67.732346 
	C135.563950,17.038805 80.137482,-5.467400 39.455235,24.900312 
z"/>
<path fill="#FEFEFE" opacity="1.000000" stroke="none" 
	d="
M1.000000,89.468658 
	C1.810303,92.767883 2.605330,96.539124 3.433485,100.303078 
	C7.618309,119.323112 16.113878,136.541748 25.829220,153.202332 
	C30.757971,161.654510 36.250149,169.776001 41.327873,178.143936 
	C48.197487,189.464828 57.786530,197.075928 70.857254,200.657242 
	C47.722881,201.000000 24.445766,201.000000 1.000000,201.000000 
	C1.000000,163.979279 1.000000,126.958298 1.000000,89.468658 
z"/>
<path fill="#FEFEFE" opacity="1.000000" stroke="none" 
	d="
M87.468658,201.000000 
	C87.677597,200.667038 88.321579,200.187744 89.037872,200.023224 
	C98.608765,197.824844 106.984749,193.243271 112.675629,185.319366 
	C129.279984,162.199646 144.209839,138.074051 152.998764,110.723183 
	C154.917374,104.752533 155.876266,98.473488 157.638580,92.168236 
	C158.000000,128.244812 158.000000,164.489639 158.000000,201.000000 
	C134.646439,201.000000 111.291878,201.000000 87.468658,201.000000 
z"/>
<path fill="#FDFDFD" opacity="1.000000" stroke="none" 
	d="
M69.531342,1.000000 
	C67.208092,1.757178 64.421806,2.535854 61.623417,3.268238 
	C30.669727,11.369295 6.569328,39.297989 2.932197,71.278214 
	C2.575653,74.413208 2.155917,77.541008 1.382756,80.836075 
	C1.000000,54.411858 1.000000,27.823717 1.000000,1.000000 
	C23.687017,1.000000 46.374851,1.000000 69.531342,1.000000 
z"/>
<path fill="#FDFDFD" opacity="1.000000" stroke="none" 
	d="
M158.000000,78.531342 
	C157.001617,73.906036 156.107941,68.788925 154.987869,63.721863 
	C147.799652,31.203060 121.063225,5.955756 89.190216,1.350997 
	C111.931343,1.000000 134.862686,1.000000 158.000000,1.000000 
	C158.000000,26.687195 158.000000,52.374939 158.000000,78.531342 
z"/>
<path fill="#FEFEFE" opacity="1.000000" stroke="none" 
	d="
M39.735600,24.679966 
	C80.137482,-5.467400 135.563950,17.038805 146.038956,67.732346 
	C149.956619,86.691780 146.240128,104.345901 138.630478,121.614685 
	C129.874527,141.484818 118.844864,160.063538 106.222862,177.656540 
	C93.707085,195.101501 67.168724,196.301910 54.492573,179.266556 
	C37.479855,156.403351 22.751232,132.018188 14.548912,104.383270 
	C5.932049,75.351707 15.994700,43.826546 39.735600,24.679966 
M97.620392,78.203888 
	C92.734215,68.867348 84.539719,64.439026 75.802986,66.413734 
	C66.761650,68.457298 60.295074,76.433838 60.111660,85.769035 
	C59.934288,94.796478 66.039307,103.154755 74.740334,105.420181 
	C81.693153,107.230431 87.948387,105.613243 93.051208,100.515480 
	C99.168175,94.404579 100.420296,87.065575 97.620392,78.203888 
z"/>
<path fill="#3A434C" opacity="1.000000" stroke="none" 
	d="
M97.767715,78.573990 
	C100.420296,87.065575 99.168175,94.404579 93.051208,100.515480 
	C87.948387,105.613243 81.693153,107.230431 74.740334,105.420181 
	C66.039307,103.154755 59.934288,94.796478 60.111660,85.769035 
	C60.295074,76.433838 66.761650,68.457298 75.802986,66.413734 
	C84.539719,64.439026 92.734215,68.867348 97.767715,78.573990 
M80.325569,96.020920 
	C88.331985,94.103195 91.777077,87.126938 87.862640,80.758484 
	C85.460243,76.849998 80.865112,75.130272 76.698090,76.580139 
	C72.302818,78.109421 69.622437,82.280174 69.984879,87.026100 
	C70.359238,91.928017 73.622826,95.007202 80.325569,96.020920 
z"/>
<path fill="#FAFAFB" opacity="1.000000" stroke="none" 
	d="
M79.924026,96.022858 
	C73.622826,95.007202 70.359238,91.928017 69.984879,87.026100 
	C69.622437,82.280174 72.302818,78.109421 76.698090,76.580139 
	C80.865112,75.130272 85.460243,76.849998 87.862640,80.758484 
	C91.777077,87.126938 88.331985,94.103195 79.924026,96.022858 
z"/>
</svg>