<?xml version="1.0" encoding="UTF-8"?>
<svg viewBox="0 0 724 324"
  xmlns="http://www.w3.org/2000/svg">
  <g fill="none" fill-rule="evenodd">
    <path d="M590 41c-7.005 22.871-12.338 45.204-16 67a559.785 559.785 0 00-3.316 22.516c3.851-9.04 9.29-20.211 16.316-33.516a223.379 223.379 0 00-5.894 18.48c2.846-5.886 6.144-12.38 9.894-19.48-5.625 15.36-9.316 30.264-11.073 44.714-1.758 14.45-2.4 25.212-1.927 32.286l-4.058.002c.017.34.036.673.058.998h-60c-1.302-17.847-1.431-33.861-.386-48.041C514.658 111.779 517.12 96.126 521 79a224.367 224.367 0 011.976 7.503l.103.426A414.99 414.99 0 01525 78c1.513 5.358 2.898 11.088 4.155 17.19C531.716 80.01 536.332 63.28 543 45a875.323 875.323 0 00-1.493 15.177A367.12 367.12 0 01547 44c-2.339 21.877-3.651 41.344-3.938 58.403.32-.832.634-1.633.938-2.403 3.725-9.43 9.392-22.43 17-39-.774 4.397-1.502 8.61-2.185 12.641C560.71 69.4 562.772 64.853 565 60c-4.6 26.145-7.6 45.811-9 59-.246 2.316-.48 4.78-.7 7.392 1.53-6.321 3.097-12.119 4.7-17.392 5.023-16.522 13.69-38.856 26-67a568.73 568.73 0 00-7.104 25.225C582.192 59.13 585.893 50.388 590 41z" fill="#78A38B"/>
    <g fill="#00455D" fill-rule="nonzero">
      <path d="M560.175 60.583c.49-1.066 2.097-.565 1.894.59l-1.245 7.146c-3.724 21.593-6.248 38.32-7.57 50.176l-.176 1.61c-.756 7.12-1.444 17.665-2.09 31.004a1 1 0 11-1.997-.097l.25-4.984c.546-10.497 1.125-19.013 1.752-25.2l.218-2.056c1.188-10.802 3.388-25.7 6.6-44.7l.953-5.581-1.904 4.218c-4.95 11.015-8.83 20.063-11.641 27.142l-.69 1.752a536.188 536.188 0 00-4.391 11.708 1 1 0 11-1.88-.683l.947-2.59c1.342-3.65 2.572-6.901 3.693-9.754l.67-1.696c3.734-9.356 9.27-22.023 16.607-38.005zM586.2 96.533c.582-1.102 2.252-.36 1.823.81-5.599 15.29-9.272 30.12-11.02 44.491l-.281 2.365c-1.537 13.207-2.082 23.125-1.64 29.734a1 1 0 01-.884 1.06l-.114.007h-17a1 1 0 01-.117-1.993l.117-.007h15.941l-.008-.159c-.32-6.852.283-16.719 1.806-29.618l.195-1.63c1.23-10.107 3.399-20.432 6.507-30.974l.492-1.644-.14.28c-6.433 12.762-11.056 23.088-13.865 30.971l-.174.49a291.051 291.051 0 00-1.66 4.863 1 1 0 11-1.898-.63 293.054 293.054 0 011.672-4.896l.354-.996c3.705-10.254 10.335-24.424 19.894-42.524z"/>
      <path d="M585.168 41.6l-1.443 3.309c-11.403 26.26-19.535 47.304-24.397 63.143l-.2.657c-5.038 16.571-9.714 38.28-14.031 65.132a1 1 0 00.987 1.159h17a1 1 0 00.999-.953c1.003-21.498 3.332-43.125 6.987-64.881 3.655-21.752 8.978-44.043 15.97-66.873.369-1.204-1.368-1.847-1.872-.694zm-4.591 15.74l-.548 1.998c-4.565 16.794-8.209 33.293-10.931 49.496l-.402 2.426c-3.305 20.208-5.47 40.307-6.494 60.295l-.071 1.445h-14.873l.43-2.63c4.132-25.029 8.583-45.39 13.353-61.08l.426-1.385c4.051-13.062 10.306-29.643 18.762-49.737l.348-.828zM520.109 78.78c.233-1.029 1.691-1.044 1.946-.021l.822 3.341c2.664 10.922 4.544 19.689 5.64 26.304a1 1 0 11-1.973.327l-.19-1.12c-1.017-5.892-2.622-13.405-4.815-22.537l-.404-1.674-.067.308c-3.193 14.84-5.286 28.532-6.278 41.074l-.095 1.25c-1.012 13.736-.919 29.208.28 46.416l.04.552h18.07a1 1 0 01.992.883l.007.117a1 1 0 01-.883.993l-.117.007h-19a1 1 0 01-.997-.927c-1.306-17.894-1.435-33.956-.387-48.188 1.049-14.232 3.519-29.934 7.409-47.106z"/>
      <path d="M542.145 44.657c-7.857 21.537-12.875 40.941-15.053 58.218l-.174 1.412c-2.053 17.121-2.997 40.357-2.834 69.719a1 1 0 001 .994h17a1 1 0 00.996-1.089c-1.626-18.212-2.607-37.307-2.943-57.285-.336-19.957.978-43.798 3.941-71.52.126-1.173-1.529-1.557-1.933-.449zm-1.177 9.378l.267-.784-.323 3.377c-2.138 22.854-3.064 42.863-2.775 60.032l.045 2.498c.358 18.29 1.26 35.837 2.706 52.644l.104 1.198h-14.914l-.009-2.634c-.07-28.374.934-50.79 3.007-67.24 1.862-14.768 5.825-31.132 11.892-49.091z"/>
    </g>
    <path fill="#E6A386" d="M506 181h70l-3 46h-64zM492 273h78l-3 46h-72z"/>
    <path d="M573 227l-3 46h-78l-.457-7H505c5.979 0 10.843-4.77 10.996-10.712L516 255v-18h-26.348L489 227h84z" fill="#EFDECC"/>
    <path d="M489 175h93l-.998-1.064-9 141L573 314h-25.713a1 1 0 100 2H573a1 1 0 00.998-.936l9-141A1 1 0 00582 173h-93a1 1 0 100 2zm50.287 139H498l.998.936-3.444-53.95a1 1 0 00-1.996.127l3.444 53.95A1 1 0 00498 316h41.287a1 1 0 100-2z" fill="#00455D" fill-rule="nonzero"/>
    <g transform="translate(180 8)">
      <use fill="#F8F8F2"/>
      <use fill="#FFF"/>
    </g>
    <path fill="#F4F0F6" d="M180 126h172v110H180z"/>
    <path fill="#FBEBE9" d="M352 126h164v110H352z"/>
    <path d="M352 8h152c6.627 0 12 5.373 12 12v106H352V8z" fill="#EDF1FA"/>
    <g fill="#00455D" fill-rule="nonzero">
      <path d="M23 314a1 1 0 01.117 1.993L23 316H1a1 1 0 01-.117-1.993L1 314h22zM267.11 314c.492 0 .89.448.89 1 0 .513-.343.936-.786.993l-.103.007H43.889c-.49 0-.889-.448-.889-1 0-.513.343-.936.786-.993l.103-.007h223.222zM595.915 314c.6 0 1.085.448 1.085 1 0 .513-.419.936-.958.993l-.127.007h-176.83c-.6 0-1.085-.448-1.085-1 0-.513.419-.936.958-.993l.127-.007h176.83zM703 314a1 1 0 01.117 1.993L703 316h-84a1 1 0 01-.117-1.993L619 314h84zM723 314a1 1 0 01.117 1.993L723 316h-11a1 1 0 01-.117-1.993L712 314h11z"/>
    </g>
    <g transform="translate(63 248)">
      <rect fill="#C5C4C4" x="10" y="28" width="97" height="43" rx="1"/>
      <path d="M95 53a1 1 0 01-2 0V12a1 1 0 012 0v41zM61 68a1 1 0 010-2h33l-1 1v-8a1 1 0 012 0v8a1 1 0 01-1 1H61zm-47 0a1 1 0 010-2h41a1 1 0 010 2H14zM5 28a1 1 0 012 0v39l-1-1h2a1 1 0 010 2H6a1 1 0 01-1-1V28zm32-17a1 1 0 010 2H6l1-1v10a1 1 0 01-2 0V12a1 1 0 011-1h31zm47 0a1 1 0 010 2H43a1 1 0 010-2h41zm10 0a1 1 0 010 2h-4a1 1 0 010-2h4z" fill="#00455D" fill-rule="nonzero"/>
      <path d="M103 11h-9a1 1 0 00-1 1v55a1 1 0 001 1h9a1 1 0 001-1V12a1 1 0 00-1-1zm-1 2v53h-7V13h7zM38 27a1 1 0 01.117 1.993L38 29H0a1 1 0 01-.117-1.993L0 27h38z" fill="#00455D" fill-rule="nonzero"/>
      <circle fill="#FFF" cx="52" cy="46" r="23"/>
      <path d="M52 22c-13.255 0-24 10.745-24 24s10.745 24 24 24 24-10.745 24-24-10.745-24-24-24zm0 2c12.15 0 22 9.85 22 22s-9.85 22-22 22-22-9.85-22-22 9.85-22 22-22z" fill="#00455D" fill-rule="nonzero"/>
      <circle fill="#E6A386" cx="52" cy="46" r="15"/>
      <ellipse fill="#FFF" cx="52" cy="38.5" rx="7" ry="2.5"/>
      <path d="M65.444 0H41.556a1 1 0 00-.755.344l-9.556 11A1 1 0 0032 13h43a1 1 0 00.755-1.656l-9.556-11A1 1 0 0065.444 0zm-.455 2l7.818 9H34.192l7.818-9h22.979zM102 27a1 1 0 01.117 1.993L102 29H67a1 1 0 01-.117-1.993L67 27h35zM23.75 7.5a1 1 0 01.117 1.993l-.117.007H13.5a1 1 0 01-.117-1.993L13.5 7.5h10.25zM87 33a1 1 0 01.117 1.993L87 35h-6a1 1 0 01-.117-1.993L81 33h6z" fill="#00455D" fill-rule="nonzero"/>
    </g>
    <g transform="translate(180 15)">
      <path d="M3 226h328v18c0 6.627-5.373 12-12 12H15c-6.627 0-12-5.373-12-12v-18z" fill="#E6E6E6"/>
      <path d="M9 224V13C9 6.925 13.925 2 20 2h30.269a1 1 0 000-2H20C12.82 0 7 5.82 7 13v211a1 1 0 102 0zM58.269 2h260a1 1 0 100-2h-260a1 1 0 100 2zm267.803.195A11.004 11.004 0 01335 12.968v187.123a1 1 0 002 0V12.965C336.982 6.71 332.52 1.387 326.447.23a1 1 0 00-.375 1.965z" fill="#00455D" fill-rule="nonzero"/>
      <path d="M104 289h129a6 6 0 016 6v9H98v-9a6 6 0 016-6z" fill="#E6E6E6"/>
      <path d="M336 220H8a1 1 0 00-1 1v18c0 7.18 5.82 13 13 13h304c7.18 0 13-5.82 13-13v-18a1 1 0 00-1-1zM9 222h326v17c0 6.075-4.925 11-11 11H20l-.288-.004C13.77 249.843 9 244.98 9 239v-17zM236 284H108a7 7 0 00-7 7v9a1 1 0 001 1h140a1 1 0 001-1v-9a7 7 0 00-7-7zm0 2l.217.005A5 5 0 01241 291v8H103v-8a5 5 0 015-5h128z" fill="#00455D" fill-rule="nonzero"/>
      <path fill="#E6E6E6" d="M149 251h46v34h-46z"/>
      <path d="M195 250h-46a1 1 0 00-1 1v34a1 1 0 001 1h46a1 1 0 001-1v-34a1 1 0 00-1-1zm-1 2v32h-44v-32h44z" fill="#00455D" fill-rule="nonzero"/>
      <path fill="#C5C4C4" d="M150 252h44v3.273L150 264z"/>
      <circle fill="#C5C4C4" cx="172" cy="236" r="5"/>
      <path fill="#00455D" fill-rule="nonzero" d="M335 110v2H9v-2z"/>
      <path fill="#00455D" fill-rule="nonzero" d="M173 1v220h-2V1z"/>
      <path fill="#F4F0F6" d="M0 158h20v14H0z"/>
    </g>
    <g>
      <path d="M369 235l13.537-24.221A23 23 0 01402.614 199h68.567a24 24 0 0120.718 11.885L506 235H369z" fill="#F7A1A0"/>
      <path d="M395.427 226.451a1 1 0 011.73.997l-.058.1-5.935 9.044a1 1 0 01-1.73-.996l.058-.102 5.935-9.043zm-27.059 1.256a1 1 0 011.807.849l-.05.106-4.246 7.815a1 1 0 01-1.807-.849l.05-.105 4.246-7.816zm16.077-24.365a1 1 0 111.194 1.605 24.97 24.97 0 00-6.758 7.615l-.28.502-4.656 8.568a1 1 0 01-1.807-.849l.05-.106 4.656-8.568a26.973 26.973 0 017.6-8.767zM413 198a1 1 0 01.117 1.993L413 200h-12.432c-2.78 0-5.521.461-8.126 1.357a1 1 0 01-.65-1.892 26.968 26.968 0 018.176-1.458l.6-.007H413zM472.573 226.451a1 1 0 00-1.73.997l.058.1 5.909 9.004a1 1 0 001.73-.996l-.058-.101-5.91-9.004zm21.806-8.41a1 1 0 00-1.807.85l.05.105 9.5 17.481a1 1 0 001.806-.849l-.05-.105-9.499-17.482zM455 198a1 1 0 00-.116 1.993L455 200h12.432a25 25 0 0121.363 12.015 1 1 0 001.71-1.039 27 27 0 00-22.624-12.972l-.449-.004H455z" fill="#00455D" fill-rule="nonzero"/>
      <path fill="#00455D" d="M400 199h7v36h-7zM461 199h7v36h-7z"/>
      <g>
        <path d="M425 147h18c7.732 0 14 6.268 14 14v7h-46v-7c0-7.732 6.268-14 14-14z" fill="#FFF"/>
        <path d="M428 148h18c7.732 0 14 6.268 14 14v7h-46v-7c0-7.732 6.268-14 14-14z" fill="#97CAD1"/>
        <path fill="#B18A4F" d="M411 169h46v47h-46z"/>
        <path d="M458 185.867a1 1 0 01-2 0V160.5c0-7.456-6.044-13.5-13.5-13.5a1 1 0 010-2c8.56 0 15.5 6.94 15.5 15.5v25.367zm-33.284 31.114a1 1 0 11.1-1.998c.227.011.455.017.684.017h17c7.456 0 13.5-6.044 13.5-13.5v-7.633a1 1 0 112 0v7.633c0 8.56-6.94 15.5-15.5 15.5h-17c-.262 0-.523-.007-.784-.02zM410 167.4a1 1 0 012 0v34.1c0 4.488 2.205 8.603 5.827 11.11a1 1 0 11-1.138 1.644A15.481 15.481 0 01410 201.5v-34.1zm32.5-22.4a1 1 0 010 2h-17.019c-7.067.01-12.918 5.47-13.443 12.476a1 1 0 11-1.994-.15c.603-8.047 7.32-14.315 15.436-14.326h17.02z" fill="#00455D" fill-rule="nonzero"/>
        <path d="M457 181v50.5c0 8.008-6.492 14.5-14.5 14.5h-17c-8.008 0-14.5-6.492-14.5-14.5V181l5 12 10.062.001a8.001 8.001 0 0015.876 0L452 193l5-12z" fill="#FFF"/>
        <path d="M456.077 180.615L451.332 192l-9.394.001a1 1 0 00-.992.876 7.001 7.001 0 01-13.892 0l-.02-.113a1 1 0 00-.972-.763l-9.395-.001-4.744-11.385c-.42-1.009-1.923-.708-1.923.385v50.5c0 8.56 6.94 15.5 15.5 15.5h17c8.56 0 15.5-6.94 15.5-15.5V181c0-1.093-1.503-1.394-1.923-.385zm-3.154 12.77l3.077-7.386V231.5c0 7.456-6.044 13.5-13.5 13.5h-17l-.31-.003c-7.313-.165-13.19-6.145-13.19-13.497v-45.498l3.077 7.383.053.107a1 1 0 00.87.508h9.224l.036.157A9.005 9.005 0 00434 201l.267-.004a9.005 9.005 0 008.473-6.839l.035-.157H452a1 1 0 00.923-.615z" fill="#00455D" fill-rule="nonzero"/>
        <path d="M442 207a1 1 0 01.117 1.993L442 209h-16a1 1 0 01-.117-1.993L426 207h16zM452 180a1 1 0 01.117 1.993L452 182h-36a1 1 0 01-.117-1.993L416 180h36zM448 168a1 1 0 01.117 1.993L448 170h-52a1 1 0 01-.117-1.993L396 168h52z" fill="#00455D" fill-rule="nonzero"/>
        <path d="M431 175a1 1 0 01.993.883L432 176v8a1 1 0 01-1.993.117L430 184v-8a1 1 0 011-1zM437 175a1 1 0 01.993.883L438 176v8a1 1 0 01-1.993.117L436 184v-8a1 1 0 011-1zM440 212a1 1 0 011 1c0 2.867-3.2 5-7 5s-7-2.133-7-5a1 1 0 012 0c0 1.551 2.173 3 5 3 2.741 0 4.868-1.362 4.994-2.86L439 213a1 1 0 011-1zM469 168a1 1 0 01.117 1.993L469 170h-15a1 1 0 01-.117-1.993L454 168h15z" fill="#00455D" fill-rule="nonzero"/>
      </g>
    </g>
    <g>
      <g fill="#00455D" fill-rule="nonzero">
        <path d="M339 191c-10.93 0-19.813 8.769-19.997 19.656L319 211v25a1 1 0 001.993.117L321 236v-25c0-9.941 8.059-18 18-18a17.93 17.93 0 0112.243 4.804 1 1 0 001.36-1.465A19.93 19.93 0 00339 191zm13.738 33.163a1 1 0 00-1.414-.044A17.93 17.93 0 01339 229a1 1 0 00-.993.883L338 230v6a1 1 0 001.993.117L340 236v-5.026l.358-.02a19.917 19.917 0 0012.008-5.076l.328-.301a1 1 0 00.044-1.414zM340 230v.974l-.093.006c-.301.013-.604.02-.907.02l1-1z"/>
        <path d="M344.244 219.516a1 1 0 10-1.05-1.702A8 8 0 11339 203a1 1 0 000-2c-5.523 0-10 4.477-10 10s4.477 10 10 10c1.877 0 3.68-.519 5.244-1.484zM339 201a1 1 0 000 2 8 8 0 017.544 10.67 1 1 0 101.886.666A9.985 9.985 0 00349 211c0-5.523-4.477-10-10-10z"/>
        <path d="M331 210v26a1 1 0 01-2 0v-26a1 1 0 012 0zM340 193H224a1 1 0 110-2h116a1 1 0 010 2zm-124 0h-17a1 1 0 110-2h17a1 1 0 110 2zM292 229h-16a1 1 0 010-2h16a1 1 0 010 2zM252 229h-20a1 1 0 110-2h20a1 1 0 110 2zM225 229h-37a1 1 0 110-2h37a1 1 0 110 2z"/>
      </g>
      <g transform="translate(175 144)">
        <path d="M16 23C8 23 2 28 2 36s8 12 14 12h40c2 0 3-1 3-3s-1-3-3-3h-2V2L43 9 32 2v22c-3.88.656-7.213 2.656-10 6s-4.453 7.344-5 12c-6 0-9-2-9-6 0-4.667 2.667-7 8-7 2 0 3-1 3-3s-2-3-3-3z" fill="#DAD2C7"/>
        <path d="M21.026 28.457a1 1 0 011.465 1.361c-.245.264-.486.538-.723.822-2.66 3.192-4.25 7.01-4.775 11.477L16.89 43H16c-6.487 0-10-2.342-10-7 0-5.155 3.029-7.9 8.683-7.997L15 28c1.448 0 2-.552 2-2 0-1.093-1.134-2-2-2-7.692 0-13 4.777-13 12 0 6.457 6.246 11 13 11h40c1.448 0 2-.552 2-2s-.552-2-2-2h-3V2a1 1 0 012 0v40l-1-1h2c2.552 0 4 1.448 4 4s-1.448 4-4 4H15C7.254 49 0 43.724 0 36c0-8.377 6.248-14 15-14 1.884 0 4 1.693 4 4 0 2.475-1.361 3.911-3.771 3.996L15 30c-4.809 0-7 1.918-7 6 0 3.342 2.487 5 8 5l-.993.883c.569-4.845 2.311-9.027 5.225-12.523.26-.312.524-.613.794-.903zm31.437-27.3a1 1 0 011.074 1.687L42 10.185 30.463 2.844 32 2l-.033 22.848-.83.142c-.848.145-1.666.358-2.456.64a1 1 0 01-.672-1.884c.9-.32 1.83-.563 2.79-.727l.17.985-1-.001L30.002.18l12.534 7.976h-1.074l11-7z" fill="#00455D" fill-rule="nonzero"/>
        <circle fill="#00455D" cx="35.5" cy="14.5" r="1.5"/>
        <circle fill="#00455D" cx="48.5" cy="14.5" r="1.5"/>
        <path d="M40.707 19.707L45.414 15h-6.828l4.707 4.707a1 1 0 001.414-1.414l-3-3L41 17h2l-.707-1.707-3 3a1 1 0 001.414 1.414z" fill="#00455D" fill-rule="nonzero"/>
      </g>
      <g transform="translate(255 142)">
        <path d="M30 11c-9.941 0-18 8.059-18 18v4c0 9.941 8.059 18 18 18s18-8.059 18-18v-4c0-9.941-8.059-18-18-18zm0 2c8.837 0 16 7.163 16 16v4c0 8.837-7.163 16-16 16s-16-7.163-16-16v-4c0-8.837 7.163-16 16-16z" fill="#00455D" fill-rule="nonzero"/>
        <path d="M40.5 1a9.5 9.5 0 019.486 10.014l.244-.01.27-.004a9.5 9.5 0 11-9.486 8.986h-.028a9.5 9.5 0 11-18.973-.001l-.027.002A9.5 9.5 0 113 20.5c0-5.084 3.993-9.235 9.015-9.488a9.5 9.5 0 1118.972.002h.027A9.5 9.5 0 0140.5 1z" fill="#FFAD43"/>
        <path d="M30 10.5C30 4.701 25.299 0 19.5 0c-1.19 0-2.354.198-3.456.582a1 1 0 00.658 1.89A8.486 8.486 0 0119.5 2a8.5 8.5 0 018.5 8.5 1 1 0 002 0zM11.496 3.703A10.46 10.46 0 009 10.5a1 1 0 002 0 8.46 8.46 0 012.02-5.501 1 1 0 10-1.524-1.296z" fill="#00455D" fill-rule="nonzero"/>
        <path d="M13 10h-2.5C4.701 10 0 14.701 0 20.5c0 .248.009.495.026.74a1 1 0 101.995-.139A8.5 8.5 0 0110.5 12h2.499a1 1 0 000-2zM1.87 26.483A10.487 10.487 0 0010.5 31c3.39 0 6.51-1.618 8.475-4.3a1 1 0 10-1.613-1.183A8.485 8.485 0 0110.5 29a8.488 8.488 0 01-6.987-3.658 1 1 0 10-1.642 1.141zm19.072-4.876c.038-.36.057-.722.058-1.087a1 1 0 00-2-.004c0 .296-.016.59-.047.882a1 1 0 001.99.209zM38.5 0C44.299 0 49 4.701 49 10.5a1 1 0 01-2 0 8.5 8.5 0 10-17 0 1 1 0 01-2 0C28 4.701 32.701 0 38.5 0z" fill="#00455D" fill-rule="nonzero"/>
        <path d="M39 19.5a1 1 0 011 1C40 26.299 35.299 31 29.5 31S19 26.299 19 20.5a1 1 0 012 0 8.5 8.5 0 1017 0 1 1 0 011-1z" fill="#00455D" fill-rule="nonzero"/>
        <path d="M38 20.5C38 26.299 42.701 31 48.5 31l.189-.002a1 1 0 10-.036-2L48.5 29a8.5 8.5 0 01-8.5-8.5 1 1 0 00-2 0zm16 8.945c3.082-1.898 5-5.257 5-8.945 0-2.037-.582-3.99-1.66-5.668a1 1 0 10-1.683 1.08A8.455 8.455 0 0157 20.5a8.493 8.493 0 01-4.048 7.243A1 1 0 0054 29.445zm-.759-18.316A10.46 10.46 0 0048.5 10H46a1 1 0 000 2h2.5a8.46 8.46 0 013.837.913 1 1 0 00.904-1.784z" fill="#00455D" fill-rule="nonzero"/>
        <path d="M12 51h34a8 8 0 018 8v29l-5-2h-5v8H4V59a8 8 0 018-8z" fill="#FFAFA6"/>
        <path d="M29.5 41.4c3.038 0 5.5-2.2 5.5-2.75 0-.55-1.1-1.65-3.3-1.65-1.1 0-1.82 1.1-2.2 1.1-.358 0-1.1-1.1-2.2-1.1-2.2 0-3.3 1.1-3.3 1.65 0 .55 2.462 2.75 5.5 2.75z" fill="#C57AA2"/>
        <path d="M43 59v35l1-1H4l1 1V59a8 8 0 018-8h31a1 1 0 000-2H13C7.477 49 3 53.477 3 59v35a1 1 0 001 1h40a1 1 0 001-1V59a1 1 0 00-2 0z" fill="#00455D" fill-rule="nonzero"/>
        <path d="M44 51c4.993 0 9 3.607 9 8v29h2v-1a1 1 0 00-2 0v1c0 1.333 2 1.333 2 0V59c0-5.548-4.947-10-11-10a1 1 0 000 2z" fill="#00455D" fill-rule="nonzero"/>
        <path d="M22 51v8l7-8 8 8v-8" fill="#FFF"/>
        <path d="M21 51v8c0 .923 1.145 1.353 1.753.659l7-8-1.46.048 8 8c.63.63 1.707.184 1.707-.707v-8a1 1 0 00-2 0v8l1.707-.707-8-8a1 1 0 00-1.46.048l-7 8L23 59v-8a1 1 0 00-2 0z" fill="#00455D" fill-rule="nonzero"/>
        <circle fill="#00455D" cx="29.5" cy="59.5" r="1.5"/>
        <circle fill="#00455D" cx="29.5" cy="66.5" r="1.5"/>
        <circle fill="#00455D" cx="29.5" cy="73.5" r="1.5"/>
        <path d="M14 58v28a1 1 0 001 1h32.202a10 10 0 018.944 5.528l.96 1.92L58 93H41a1 1 0 000 2h17a1 1 0 00.894-1.447l-.96-1.92A12 12 0 0047.203 85H15l1 1V58a1 1 0 00-2 0z" fill="#00455D" fill-rule="nonzero"/>
      </g>
    </g>
    <g>
      <path d="M432 85a5 5 0 015 5v1h12.991a13 13 0 017.322 2.258l7.472 5.093.215 26.62-89 .029 6.045-22.838A15 15 0 01396.546 91H402v-1a5 5 0 015-5h5v7h14v-7h6z" fill="#B3C4AC"/>
      <path d="M395 43l-15-15h45a4 4 0 014 4v11" fill="#0098AB"/>
      <path d="M428 91h-19l1 1V81a1 1 0 00-1-1 8 8 0 01-8-8V43a1 1 0 00-.293-.707l-2.794-2.794a1 1 0 00-1.414 1.414l2.794 2.794L399 43v29c0 5.523 4.477 10 10 10l-1-1v11a1 1 0 001 1h19a1 1 0 000-2zm-35.037-56.451l-7.256-7.256L385 29h43a3 3 0 013 3v17.616a1 1 0 002 0V32a5 5 0 00-5-5h-43c-.89 0-1.337 1.077-.707 1.707l7.256 7.256a1 1 0 101.414-1.414zM431 56.616V72a8 8 0 01-8 8 1 1 0 00-1 1v10a1 1 0 002 0V81l-1 1c5.523 0 10-4.477 10-10V56.616a1 1 0 10-2 0z" fill="#00455D" fill-rule="nonzero"/>
      <path d="M424 46a1 1 0 01.117 1.993L424 48h-30a1 1 0 01-.117-1.993L394 46h30zM423 65a1 1 0 011 1 7 7 0 01-7 7 1 1 0 010-2 5 5 0 005-5 1 1 0 011-1z" fill="#00455D" fill-rule="nonzero"/>
      <path d="M415 46a1 1 0 01.993.883L416 47v16a1 1 0 01-1.993.117L414 63V47a1 1 0 011-1zM409 84a1 1 0 01.117 1.993L409 86h-5a4 4 0 00-3.995 3.8L400 90v3a3 3 0 002.824 2.995L403 96h27a3 3 0 002.995-2.824L433 93v-3a4 4 0 00-3.8-3.995L429 86h-6a1 1 0 01-.117-1.993L423 84h6a6 6 0 015.996 5.775L435 90v3a5 5 0 01-4.783 4.995L430 98h-27a5 5 0 01-4.995-4.783L398 93v-3a6 6 0 015.775-5.996L404 84h5z" fill="#00455D" fill-rule="nonzero"/>
      <path d="M405 97a1 1 0 01.993.883L406 98v15a1 1 0 01-1.993.117L404 113V98a1 1 0 011-1zM427 97a1 1 0 01.993.883L428 98v15a1 1 0 01-1.993.117L426 113V98a1 1 0 011-1zM379.917 97.616a1 1 0 111.703 1.048 13.97 13.97 0 00-1.483 3.312l-.125.442-6.045 22.838a1 1 0 01-1.957-.397l.023-.115 6.046-22.838a15.984 15.984 0 011.838-4.29zM446.122 90a16 16 0 019.066 2.816l.345.244 5.244 3.814a1 1 0 01-1.07 1.685l-.106-.067-5.244-3.814a14 14 0 00-7.832-2.672l-.403-.006H434a1 1 0 01-.117-1.993L434 90h12.122zM398 90a1 1 0 01.117 1.993L398 92h-4.454c-2.928 0-5.744.91-8.099 2.58a1 1 0 11-1.157-1.63 15.97 15.97 0 018.839-2.945l.417-.005H398z" fill="#00455D" fill-rule="nonzero"/>
      <g transform="translate(444 63)">
        <path d="M20.559 6.675l4.866-3.406a7 7 0 016.857-.662l6.664 2.962a13 13 0 017.72 11.88v22.224a10 10 0 001.028 4.415L57 63H19l-.333-31.248c0-3.168-.334-5.419-1-6.752-1-2-3.557-2.903-5.46-3.826C6.193 18.257 2.68 15.532 1.667 13 .333 9.667 1 5.667 3.667 1l12.907 6.023a4 4 0 003.985-.348z" fill="#FFF"/>
        <path d="M2.798.504a1 1 0 011.737.992C2.006 5.921 1.39 9.616 2.595 12.63c.87 2.175 4.078 4.7 9.618 7.434l.71.343c.406.19 1.248.578 1.52.71 2.113 1.016 3.384 1.97 4.118 3.437.753 1.505 1.106 3.889 1.106 7.189L20 62.989 19 62h38l-.897 1.442-9.306-18.912a11 11 0 01-1.13-4.857V17.448A12 12 0 0038.54 6.483L31.876 3.52A6 6 0 0026 4.088l-4.867 3.407a5 5 0 01-4.981.434L3.244 1.906A1 1 0 114.09.094l12.906 6.023a3 3 0 002.99-.26l4.866-3.407a8 8 0 017.837-.757l6.664 2.962a14 14 0 018.314 12.793v22.225a9 9 0 00.924 3.973l9.306 18.912A1 1 0 0157 64H19a1 1 0 01-1-.99l-.333-31.258c0-3.025-.314-5.143-.895-6.305-.453-.905-1.34-1.604-2.896-2.383l-.515-.248-1.59-.743c-6.224-3.018-9.9-5.868-11.033-8.702C-.724 9.716-.006 5.412 2.798.504z" fill="#00455D" fill-rule="nonzero"/>
        <path fill="#F6C7D4" d="M21 32h28v5H21z"/>
        <path d="M25.5 46a3.5 3.5 0 100-7 3.5 3.5 0 000 7z" fill="#FFAD43"/>
        <path d="M46.667 31a1 1 0 010 2h-28l1-1v5l-1-1h28l-1 1v-5a1 1 0 112 0v5a1 1 0 01-1 1h-28a1 1 0 01-1-1v-5a1 1 0 011-1h28zM41.167 5.531a1 1 0 01-.813 1.828l-4.568-2.034 1.32-.507-6.1 13.703a5 5 0 109.135 4.068l3.254-7.309a6 6 0 00-3.041-7.921 1 1 0 11.813-1.828 8 8 0 014.055 10.563l-3.254 7.308a7 7 0 01-12.79-5.694L35.28 4.005a1 1 0 011.32-.507l4.568 2.033z" fill="#00455D" fill-rule="nonzero"/>
        <circle fill="#00455D" cx="27.667" cy="9" r="2"/>
        <path d="M2 7c1.652.507 2.985.507 4 0 1.015-.507 1.681-1.507 2-3L4 2 2 7z" fill="#00455D"/>
      </g>
    </g>
    <g>
      <path d="M321 114v.415a5.627 5.627 0 010 10.42v.415h19.375a5.625 5.625 0 100-11.25H321z" fill="#78A38B"/>
      <path d="M268 112a1 1 0 00-.117 1.993L268 114h49.5a5.5 5.5 0 01.221 10.996l-.221.004H268a1 1 0 00-.117 1.993L268 127h49.5a7.5 7.5 0 00.243-14.996L317.5 112H268z" fill="#00455D" fill-rule="nonzero"/>
      <path d="M290 112a1 1 0 00-.117 1.993L290 114h49.5a5.5 5.5 0 01.221 10.996l-.221.004H290a1 1 0 00-.117 1.993L290 127h49.5a7.5 7.5 0 00.243-14.996L339.5 112H290z" fill="#00455D" fill-rule="nonzero"/>
      <path d="M318 115a1 1 0 00-.993.883L317 116v7a1 1 0 001.993.117L319 123v-7a1 1 0 00-1-1zM271 113a1 1 0 00-.993.883L270 114v11a1 1 0 001.993.117L272 125v-11a1 1 0 00-1-1z" fill="#00455D" fill-rule="nonzero"/>
      <g transform="matrix(-1 0 0 1 342 94)">
        <path d="M30 1a9 9 0 000 18H10a9 9 0 010-18h20z" fill="#947F5F"/>
        <path d="M69 0a1 1 0 01.117 1.993L69 2H10a8 8 0 00-.25 15.996L10 18h59a1 1 0 01.117 1.993L69 20H10C4.477 20 0 15.523 0 10 0 4.57 4.327.152 9.72.004L10 0h59z" fill="#00455D" fill-rule="nonzero"/>
        <path d="M69 0a1 1 0 01.117 1.993L69 2H30a8 8 0 00-.25 15.996L30 18h39a1 1 0 01.117 1.993L69 20H30c-5.523 0-10-4.477-10-10C20 4.57 24.327.152 29.72.004L30 0h39z" fill="#00455D" fill-rule="nonzero"/>
        <path d="M66 1a1 1 0 01.993.883L67 2v17a1 1 0 01-1.993.117L65 19V2a1 1 0 011-1zM28 4a1 1 0 01.993.883L29 5v10a1 1 0 01-1.993.117L27 15V5a1 1 0 011-1z" fill="#00455D" fill-rule="nonzero"/>
        <path d="M58 9a1 1 0 01.117 1.993L58 11H29a1 1 0 01-.117-1.993L29 9h29z" fill="#00455D" fill-rule="nonzero"/>
        <ellipse fill="#FFF" opacity=".3" cx="11.5" cy="9.5" rx="4.5" ry="3.5"/>
      </g>
      <path d="M321 85v.1a5.002 5.002 0 010 9.8v.1h11a5 5 0 100-10h-11z" fill="#008294"/>
      <path d="M281 84a1 1 0 00-.117 1.993L281 86h38a4 4 0 01.2 7.995L319 94h-38a1 1 0 00-.117 1.993L281 96h38a6 6 0 00.225-11.996L319 84h-38z" fill="#00455D" fill-rule="nonzero"/>
      <path d="M295 84a1 1 0 00-.117 1.993L295 86h38a4 4 0 01.2 7.995L333 94h-38a1 1 0 00-.117 1.993L295 96h38a6 6 0 00.225-11.996L333 84h-38zM284 84a1 1 0 00-.993.883L283 85v9a1 1 0 001.993.117L285 94v-9a1 1 0 00-1-1z" fill="#00455D" fill-rule="nonzero"/>
      <path d="M319 87a1 1 0 00-.993.883L318 88v4a1 1 0 001.993.117L320 92v-4a1 1 0 00-1-1z" fill="#00455D" fill-rule="nonzero"/>
      <path d="M319 68h-25v9a8 8 0 008 8h9a8 8 0 008-8v-9z" fill="#F6C7D4"/>
      <path d="M328 69v1a6 6 0 01-6 6 1 1 0 000 2 8 8 0 007.996-7.75L330 70v-2a1 1 0 00-.883-.993L329 67h-35a1 1 0 00-.993.883L293 68v9a9 9 0 008.735 8.996L302 86h9a9 9 0 008.996-8.735L320 77v-8h8zm-33 0h23v8a7 7 0 01-6.76 6.996L311 84h-9a7 7 0 01-6.996-6.76L295 77v-8zM310.34 60.751c-1.831-1.61-2.629-3.604-2.332-5.88.18-1.38.609-2.272 1.52-3.498l.394-.517c.68-.888.955-1.371 1.1-2.061.268-1.28.017-2.282-.755-3.115a1 1 0 111.466-1.36c1.228 1.323 1.644 2.988 1.246 4.885-.205.975-.56 1.65-1.282 2.62l-.38.497c-.856 1.115-1.188 1.753-1.325 2.808-.21 1.6.326 2.94 1.668 4.119a1 1 0 01-1.32 1.502zM302.215 63.751c-1.831-1.61-2.629-3.604-2.332-5.88.18-1.38.609-2.272 1.52-3.498l.394-.517c.68-.888.955-1.371 1.1-2.061.268-1.28.017-2.282-.755-3.115a1 1 0 111.466-1.36c1.228 1.323 1.644 2.988 1.246 4.885-.205.975-.56 1.65-1.282 2.62l-.38.497c-.856 1.115-1.188 1.753-1.325 2.808-.21 1.6.326 2.94 1.668 4.119a1 1 0 01-1.32 1.502z" fill="#00455D" fill-rule="nonzero"/>
      <g>
        <path d="M216 40h36v26.5c0 8.008-6.492 14.5-14.5 14.5h-7c-8.008 0-14.5-6.492-14.5-14.5V40z" fill="#DBB49F"/>
        <path d="M226 34c7.732 0 14-6.268 14-14s-6.268-14-14-14-14 6.268-14 14 6.268 14 14 14z" fill="#B18A4F"/>
        <path d="M221.453 34.298a1 1 0 11.605-1.906c1.263.401 2.588.608 3.942.608 7.18 0 13-5.82 13-13s-5.82-13-13-13a1 1 0 010-2c8.284 0 15 6.716 15 15 0 8.284-6.716 15-15 15-1.56 0-3.09-.239-4.547-.702zM226 5a1 1 0 010 2c-7.18 0-13 5.82-13 13a12.94 12.94 0 002.936 8.23 1 1 0 11-1.547 1.267A14.94 14.94 0 01211 20c0-8.284 6.716-15 15-15z" fill="#00455D" fill-rule="nonzero"/>
        <path fill="#C57AA2" d="M213 125h50l-16-28h-20z"/>
        <path d="M243.517 96.124a1 1 0 011.296.294l.063.099 16 29a1 1 0 01-.764 1.477L260 127h-51a1 1 0 01-.936-1.353l.048-.106 15-29a1 1 0 011.824.812l-.048.106L210.643 125h47.663l-15.182-27.517a1 1 0 01.294-1.296l.099-.063z" fill="#00455D" fill-rule="nonzero"/>
        <path fill="#DBB49F" d="M228 82h12v15l-6 20-6-20z"/>
        <path d="M240 81h-12a1 1 0 00-1 1v15a1 1 0 00.042.287l6 20c.285.95 1.63.95 1.916 0l6-20A1 1 0 00241 97V82a1 1 0 00-1-1zm-1 2v13.852l-5 16.668-5-16.665V83h10z" fill="#00455D" fill-rule="nonzero"/>
        <path d="M230 22h8c7.732 0 14 6.268 14 14v5h-36v-5c0-7.732 6.268-14 14-14z" fill="#B18A4F"/>
        <path d="M237.5 22h-7c-8.56 0-15.5 6.94-15.5 15.5v30c0 8.56 6.94 15.5 15.5 15.5h7c8.56 0 15.5-6.94 15.5-15.5v-30c0-8.56-6.94-15.5-15.5-15.5zm-7 2h7c7.456 0 13.5 6.044 13.5 13.5v30c0 7.456-6.044 13.5-13.5 13.5h-7c-7.456 0-13.5-6.044-13.5-13.5v-30c0-7.456 6.044-13.5 13.5-13.5z" fill="#00455D" fill-rule="nonzero"/>
        <path d="M222 65c0 6.075 4.925 11 11 11s11-4.925 11-11h-22z" fill="#FFF"/>
        <path d="M244 64h-22a1 1 0 00-1 1c0 6.627 5.373 12 12 12s12-5.373 12-12a1 1 0 00-1-1zm-1.051 2l-.01.108C242.39 71.109 238.15 75 233 75l-.28-.004c-5.021-.138-9.118-3.978-9.66-8.888l-.01-.108h19.899zM234.051 41.684a1 1 0 011.928.52l-.03.112-5 15a1 1 0 01-1.928-.52l.03-.112 5-15zM222 40.5a1 1 0 01.117 1.993L222 42.5h-11a1 1 0 01-.117-1.993L211 40.5h11z" fill="#00455D" fill-rule="nonzero"/>
        <path d="M251 40.5a1 1 0 01.117 1.993L251 42.5h-23a1 1 0 01-.117-1.993L228 40.5h23zM220.697 102.047a1 1 0 011.214.54l.042.11 7 22a1 1 0 01-1.864.715l-.042-.109-7-22a1 1 0 01.65-1.256zM246.043 102.709a1 1 0 011.941.469l-.027.113-7 23a1 1 0 01-1.941-.469l.027-.113 7-23zM252.035 113.737a1 1 0 011.954.412l-.024.114-3 11a1 1 0 01-1.954-.412l.024-.114 3-11zM214.658 114.06a1 1 0 011.236.491l.046.107 4 11a1 1 0 01-1.834.791l-.046-.107-4-11a1 1 0 01.598-1.282z" fill="#00455D" fill-rule="nonzero"/>
      </g>
    </g>
  </g>
</svg>
