<svg version="1.1" id="Layer_1" xmlns="http://www.w3.org/2000/svg" xmlns:xlink="http://www.w3.org/1999/xlink" x="0px" y="0px"
	 width="100%" viewBox="0 0 179 179" enable-background="new 0 0 179 179" xml:space="preserve">
<path fill="#FDFDFE" opacity="1.000000" stroke="none" 
	d="
M1.000000,137.000000 
	C1.000000,91.765533 1.000000,46.531067 1.000000,1.000000 
	C22.353312,1.000000 43.707996,1.000000 65.387955,1.365570 
	C63.928967,2.118733 62.137096,2.474533 60.361607,2.898845 
	C42.878193,7.077076 30.964447,23.919254 33.184639,41.301849 
	C35.508690,59.497593 50.555080,72.957161 68.575409,72.960228 
	C86.397591,72.963257 101.994972,59.231152 103.919312,41.843105 
	C105.943253,23.555040 94.526627,7.117768 76.873558,2.899874 
	C74.247635,2.272455 71.624451,1.633576 69.000000,1.000000 
	C105.937164,1.000000 142.874329,1.000000 180.000000,1.000000 
	C180.000000,49.687397 180.000000,98.375038 179.624512,147.372650 
	C176.594513,123.343956 156.606644,103.347839 137.588486,106.487160 
	C140.796402,111.264771 142.740814,116.066429 149.138077,118.520958 
	C160.437958,122.856560 166.908188,132.279343 168.830933,144.258514 
	C171.149948,158.706589 163.214096,169.500977 149.933426,169.550552 
	C144.117065,169.572250 139.633667,170.654953 136.587860,175.775116 
	C135.743607,177.194351 134.863602,178.592285 134.000000,180.000000 
	C125.979103,180.000000 117.958199,180.000000 109.488083,179.785522 
	C109.038857,179.571045 109.117508,179.147598 109.518494,179.109314 
	C124.341103,177.228821 136.706879,165.241135 139.045609,150.835434 
	C143.998383,120.328178 119.972572,91.436241 89.013817,90.851891 
	C77.190170,90.628723 65.358734,90.736526 53.531471,90.803444 
	C28.965677,90.942429 8.355984,107.623039 2.874923,131.649002 
	C2.457227,133.479950 1.634473,135.218506 1.000000,137.000000 
M96.996727,72.764282 
	C94.415123,74.207977 94.207329,75.800873 95.944756,78.345871 
	C102.345650,87.721985 114.807228,92.543648 126.711533,89.960724 
	C142.312195,86.575806 152.290100,70.632790 148.870010,54.555264 
	C145.542969,38.915180 129.699234,28.814356 114.054672,32.491287 
	C114.054672,35.543552 114.054672,38.628010 114.054672,41.717319 
	C128.214905,41.275036 136.049454,46.174225 138.558334,56.886044 
	C140.581009,65.521896 136.135330,75.307709 127.730042,78.747559 
	C124.117523,80.225990 119.652138,80.525627 115.711914,80.096519 
	C108.968010,79.362076 104.755852,74.528587 101.484390,68.755005 
	C100.017609,70.053146 98.777435,71.150734 96.996727,72.764282 
z"/>
<path fill="#3A424B" opacity="1.000000" stroke="none" 
	d="
M1.000000,137.460632 
	C1.634473,135.218506 2.457227,133.479950 2.874923,131.649002 
	C8.355984,107.623039 28.965677,90.942429 53.531471,90.803444 
	C65.358734,90.736526 77.190170,90.628723 89.013817,90.851891 
	C119.972572,91.436241 143.998383,120.328178 139.045609,150.835434 
	C136.706879,165.241135 124.341103,177.228821 109.046684,179.037979 
	C84.802208,179.009277 61.430466,178.993362 38.058960,179.060196 
	C36.371758,179.065018 34.686279,179.672653 33.000000,180.000000 
	C32.555557,180.000000 32.111111,180.000000 31.182461,179.652893 
	C15.092644,175.724640 5.480561,166.178589 1.983145,150.510742 
	C1.860517,149.961380 1.336784,149.501556 0.999999,149.000000 
	C1.000000,145.307098 1.000000,141.614182 1.000000,137.460632 
M57.516357,100.642380 
	C30.183764,98.781845 12.936125,119.941238 11.354882,141.062286 
	C10.201409,156.469528 21.054504,169.508560 36.450977,169.665649 
	C59.254177,169.898315 82.063156,169.887787 104.866455,169.659698 
	C117.434631,169.533981 126.901337,161.139359 129.286911,148.839294 
	C133.524979,126.987732 114.922501,102.474411 92.454811,101.007637 
	C81.180389,100.271606 69.828270,100.725922 57.516357,100.642380 
z"/>
<path fill="#3A424C" opacity="1.000000" stroke="none" 
	d="
M68.625000,1.000000 
	C71.624451,1.633576 74.247635,2.272455 76.873558,2.899874 
	C94.526627,7.117768 105.943253,23.555040 103.919312,41.843105 
	C101.994972,59.231152 86.397591,72.963257 68.575409,72.960228 
	C50.555080,72.957161 35.508690,59.497593 33.184639,41.301849 
	C30.964447,23.919254 42.878193,7.077076 60.361607,2.898845 
	C62.137096,2.474533 63.928967,2.118733 65.856613,1.365570 
	C66.750000,1.000000 67.500000,1.000000 68.625000,1.000000 
M89.228127,52.632996 
	C95.711502,43.178387 96.157463,33.383350 90.192101,23.655590 
	C84.549072,14.453471 73.945526,9.905062 63.473347,12.255731 
	C52.796604,14.652316 45.992077,21.457867 43.478287,32.182590 
	C40.908325,43.147015 46.692600,54.980278 56.945034,60.200726 
	C68.042091,65.851250 79.618507,63.313248 89.228127,52.632996 
z"/>
<path fill="#3A424C" opacity="1.000000" stroke="none" 
	d="
M134.468414,180.000000 
	C134.863602,178.592285 135.743607,177.194351 136.587860,175.775116 
	C139.633667,170.654953 144.117065,169.572250 149.933426,169.550552 
	C163.214096,169.500977 171.149948,158.706589 168.830933,144.258514 
	C166.908188,132.279343 160.437958,122.856560 149.138077,118.520958 
	C142.740814,116.066429 140.796402,111.264771 137.588486,106.487160 
	C156.606644,103.347839 176.594513,123.343956 179.624512,147.841309 
	C180.000000,149.388885 180.000000,150.777786 179.640808,152.704926 
	C177.172699,164.483582 171.457489,172.991516 160.690750,177.603409 
	C158.517120,178.534470 156.233109,179.207825 154.000000,180.000000 
	C147.645599,180.000000 141.291214,180.000000 134.468414,180.000000 
z"/>
<path fill="#FCFCFC" opacity="1.000000" stroke="none" 
	d="
M0.999999,149.468658 
	C1.336784,149.501556 1.860517,149.961380 1.983145,150.510742 
	C5.480561,166.178589 15.092644,175.724640 30.849127,179.652893 
	C21.072283,180.000000 11.144567,180.000000 1.000000,180.000000 
	C1.000000,169.980148 1.000000,159.958725 0.999999,149.468658 
z"/>
<path fill="#FBFBFB" opacity="1.000000" stroke="none" 
	d="
M154.468658,180.000000 
	C156.233109,179.207825 158.517120,178.534470 160.690750,177.603409 
	C171.457489,172.991516 177.172699,164.483582 179.640808,153.121582 
	C180.000000,161.925034 180.000000,170.850052 180.000000,180.000000 
	C171.647125,180.000000 163.292221,180.000000 154.468658,180.000000 
z"/>
<path fill="#9A9EA3" opacity="1.000000" stroke="none" 
	d="
M33.468658,180.000000 
	C34.686279,179.672653 36.371758,179.065018 38.058960,179.060196 
	C61.430466,178.993362 84.802208,179.009277 108.645706,179.076263 
	C109.117508,179.147598 109.038857,179.571045 109.019424,179.785522 
	C83.979103,180.000000 58.958210,180.000000 33.468658,180.000000 
z"/>
<path fill="#3A424C" opacity="1.000000" stroke="none" 
	d="
M97.266998,72.506302 
	C98.777435,71.150734 100.017609,70.053146 101.484390,68.755005 
	C104.755852,74.528587 108.968010,79.362076 115.711914,80.096519 
	C119.652138,80.525627 124.117523,80.225990 127.730042,78.747559 
	C136.135330,75.307709 140.581009,65.521896 138.558334,56.886044 
	C136.049454,46.174225 128.214905,41.275036 114.054672,41.717319 
	C114.054672,38.628010 114.054672,35.543552 114.054672,32.491287 
	C129.699234,28.814356 145.542969,38.915180 148.870010,54.555264 
	C152.290100,70.632790 142.312195,86.575806 126.711533,89.960724 
	C114.807228,92.543648 102.345650,87.721985 95.944756,78.345871 
	C94.207329,75.800873 94.415123,74.207977 97.266998,72.506302 
z"/>
<path fill="#FEFEFE" opacity="1.000000" stroke="none" 
	d="
M58.013821,100.642151 
	C69.828270,100.725922 81.180389,100.271606 92.454811,101.007637 
	C114.922501,102.474411 133.524979,126.987732 129.286911,148.839294 
	C126.901337,161.139359 117.434631,169.533981 104.866455,169.659698 
	C82.063156,169.887787 59.254177,169.898315 36.450977,169.665649 
	C21.054504,169.508560 10.201409,156.469528 11.354882,141.062286 
	C12.936125,119.941238 30.183764,98.781845 58.013821,100.642151 
z"/>
<path fill="#FDFDFD" opacity="1.000000" stroke="none" 
	d="
M89.012321,52.925323 
	C79.618507,63.313248 68.042091,65.851250 56.945034,60.200726 
	C46.692600,54.980278 40.908325,43.147015 43.478287,32.182590 
	C45.992077,21.457867 52.796604,14.652316 63.473347,12.255731 
	C73.945526,9.905062 84.549072,14.453471 90.192101,23.655590 
	C96.157463,33.383350 95.711502,43.178387 89.012321,52.925323 
z"/>
</svg>