<svg width="151" height="142" viewBox="0 0 151 142" fill="none" xmlns="http://www.w3.org/2000/svg">
<path fill-rule="evenodd" clip-rule="evenodd" d="M95.215 27.3427C91.6264 25.8033 87.9116 24.7691 84.0889 24.2124C80.1733 23.6432 76.2063 23.5049 72.2402 23.7221C66.4805 24.0376 60.8121 24.8909 55.2179 26.3212C48.997 27.9114 43.1711 30.3843 37.9109 34.0505C35.9795 35.3967 34.073 36.8562 32.5572 38.7325C31.4108 40.1518 30.0272 41.4058 29.0442 42.9245C27.6136 45.1337 26.296 47.4463 25.2019 49.8395C23.0002 54.6516 22.2526 59.7673 22.7254 65.0286C22.9835 67.9072 23.2356 70.8135 23.8621 73.6249C24.5126 76.5409 25.5807 79.367 26.5249 82.2136C27.3236 84.6243 28.1637 87.0228 29.0633 89.3978C30.3787 92.8701 31.5598 96.4144 33.1683 99.75C35.2164 103.998 37.3053 108.276 40.5598 111.799C43.7141 115.214 47.4097 117.917 51.8534 119.33C55.7437 120.567 59.7388 120.607 63.7731 119.704C68.2302 118.707 71.9715 116.42 75.2801 113.459C77.697 111.296 79.7985 108.782 81.6729 106.1C83.2178 103.891 84.7286 101.642 86.4684 99.5928C88.3002 97.4355 90.1217 95.2402 92.3724 93.4708C95.5643 90.9607 98.7651 88.4605 101.914 85.8966C104.679 83.6432 107.091 81.0372 109.333 78.2588C111.172 75.98 112.622 73.4729 113.698 70.7815C115.718 65.7209 116.896 60.5177 116.151 54.9851C115.709 51.6952 115.167 48.4537 113.762 45.4266C113.078 43.9514 112.324 42.4956 111.456 41.1237C110.399 39.4532 109.189 37.8808 108.534 36.9564C104.356 32.4035 100.117 29.445 95.215 27.3427Z" fill="#E6A386"/>
<g style="mix-blend-mode:multiply">
<path fill-rule="evenodd" clip-rule="evenodd" d="M138.019 114.892C136.05 116.584 133.739 117.746 131.302 118.705C127.814 120.077 124.329 121.458 120.797 122.741C118.54 123.562 116.265 124.387 113.883 124.901C110.644 125.6 107.255 125.75 103.724 125.248C100.473 124.785 97.2929 123.844 94.1721 122.37C91.3817 121.052 88.7878 119.33 86.327 117.264C83.4465 114.845 80.9825 112.065 78.8907 108.974C77.1724 106.435 75.8255 103.699 74.8309 100.864C73.0327 95.7378 72.4375 90.673 73.1418 85.7594C73.5933 82.6137 74.5374 79.6891 76.0377 77.0394C77.3429 74.7344 78.9836 72.7503 80.8623 71.0085C82.3573 69.622 84.1486 68.59 86.0146 67.6765C88.2417 66.5866 90.6425 65.9092 93.1718 65.5733C97.131 65.048 101.198 65.4572 105.35 66.7468C108.681 67.781 111.853 69.3712 114.95 71.1974C116.362 72.0301 117.666 73.1211 119.018 74.0963C120.903 75.4551 122.797 76.8003 124.67 78.1804C126.415 79.466 128.153 80.7652 129.866 82.1025C132.036 83.7979 134.203 85.4963 136.16 87.4947C138.008 89.3825 139.612 91.4417 140.879 93.7221C142.173 96.0508 142.971 98.4947 143.293 101.008C143.798 104.947 143.035 108.38 141.182 111.379C140.334 112.752 139.23 113.876 138.019 114.892Z" fill="#97CAD1"/>
</g>
<path d="M60.3906 59.039C60.3906 55.3737 63.362 52.4023 67.0273 52.4023H110.788C116.548 52.4023 121.217 57.0716 121.217 62.8314V96.249C121.217 102.009 116.548 106.678 110.788 106.678H70.8197C65.0599 106.678 60.3906 102.009 60.3906 96.249V59.039Z" fill="white"/>
<rect x="57.5781" y="49.6016" width="60.8262" height="54.2757" rx="8.53288" stroke="#00455D" stroke-width="2.84429" stroke-linecap="round" stroke-linejoin="round"/>
<path d="M74.4219 44.9199V54.7457" stroke="#00455D" stroke-width="2.84429" stroke-linecap="round" stroke-linejoin="round"/>
<path d="M101.562 44.9199V54.7457" stroke="#00455D" stroke-width="2.84429" stroke-linecap="round" stroke-linejoin="round"/>
<path d="M58.9844 67.377H117.939" stroke="#00455D" stroke-width="2.84429" stroke-linecap="round" stroke-linejoin="round"/>
<circle cx="68.8091" cy="74.8599" r="1.87158" fill="#E6E6E6"/>
<circle cx="68.8091" cy="84.2173" r="1.87158" fill="#E6E6E6"/>
<path d="M76.8573 82.9102L77.4421 83.1791C77.9449 83.4102 78.5235 83.4102 79.0263 83.1791L79.6111 82.9102L79.3422 83.495C79.1111 83.9978 79.1111 84.5764 79.3422 85.0792L79.6111 85.664L79.0263 85.3951C78.5235 85.164 77.9449 85.164 77.4421 85.3951L76.8573 85.664L77.1262 85.0792C77.3573 84.5764 77.3573 83.9978 77.1262 83.495L76.8573 82.9102Z" stroke="#00455D" stroke-width="1.8962" stroke-linecap="round" stroke-linejoin="round"/>
<path d="M67.4979 92.2696L68.0827 92.5384C68.5855 92.7696 69.1642 92.7696 69.6669 92.5384L70.2517 92.2696L69.9829 92.8544C69.7517 93.3572 69.7517 93.9358 69.9829 94.4386L70.2517 95.0234L69.6669 94.7545C69.1642 94.5234 68.5855 94.5234 68.0827 94.7545L67.4979 95.0234L67.7668 94.4386C67.998 93.9358 67.998 93.3572 67.7668 92.8544L67.4979 92.2696Z" stroke="#00455D" stroke-width="1.8962" stroke-linecap="round" stroke-linejoin="round"/>
<path d="M95.576 92.2696L96.1609 92.5384C96.6636 92.7696 97.2423 92.7696 97.7451 92.5384L98.3299 92.2696L98.061 92.8544C97.8298 93.3572 97.8298 93.9358 98.061 94.4386L98.3299 95.0234L97.7451 94.7545C97.2423 94.5234 96.6636 94.5234 96.1609 94.7545L95.576 95.0234L95.8449 94.4386C96.0761 93.9358 96.0761 93.3572 95.8449 92.8544L95.576 92.2696Z" stroke="#00455D" stroke-width="1.8962" stroke-linecap="round" stroke-linejoin="round"/>
<circle cx="78.1684" cy="74.8599" r="1.87158" fill="#E6E6E6"/>
<circle cx="78.1684" cy="93.5767" r="1.87158" fill="#E6E6E6"/>
<circle cx="87.5278" cy="74.8599" r="1.87158" fill="#E6E6E6"/>
<circle cx="87.5278" cy="84.2173" r="1.87158" fill="#E6E6E6"/>
<circle cx="87.5278" cy="93.5767" r="1.87158" fill="#E6E6E6"/>
<circle cx="96.8872" cy="74.8599" r="1.87158" fill="#E6E6E6"/>
<path d="M104.865 73.4825L105.45 73.7513C105.953 73.9825 106.531 73.9825 107.034 73.7513L107.619 73.4825L107.35 74.0673C107.119 74.57 107.119 75.1487 107.35 75.6515L107.619 76.2363L107.034 75.9674C106.531 75.7363 105.953 75.7362 105.45 75.9674L104.865 76.2363L105.134 75.6515C105.365 75.1487 105.365 74.57 105.134 74.0673L104.865 73.4825Z" stroke="#00455D" stroke-width="1.8962" stroke-linecap="round" stroke-linejoin="round"/>
<circle cx="96.8872" cy="84.2173" r="1.87158" fill="#E6E6E6"/>
<circle cx="106.239" cy="84.2173" r="1.87158" fill="#E6E6E6"/>
<circle cx="106.239" cy="93.5767" r="1.87158" fill="#E6E6E6"/>
</svg>
