<svg version="1.1" id="Layer_1" xmlns="http://www.w3.org/2000/svg" xmlns:xlink="http://www.w3.org/1999/xlink" x="0px" y="0px"
	 width="100%" viewBox="0 0 156 200" enable-background="new 0 0 156 200" xml:space="preserve">
<path fill="#FEFEFE" opacity="1.000000" stroke="none" 
	d="
M1.000000,152.000000 
	C1.000000,101.766045 1.000000,51.532085 1.000000,1.000000 
	C24.353382,1.000000 47.708035,1.000000 71.371506,1.342722 
	C55.216438,5.043952 43.394508,17.737080 40.483185,35.181622 
	C37.850086,50.959045 45.682884,67.895592 59.914154,75.882393 
	C73.189682,83.332802 86.812714,83.274818 99.602280,74.892578 
	C113.504616,65.781029 119.645683,52.325634 117.587341,35.887802 
	C115.554405,19.652847 106.333412,8.567573 90.893181,2.828997 
	C89.260994,2.222373 87.631004,1.609810 86.000000,1.000000 
	C109.620148,1.000000 133.240295,1.000000 157.000000,1.000000 
	C157.000000,51.354145 157.000000,101.708412 156.644470,152.361160 
	C151.746597,121.887184 127.546501,101.035324 96.339401,101.012451 
	C84.520874,101.003784 72.702332,101.004936 60.883801,101.011299 
	C32.550198,101.026543 9.222659,119.582695 2.826605,147.124985 
	C2.437388,148.801010 1.618802,150.377304 1.000000,152.000000 
z"/>
<path fill="#39414B" opacity="1.000000" stroke="none" 
	d="
M1.000000,152.428467 
	C1.618802,150.377304 2.437388,148.801010 2.826605,147.124985 
	C9.222659,119.582695 32.550198,101.026543 60.883801,101.011299 
	C72.702332,101.004936 84.520874,101.003784 96.339401,101.012451 
	C127.546501,101.035324 151.746597,121.887184 156.644470,152.829819 
	C157.000000,154.066666 157.000000,155.133347 156.698212,156.850494 
	C156.597595,160.000656 156.798798,162.500320 157.000000,165.000000 
	C157.000000,166.066666 157.000000,167.133347 156.645660,168.716568 
	C153.284378,181.011200 146.903488,190.366241 136.185257,196.341721 
	C132.680481,198.295654 128.740799,199.469437 125.000000,201.000000 
	C96.645775,201.000000 68.291542,201.000000 39.323799,200.773499 
	C38.140186,200.697998 37.570095,200.848999 37.000000,201.000000 
	C35.611111,201.000000 34.222221,201.000000 32.275452,200.659744 
	C15.929839,195.714310 5.953897,185.518372 2.005546,169.491501 
	C1.870895,168.944931 1.344045,168.494980 1.000001,168.000000 
	C1.000000,166.933334 1.000000,165.866653 1.294016,164.173080 
	C1.392022,161.697449 1.196011,159.848724 1.000000,158.000000 
	C1.000000,156.285645 1.000000,154.571289 1.000000,152.428467 
M23.780716,185.860703 
	C29.073494,187.574890 34.339638,190.667313 39.663559,190.770218 
	C65.966187,191.278595 92.284721,191.101364 118.596375,190.947357 
	C131.530869,190.871643 143.082703,181.505661 146.044998,168.828232 
	C151.687347,144.681320 133.398636,112.559418 100.524895,111.127472 
	C87.060677,110.540977 73.549957,110.909752 60.061695,111.013077 
	C38.292831,111.179825 19.776249,124.959381 13.261515,145.668457 
	C7.982188,162.450424 11.190261,175.281326 23.780716,185.860703 
z"/>
<path fill="#3A434C" opacity="1.000000" stroke="none" 
	d="
M85.535355,1.000000 
	C87.631004,1.609810 89.260994,2.222373 90.893181,2.828997 
	C106.333412,8.567573 115.554405,19.652847 117.587341,35.887802 
	C119.645683,52.325634 113.504616,65.781029 99.602280,74.892578 
	C86.812714,83.274818 73.189682,83.332802 59.914154,75.882393 
	C45.682884,67.895592 37.850086,50.959045 40.483185,35.181622 
	C43.394508,17.737080 55.216438,5.043952 71.840164,1.342722 
	C76.356903,1.000000 80.713799,1.000000 85.535355,1.000000 
M89.326805,12.897076 
	C87.734665,12.443715 86.162399,11.897550 84.547241,11.551667 
	C71.569344,8.772469 57.977928,16.003338 52.386765,28.624382 
	C46.443550,42.040112 50.938351,57.747589 63.126465,66.155220 
	C74.134506,73.748817 89.015617,72.419418 98.831696,62.965488 
	C114.527481,47.848778 110.249542,23.490660 89.326805,12.897076 
z"/>
<path fill="#FCFCFC" opacity="1.000000" stroke="none" 
	d="
M1.000001,168.468658 
	C1.344045,168.494980 1.870895,168.944931 2.005546,169.491501 
	C5.953897,185.518372 15.929839,195.714310 31.858788,200.659744 
	C21.737831,201.000000 11.475662,201.000000 1.000000,201.000000 
	C1.000000,190.313385 1.000000,179.625351 1.000001,168.468658 
z"/>
<path fill="#FCFCFC" opacity="1.000000" stroke="none" 
	d="
M125.468658,201.000000 
	C128.740799,199.469437 132.680481,198.295654 136.185257,196.341721 
	C146.903488,190.366241 153.284378,181.011200 156.645660,169.116562 
	C157.000000,179.593201 157.000000,190.186417 157.000000,201.000000 
	C146.646820,201.000000 136.292068,201.000000 125.468658,201.000000 
z"/>
<path fill="#646A72" opacity="1.000000" stroke="none" 
	d="
M157.000000,164.555832 
	C156.798798,162.500320 156.597595,160.000656 156.698212,157.250488 
	C157.000000,159.370560 157.000000,161.741104 157.000000,164.555832 
z"/>
<path fill="#686E75" opacity="1.000000" stroke="none" 
	d="
M1.000000,158.428467 
	C1.196011,159.848724 1.392022,161.697449 1.294016,163.773087 
	C1.000000,162.285645 1.000000,160.571289 1.000000,158.428467 
z"/>
<path fill="#3D454E" opacity="1.000000" stroke="none" 
	d="
M37.333336,201.000000 
	C37.570095,200.848999 38.140186,200.697998 38.855141,200.773499 
	C38.555553,201.000000 38.111111,201.000000 37.333336,201.000000 
z"/>
<path fill="#FEFEFE" opacity="1.000000" stroke="none" 
	d="
M23.490528,185.640076 
	C11.190261,175.281326 7.982188,162.450424 13.261515,145.668457 
	C19.776249,124.959381 38.292831,111.179825 60.061695,111.013077 
	C73.549957,110.909752 87.060677,110.540977 100.524895,111.127472 
	C133.398636,112.559418 151.687347,144.681320 146.044998,168.828232 
	C143.082703,181.505661 131.530869,190.871643 118.596375,190.947357 
	C92.284721,191.101364 65.966187,191.278595 39.663559,190.770218 
	C34.339638,190.667313 29.073494,187.574890 23.490528,185.640076 
z"/>
<path fill="#FEFEFE" opacity="1.000000" stroke="none" 
	d="
M89.702316,13.009532 
	C110.249542,23.490660 114.527481,47.848778 98.831696,62.965488 
	C89.015617,72.419418 74.134506,73.748817 63.126465,66.155220 
	C50.938351,57.747589 46.443550,42.040112 52.386765,28.624382 
	C57.977928,16.003338 71.569344,8.772469 84.547241,11.551667 
	C86.162399,11.897550 87.734665,12.443715 89.702316,13.009532 
z"/>
</svg>