<?xml version="1.0" encoding="UTF-8"?>
<svg
  width="281"
  height="274"
  viewBox="0 0 281 274"
  fill="none"
  xmlns="http://www.w3.org/2000/svg"
>
  <g>
    <path
      fill-rule="evenodd"
      clip-rule="evenodd"
      d="M237.843 252.696C251.548 240.976 260.622 228.935 267.28 214.886C272.155 204.602 275.575 193.905 277.617 182.85C279.706 171.526 280.548 160.014 280.356 148.471C280.076 131.708 278.222 115.161 274.682 98.7763C270.746 80.5559 264.199 63.4016 254.118 47.781C250.417 42.0456 246.383 36.3719 241.093 31.795C237.092 28.3334 233.598 24.1981 229.29 21.2019C223.023 16.8419 216.442 12.8005 209.603 9.40101C195.85 2.56033 181.054 -0.0833049 165.699 0.804987C157.298 1.28914 148.817 1.75341 140.57 3.31447C132.017 4.93534 123.679 7.77778 115.295 10.2582C108.195 12.3565 101.125 14.5759 94.118 16.9704C83.8728 20.4718 73.4331 23.5764 63.5532 27.9419C50.9717 33.5002 38.298 39.1746 27.6903 48.3048C17.4059 57.154 9.13576 67.6417 4.5343 80.4215C0.50596 91.61 -0.0528907 103.213 2.12626 115.018C4.53136 128.059 10.7685 139.139 19.0142 149.025C25.0379 156.246 32.1182 162.584 39.7104 168.277C45.9643 172.969 52.3401 177.566 58.1062 182.81C64.1779 188.33 70.3613 193.825 75.2581 200.527C82.2054 210.032 89.1227 219.562 96.2311 228.946C102.479 237.189 109.791 244.437 117.624 251.205C124.049 256.758 131.18 261.204 138.889 264.576C153.384 270.915 168.387 274.816 184.562 273.163C194.179 272.182 203.667 270.904 212.628 267.102C216.994 265.251 221.312 263.195 225.398 260.799C230.374 257.884 235.082 254.513 237.843 252.696Z"
      fill="#F7EBEB"
    />
  </g>
</svg>