<svg width="338" height="240" viewBox="0 0 338 240" xmlns="http://www.w3.org/2000/svg"><g fill="none" fill-rule="evenodd"><path fill="#FFF" d="M0 240h338V0H0z"/><path d="M60.1 123.763c2.42-8.201 5.878-15.914 10.3-23.15 4.531-7.41 9.867-14.308 15.806-20.714 8.626-9.301 18.038-17.704 28.328-25.182 11.442-8.316 23.831-14.741 37.455-18.557 5.003-1.401 10.163-2.603 15.485-2.567 4.024.028 8.1-.574 12.064-.133 5.768.642 11.552 1.617 17.16 3.082 11.28 2.943 21.031 8.766 29.318 16.853 4.535 4.425 9.125 8.877 13.027 13.83 4.048 5.14 7.355 10.86 10.872 16.4 2.98 4.69 5.88 9.434 8.656 14.245 4.06 7.034 8.431 13.94 11.847 21.282 4.35 9.347 8.693 18.805 10.116 29.189 1.381 10.065.788 20.058-3.049 29.529-3.359 8.29-8.902 15.102-16.104 20.673-7.955 6.155-17.1 9.313-26.783 10.807-7.075 1.089-14.303 1.16-21.498.615-5.927-.448-15.802 1.2-21.73 1.304-6.243.109-12.536.147-18.707 1.502-8.753 1.92-13.576 1.659-22.359 3.43-7.718 1.556-15.539 2.025-23.413 1.966a64.358 64.358 0 0 1-18.85-2.978c-11.448-3.593-21.953-8.81-30.319-17.733-4.977-5.305-9.729-10.713-12.906-17.281-1.548-3.2-2.966-6.492-4.08-9.861-1.359-4.1-2.335-8.324-2.988-10.712-1.877-13.373-.957-24.638 2.352-35.84z" fill-opacity=".5" fill="#87CBD1"/><path fill="#FFF" d="M124.746 173.906l.79-.052.787.034.79-.035.79.012.788-.015.79.074.79-.079.79.024.791.041.792-.05.791.042.793.017.792-.067.791.012.791.003.791.03.79-.05.791.002.79.071.79-.04.79.03.79.011.79-.043h.791l.79.023.791.012.791-.053.791.03.792.015.793-.043.792.002.792-.023.791.017.792.011.791.045.79.007.791-.064.791-.002.791.037.792-.008.791.04.791-.042.793-.023.792.026.791-.004.791.018.79-.025.788-.013.79-.007.787.016.787-.008h.788l.788.015.79.018.788-.044.79.035.79.012.79.005.792-.01.793.028.794-.025.793-.054.791.08.792-.003.79-.018.791-.058.791.054.791.011.793-.005.793-.01.796-.009.793.017.792-.019.793.014.793-.014.793-.036.794.008.796.06.794-.069.793-.006.794.055.796-.009.795.012.79-.03.794.003.795-.01.794-.018.792.075.793-.03.797-.028.795.062.795-.018.798-.035.797-.016.796.046.795-.03.8.025.8-.015.8.031.803-.05.777-.022.775-.09.751-.216.706-.33.703-.327.67-.4.62-.475.527-.576.51-.59.425-.656.311-.714.335-.707.136-.769.144-.764.043-.777.044-.79-.012-.79-.066-.792.067-.792-.05-.79.022-.793.026-.793-.053-.792.012-.793.003-.793.047-.792-.013-.792-.029-.792-.006-.79.003-.792.026-.79-.024-.79-.036-.792.067-.79-.02-.79.02-.79.01-.789-.03-.79-.035-.789.044-.789.025-.789-.067-.789.033-.79-.01-.789.041-.789-.079-.789.017-.79.01-.789-.028-.789.086-.79-.002-.789-.02-.79-.045-.79-.013-.79.052-.79.028-.792-.057-.79-.006-.793-.007-.79.055-.794.002-.792.005-.793-.073-.793.037-.794-.03-.794.016-.793.015-.793.028-.793-.064-.792.026-.792-.03-.792.008-.79.001-.793.004-.79.012-.792-.01-.79.025-.792-.023-.79.038-.792-.028-.79-.027-.792.041-.792.004-.79.011-.793.008-.792-.014-.793.012-.792-.004-.793v-1.588l-.008-.795-.025-.794.005-.794.051-.793-.024-.793-.037-.793.013-.792.02-.792-.013-.793-.026-.792v-.792l.017-.793.014-.792-.013-.793.041-.793-.02-.793-.006-.794-.022-.794-.027-.795.02-.795.051-.794.005-.793-.074-.794.057-.793-.02-.793.04-.793-.015-.794-.046-.793-.008-.794.026-.794.047-.793-.055-.794.013-.795-.025-.794.053-.792-.003-.792-.003-.79-.017-.792-.005-.79.017-.79-.036-.79.01-.79-.025-.792.068-.79-.07-.792.065-.792-.018-.793.03-.794-.072-.796.003-.796-.013-.795.018-.794.06-.794-.028-.793-.043-.793.012-.793.004-.793.024-.795-.03-.796.046-.798-.004-.796.018-.795-.026-.794.023-.795.003-.796-.076-.797.037-.797.01-.796-.004-.796.031-.797.001-.797v-.797l-.055-.793-.01-.796-.006-.798.014-.795-.018-.794.046-.796.022-.799-.062-.798.032-.797.004-.8.002-.799-.006-.799-.013-.797.058-.8-.06-.803.011-.805-.012-.805-.06-.773-.067-.776-.248-.739-.243-.739-.343-.7-.473-.62-.45-.634-.544-.56-.608-.489-.683-.375-.667-.4-.73-.27-.749-.216-.777-.076-.774-.05-.789-.027h-.789l-.789-.02-.789-.009-.789.068-.79-.04-.79-.022-.79.016-.792-.007-.79.031-.793.031-.792-.025-.792-.032-.79.028-.792-.02-.79.046-.79-.036-.792.03-.79.002-.79-.02-.79.03-.79-.024-.79-.029-.79.02-.79-.014-.792.004-.79-.026-.793.026-.792-.004-.792.022-.792-.049-.792.02-.792.04-.79-.007-.792-.035-.79.007-.792.016-.79-.04-.79.06-.793-.064-.79.08-.793-.03-.792-.02-.792.018-.792-.05-.79.078-.79-.007-.788-.053-.789.004-.788.05-.788.004-.787-.05h-.788l-.788-.028-.79.015h-.789l-.79.01-.79.053-.793-.038-.793-.013-.794.005-.793-.019-.792.031-.79.026-.792-.04-.79-.026-.79.06-.793-.054-.792-.006-.794.077-.794-.004-.794-.042-.793-.02-.792.064-.793-.04-.793.037-.795-.002-.795-.073-.794.021-.794.03-.794.01-.795-.007-.795-.003-.79.02-.794-.005-.796-.053h-.793l-.792-.003-.793.067-.797-.02-.795.005-.795-.039-.798-.009-.797.054-.796-.015-.795-.028-.799.04-.8-.046-.802.004-.802.017-.773.078-.776.071-.76.183-.733.271-.678.391-.66.413-.612.484-.512.588-.512.585-.462.63-.302.721-.306.716-.18.758-.143.765-.02.78.021.79-.038.791-.016.791-.016.791.07.792-.023.792-.003.792-.016.793.031.793-.02.792.033.793-.07.791.031.792-.03.791.065.791-.039.791.026.791-.004.79.031.79-.067.79.061.79-.01.79-.038.79-.005.788.031.79-.022.79-.027.788.005.79.002.79.074.788-.026.79.013.788-.004.79.004.79-.055.788.016.79.042.79-.015.79v.79l-.055.791.048.791-.014.791.004.791-.02.792.057.792-.049.792.037.793-.006.794-.015.793-.03.794.021.793.03.793-.035.793-.018.792-.005.792.056.792-.029.792.028.791-.007.791.007.791-.047.791.008.791-.007.791-.008.792.017.791.04.791-.017.791-.045.792.036.792-.023.792.005.792.014.793-.018.793.014.794v.794l-.033.794.03.794-.007.794-.017.794.072.793-.059.792.045.792.003.793-.006.792-.024.792-.014.793.027.792-.014.792-.01.793.032.793-.022.794.028.793-.055.795.01.795-.013.794.05.794.012.794-.02.793.025.794.005.793-.06.793.004.793.06.793-.05.794.014.794-.028.794-.008.794-.013.794.04.794.016.793-.042.792.064.791-.03.791-.046.79.004.79.067.79-.047.79.044.791-.048.791.02.791-.023.792-.016.793.003.795.022.796.048.796-.014.795-.056.794.006.793.035.793-.014.793.025.793.003.794-.057.795.015.796-.015.797.031.796.006.795.016.795-.007.795.028.795-.046.797.011.797-.034.797.002.796.006.796.028.797v.798l.037.792-.032.796.017.798-.048.795.036.795-.054.795.03.8.011.797.014.798.014.8.015.8-.032.797.02.797-.008.801-.058.803.062.804-.044.805.038.78.161.762.185.756.274.728.378.681.38.682.524.577.535.565.62.471.63.458.71.318.724.283.755.178.763.151z"/><path stroke="#00465F" stroke-width="1.25" stroke-linecap="round" stroke-linejoin="round" d="M124.746 173.906l.79-.052.787.034.79-.035.79.012.788-.015.79.074.79-.079.79.024.791.041.792-.05.791.042.793.017.792-.067.791.012.791.003.791.03.79-.05.791.002.79.071.79-.04.79.03.79.011.79-.043h.791l.79.023.791.012.791-.053.791.03.792.015.793-.043.792.002.792-.023.791.017.792.011.791.045.79.007.791-.064.791-.002.791.037.792-.008.791.04.791-.042.793-.023.792.026.791-.004.791.018.79-.025.788-.013.79-.007.787.016.787-.008h.788l.788.015.79.018.788-.044.79.035.79.012.79.005.792-.01.793.028.794-.025.793-.054.791.08.792-.003.79-.018.791-.058.791.054.791.011.793-.005.793-.01.796-.009.793.017.792-.019.793.014.793-.014.793-.036.794.008.796.06.794-.069.793-.006.794.055.796-.009.795.012.79-.03.794.003.795-.01.794-.018.792.075.793-.03.797-.028.795.062.795-.018.798-.035.797-.016.796.046.795-.03.8.025.8-.015.8.031.803-.05.777-.022.775-.09.751-.216.706-.33.703-.327.67-.4.62-.475.527-.576.51-.59.425-.656.311-.714.335-.707.136-.769.144-.764.043-.777.044-.79-.012-.79-.066-.792.067-.792-.05-.79.022-.793.026-.793-.053-.792.012-.793.003-.793.047-.792-.013-.792-.029-.792-.006-.79.003-.792.026-.79-.024-.79-.036-.792.067-.79-.02-.79.02-.79.01-.789-.03-.79-.035-.789.044-.789.025-.789-.067-.789.033-.79-.01-.789.041-.789-.079-.789.017-.79.01-.789-.028-.789.086-.79-.002-.789-.02-.79-.045-.79-.013-.79.052-.79.028-.792-.057-.79-.006-.793-.007-.79.055-.794.002-.792.005-.793-.073-.793.037-.794-.03-.794.016-.793.015-.793.028-.793-.064-.792.026-.792-.03-.792.008-.79.001-.793.004-.79.012-.792-.01-.79.025-.792-.023-.79.038-.792-.028-.79-.027-.792.041-.792.004-.79.011-.793.008-.792-.014-.793.012-.792-.004-.793v-1.588l-.008-.795-.025-.794.005-.794.051-.793-.024-.793-.037-.793.013-.792.02-.792-.013-.793-.026-.792v-.792l.017-.793.014-.792-.013-.793.041-.793-.02-.793-.006-.794-.022-.794-.027-.795.02-.795.051-.794.005-.793-.074-.794.057-.793-.02-.793.04-.793-.015-.794-.046-.793-.008-.794.026-.794.047-.793-.055-.794.013-.795-.025-.794.053-.792-.003-.792-.003-.79-.017-.792-.005-.79.017-.79-.036-.79.01-.79-.025-.792.068-.79-.07-.792.065-.792-.018-.793.03-.794-.072-.796.003-.796-.013-.795.018-.794.06-.794-.028-.793-.043-.793.012-.793.004-.793.024-.795-.03-.796.046-.798-.004-.796.018-.795-.026-.794.023-.795.003-.796-.076-.797.037-.797.01-.796-.004-.796.031-.797.001-.797v-.797l-.055-.793-.01-.796-.006-.798.014-.795-.018-.794.046-.796.022-.799-.062-.798.032-.797.004-.8.002-.799-.006-.799-.013-.797.058-.8-.06-.803.011-.805-.012-.805-.06-.773-.067-.776-.248-.739-.243-.739-.343-.7-.473-.62-.45-.634-.544-.56-.608-.489-.683-.375-.667-.4-.73-.27-.749-.216-.777-.076-.774-.05-.789-.027h-.789l-.789-.02-.789-.009-.789.068-.79-.04-.79-.022-.79.016-.792-.007-.79.031-.793.031-.792-.025-.792-.032-.79.028-.792-.02-.79.046-.79-.036-.792.03-.79.002-.79-.02-.79.03-.79-.024-.79-.029-.79.02-.79-.014-.792.004-.79-.026-.793.026-.792-.004-.792.022-.792-.049-.792.02-.792.04-.79-.007-.792-.035-.79.007-.792.016-.79-.04-.79.06-.793-.064-.79.08-.793-.03-.792-.02-.792.018-.792-.05-.79.078-.79-.007-.788-.053-.789.004-.788.05-.788.004-.787-.05h-.788l-.788-.028-.79.015h-.789l-.79.01-.79.053-.793-.038-.793-.013-.794.005-.793-.019-.792.031-.79.026-.792-.04-.79-.026-.79.06-.793-.054-.792-.006-.794.077-.794-.004-.794-.042-.793-.02-.792.064-.793-.04-.793.037-.795-.002-.795-.073-.794.021-.794.03-.794.01-.795-.007-.795-.003-.79.02-.794-.005-.796-.053h-.793l-.792-.003-.793.067-.797-.02-.795.005-.795-.039-.798-.009-.797.054-.796-.015-.795-.028-.799.04-.8-.046-.802.004-.802.017-.773.078-.776.071-.76.183-.733.271-.678.391-.66.413-.612.484-.512.588-.512.585-.462.63-.302.721-.306.716-.18.758-.143.765-.02.78.021.79-.038.791-.016.791-.016.791.07.792-.023.792-.003.792-.016.793.031.793-.02.792.033.793-.07.791.031.792-.03.791.065.791-.039.791.026.791-.004.79.031.79-.067.79.061.79-.01.79-.038.79-.005.788.031.79-.022.79-.027.788.005.79.002.79.074.788-.026.79.013.788-.004.79.004.79-.055.788.016.79.042.79-.015.79v.79l-.055.791.048.791-.014.791.004.791-.02.792.057.792-.049.792.037.793-.006.794-.015.793-.03.794.021.793.03.793-.035.793-.018.792-.005.792.056.792-.029.792.028.791-.007.791.007.791-.047.791.008.791-.007.791-.008.792.017.791.04.791-.017.791-.045.792.036.792-.023.792.005.792.014.793-.018.793.014.794v.794l-.033.794.03.794-.007.794-.017.794.072.793-.059.792.045.792.003.793-.006.792-.024.792-.014.793.027.792-.014.792-.01.793.032.793-.022.794.028.793-.055.795.01.795-.013.794.05.794.012.794-.02.793.025.794.005.793-.06.793.004.793.06.793-.05.794.014.794-.028.794-.008.794-.013.794.04.794.016.793-.042.792.064.791-.03.791-.046.79.004.79.067.79-.047.79.044.791-.048.791.02.791-.023.792-.016.793.003.795.022.796.048.796-.014.795-.056.794.006.793.035.793-.014.793.025.793.003.794-.057.795.015.796-.015.797.031.796.006.795.016.795-.007.795.028.795-.046.797.011.797-.034.797.002.796.006.796.028.797v.798l.037.792-.032.796.017.798-.048.795.036.795-.054.795.03.8.011.797.014.798.014.8.015.8-.032.797.02.797-.008.801-.058.803.062.804-.044.805.038.78.161.762.185.756.274.728.378.681.38.682.524.577.535.565.62.471.63.458.71.318.724.283.755.178.763.151z"/><path fill="#FFF" d="M127.832 144.667h73.033V41.112h-73.033z"/><path stroke="#00465F" stroke-width="1.283" stroke-linecap="round" stroke-linejoin="round" d="M127.832 144.667h73.033V41.112h-73.033z"/><path fill="#FFF" d="M164.064 154.129l-.764.058-.746.172-.71.287-.66.387-.59.488-.51.57-.406.648-.305.7-.183.744-.062.762.062.764.187.742.297.705.414.643.509.57.588.49.66.387.71.284.746.172.763.056.765-.054.745-.174.71-.284.658-.39.594-.484.506-.574.41-.646.302-.702.184-.742.063-.763-.065-.763-.182-.743-.3-.704-.415-.643-.505-.574-.591-.486-.66-.39-.71-.284-.745-.172z"/><path stroke="#00465F" stroke-width="1.25" stroke-linecap="round" stroke-linejoin="round" d="M164.064 154.129l-.764.058-.746.172-.71.287-.66.387-.59.488-.51.57-.406.648-.305.7-.183.744-.062.762.062.764.187.742.297.705.414.643.509.57.588.49.66.387.71.284.746.172.763.056.765-.054.745-.174.71-.284.658-.39.594-.484.506-.574.41-.646.302-.702.184-.742.063-.763-.065-.763-.182-.743-.3-.704-.415-.643-.505-.574-.591-.486-.66-.39-.71-.284-.745-.172z"/><path d="M161.94 34.926h2.214l-.632-.005-.8-.006-.781.01zm8.772-.002l-.802-.008-.57.009h5.325l-.75-.008-.801.002-.803.003-.8-.007-.8.009zm-11.983.002l-.797-.01-.798.008-.327.002h3.33l-.61-.01-.798.01zm-3.991-.004l-.742.005h2.094l-.552-.01-.8.005zm-4.78.005h1.4l-.603-.01-.796.01zm24.826-.002h1.913l-.377-.004-.803-.002-.733.006zm-9.503 0h1.898l-.463-.004-.8-.001-.635.006zm2.578 0h.9l-.445-.004-.455.004zm-7.221 0h1.249l-.76-.003-.49.004zm-8.292-.003l-.513.005h2.053l-.743-.005h-.797zm24.35.003l.429.004.806-.004.808-.001h-2.042zm-2.031 0h.119-.12zm-5.905 0l.35.004.23-.004h-.58zm-1.581 0l.338.004.342-.004h-.68zm-3.025 0l.169.002h.8l.158-.001h-1.127zm-4.016 0l.188.004.312-.003h-.5zm-4.048.002l.247.004.47-.005h-.717zm-2.204 0h.11-.11zm-2.528 0l.193.003.282-.003h-.475z" fill="#FFF"/><path stroke="#00465F" stroke-width="1.25" stroke-linecap="round" stroke-linejoin="round" d="M149.96 34.927l.794-.009.796.011.796-.008.796.001.797.005.798-.005.8-.005.8.013.797-.007.797-.006.798.01.797-.01.8.011.8-.006.8.004.797-.012.8.007.8.006h.8l.794-.008.798.002.801.008.797-.009.797.008.8-.012.801.008.8-.009.8.006.802-.002.802-.002.801.008.8-.006.803.001.805.008.807-.003h.807"/><path fill="#FA6666" style="mix-blend-mode:multiply" d="M201.195 46.745l-.729-.044-.748.009-.749-.016-.748.036-.747-.029-.748.043-.747-.005-.747-.028-.748.04-.746-.018-.748.009-.747-.018-.747.021-.748.008-.749-.045-.75.012-.748.015-.749.005-.75.008-.749.006-.748-.058-.748.016-.749-.013-.747.01-.748.042-.75-.037-.747-.013-.748.014-.749-.001-.75-.015-.749.027-.75-.02-.748.047-.747-.042-.746.002-.747.041-.746-.033-.745-.006-.746-.018-.745.056-.745-.044-.745.03-.746.002-.746.006-.748-.02-.747-.029-.75.054-.75-.014-.751-.019-.75.007-.75-.002-.747.009-.747-.003-.748-.023-.748.028-.749-.03-.75-.009-.75.027-.752-.028-.751.023-.75.021-.749-.037-.75.025-.75-.027-.751.039-.752-.035-.751.041-.75.008-.752-.06-.752.045-.752-.015-.752-.005-.75-.008-.752.015-.75-.006-.749-.026-.75.06-.753-.044-.752.036-.752.008-.755-.004-.753-.015-.753-.04-.75.031-.756.005-.756.006-.759-.01-.77-.015.027.842.004.829v.829l-.038.83.005.831.03.831-.042.831.05.832-.029.832.014.832-.028.832-.006.831.04.831-.004.831v.83l-.032.831.018.83-.023.829.035.83-.018.829.017.829-.025.83-.007.829.01.829.006.83.025.829.005.83-.041.83.02.83.006.83-.006.831-.021.831.012.831.032.832-.004.833-.014.833-.01.832.002.833.018.832-.014.831-.001.831-.011.831.014.83.017.831-.012.831-.017.83.018.831-.02.831.029.831-.034.831-.005.832.012.832-.009.833-.011.833.002.833.016.833.012.832v.832l-.01.831-.003.832.03.832-.027.831.023.832-.013.832.002.832-.022.833-.004.834.043.833.004.832.003.83-.008.831-.017.829-.028.829.034.829-.02.828-.003.828.026.828-.022.829.021.829.012.83.001.831-.05.831.017.833.031.834-.035.835-.004.833.016.833.002.831.014.832-.025.831.009.832.02.832-.042.833.033.835v.836l-.005.834.01.833.006.834-.022.833-.01.834.007.835.006.836.004.835-.023.835.023.834-.025.837.002.836-.004.835.048.834-.03.836-.006.833v.833l.027.834-.037.837.017.836.015.836-.012.839.01.837-.018.837.033.835-.006.84-.018.841-.028.843.037.831.737-.008.749.008.748-.014.748.048.748-.036.747.026.747-.018.748.019.746-.018.748-.013.748.007.747.023.747.002.748.009.748-.054.749.023.749.007.75.023.749-.014.75-.028.748.044.748-.015.748-.015.748-.023.748.019.748-.013.747.052.749-.018.75.008.749-.019.75-.008.749.018.748-.018.748-.02.747.03.745-.013.746-.009.746.016.745-.018.745.025.745.022.746-.04.745-.014.747.033.747-.015.748-.008.749.04.75.008.75-.024.751.017.749-.05.748.051.749-.05.747.049.748-.02.748-.016.75.019h.75l.752-.033.75-.001.751.021.75.016.749-.016.751-.015.751.048.753-.02.75-.011.751.016.75-.04.753.016.752.018.751-.01.75-.007.752-.008.75.01.75-.006.75-.012.753.04.752-.04.752.013.754-.004.753.011.753.013.751-.021.755-.012.757.055.76-.039.761.018-.007-.834.005-.83.026-.829-.05-.83.015-.831.021-.83.005-.832-.04-.831-.002-.833.023-.832-.017-.832-.007-.831.017-.831-.005-.831.02-.83-.013-.83.02-.83-.039-.83.036-.829.006-.83-.036-.829.003-.829.018-.83.003-.829-.028-.829.04-.83-.02-.829-.02-.83.027-.831-.006-.83-.007-.831.011-.831-.024-.831.016-.832.016-.833-.03-.833.04-.832-.001-.832-.004-.832.012-.831-.04-.832-.012-.831v-1.661l.012-.83.017-.831.006-.831-.013-.83.003-.832.012-.831-.014-.832.02-.832-.02-.833.026-.833-.02-.833-.014-.833-.008-.832.004-.832.033-.831-.006-.832-.04-.831.008-.832.02-.831-.004-.832.02-.833-.032-.833.03-.833.008-.833-.029-.832-.023-.831.03-.83.02-.83-.008-.829-.037-.828.047-.829-.022-.828-.016-.828.012-.829-.02-.829.012-.83.022-.83-.012-.832v-.833l-.02-.834.007-.835.037-.833-.023-.832-.001-.832-.018-.831.007-.832.008-.831.013-.832-.034-.833.042-.835.006-.836-.025-.835.008-.833.005-.833-.011-.834-.007-.834.03-.835-.029-.836.01-.835.016-.834-.006-.835.013-.836-.032-.836.015-.835-.025-.834-.004-.837.025-.833-.002-.833-.005-.834-.011-.837.013-.836.022-.836-.04-.839.01-.837.03-.836-.049-.836.044-.839-.04-.841.034-.844z"/><path d="M75.439 71.91a6.267 6.267 0 0 0-8.816.91l9.725 7.907a6.266 6.266 0 0 0-.91-8.817" fill="#F2DCC9"/><path d="M68.224 77.756a6.267 6.267 0 1 0-1.11-3.563M79.546 92.41a6.267 6.267 0 1 0-1.734 3.305" stroke="#353E48" stroke-width="1.445" stroke-linecap="round" stroke-linejoin="bevel"/><path d="M70.719 106.204a6.267 6.267 0 0 0 .909 8.816l7.907-9.726a6.267 6.267 0 0 0-8.816.91" fill="#F2DCC9"/><path d="M76.565 113.418a6.267 6.267 0 1 0-3.563 1.111" stroke="#353E48" stroke-width="1.445" stroke-linecap="round" stroke-linejoin="bevel"/><path d="M85.308 74.193h23.297M85.308 91.417h33.825M85.308 107.62h35.587" stroke="#009AAD" stroke-width="6" stroke-linecap="square" stroke-linejoin="round"/><path d="M85.308 73.193h23.825M84.308 91.417h33.825M86.308 106.62h33.825" stroke="#00465F" stroke-width="1.25" stroke-linecap="square" stroke-linejoin="round"/><path stroke="#FA6666" stroke-width="1.25" stroke-linecap="round" stroke-linejoin="round" d="M70.32 73.325l3.77 3.771 10.995-10.994M70.32 89.323l3.77 3.77L85.086 82.1M70.32 107.548l3.77 3.771 10.995-10.994"/><path d="M146.966 215.2l.066-11.364c-27.723-2.91-29.708-21.12-29.708-21.12v-14.11l60.676.383h8.727c-1.138-10.155 6.173-19.309 16.327-20.446-11.247 1.26-20.594-10.252-21.853-21.499l38.265-.054v44.69c0 15.54-10.922 29.194-26.214 31.953-.413.074-.832.142-1.257.203l-.026 6.495" fill="#009AAD"/><path d="M146.966 215.2l.066-11.364c-27.723-2.91-29.708-21.12-29.708-21.12v-14.11l60.676.383h8.727c-1.138-10.155 6.173-19.309 16.327-20.446-11.247 1.26-20.594-10.252-21.853-21.499l38.265-.054v44.69c0 15.54-10.922 29.194-26.214 31.953-.413.074-.832.142-1.257.203l-.026 6.495" stroke="#353E48" stroke-width="1.25" stroke-linecap="round" stroke-linejoin="round"/><path d="M141.602 161.64a9.155 9.155 0 0 1-9.155 9.155h-18.33a9.155 9.155 0 1 1 0-18.31h18.33a9.155 9.155 0 0 1 9.155 9.155" fill="#009AAD"/><path d="M141.602 161.64h0a9.155 9.155 0 0 1-9.155 9.155h-18.33a9.155 9.155 0 1 1 0-18.31h18.33a9.155 9.155 0 0 1 9.155 9.155z" stroke="#00465F" stroke-width="1.25" stroke-linecap="round" stroke-linejoin="round"/><path d="M141.602 143.371a9.155 9.155 0 0 1-9.155 9.155h-18.33a9.155 9.155 0 1 1 0-18.31h18.33a9.155 9.155 0 0 1 9.155 9.155" fill="#009AAD"/><path d="M141.602 143.371h0a9.155 9.155 0 0 1-9.155 9.155h-18.33a9.155 9.155 0 1 1 0-18.31h18.33a9.155 9.155 0 0 1 9.155 9.155z" stroke="#00465F" stroke-width="1.25" stroke-linecap="round" stroke-linejoin="round"/><path d="M138.774 124.621v.722a8.795 8.795 0 0 1-8.795 8.794h-16.223a8.795 8.795 0 0 1-8.794-8.795v-.72a8.795 8.795 0 0 1 8.794-8.796h16.223a8.795 8.795 0 0 1 8.795 8.795" fill="#009AAD"/><path d="M138.774 124.621v.722a8.795 8.795 0 0 1-8.795 8.794h-16.223a8.795 8.795 0 0 1-8.794-8.795v-.72a8.795 8.795 0 0 1 8.794-8.796h16.223a8.795 8.795 0 0 1 8.795 8.795z" stroke="#00465F" stroke-width="1.201" stroke-linecap="round" stroke-linejoin="round"/><path d="M136.255 179.21v1.388a8.46 8.46 0 0 1-8.46 8.461h-14.373a8.46 8.46 0 0 1-8.46-8.46v-1.39a8.46 8.46 0 0 1 8.46-8.46h14.372a8.46 8.46 0 0 1 8.461 8.46" fill="#009AAD"/><path d="M136.255 179.21v1.388a8.46 8.46 0 0 1-8.46 8.461h-14.373a8.46 8.46 0 0 1-8.46-8.46v-1.39a8.46 8.46 0 0 1 8.46-8.46h14.372a8.46 8.46 0 0 1 8.461 8.46z" stroke="#00465F" stroke-width="1.155" stroke-linecap="round" stroke-linejoin="round"/><path d="M173.969 180.847h32a6 6 0 0 1 6 6v28a6 6 0 0 1-6 6h-32a6 6 0 0 1-6-6v-28a6 6 0 0 1 6-6" fill="#FFF"/><path d="M173.969 180.847h32a6 6 0 0 1 6 6v28a6 6 0 0 1-6 6h-32a6 6 0 0 1-6-6v-28a6 6 0 0 1 6-6zm2 12h28m-19-16v8m10-8v8" stroke="#00465F" stroke-width="1.25" stroke-linecap="round" stroke-linejoin="round"/><path stroke="#FA6666" stroke-width="1.25" stroke-linecap="round" stroke-linejoin="round" d="M191.969 208.847l4 4 8-10"/><path d="M183.898 107.489c-.442-2.827-5.677-.647-6-3.745-.457-4.395 6.078-13.868 5.562-17.546-.463-3.311-2.694-4.004-4.635-4.04-1.885-.033-2.384.268-3.021.639-.368.213-.896.635-1.63-.062-.487-.465-.81-.79-1.325-1.201-.263-.211-.68-.475-1.381-.578-.702-.103-1.61 0-2.186.247-.578.248-1.031.68-1.506 1.094-.474.412-1.678 1.759-2.8 1.262-.486-.215-2.133-1.038-3.322-1.552-2.295-.994-5.605.616-6.797 2.734-1.773 3.153-5.274 15.538-5.805 17.17-1.19 3.669 1.507 6.659 5.143 6.487 1.537-.073 2.559-.635 3.53-2.4.562-1.02 5.833-14.79 6.225-15.45.284-.48 1.233-1.111 2.038-.7.803.414.964 1.274.845 2.084-.193 1.31-3.911 9.71-4.053 10.66-.242 1.618.525 2.517 2.202 2.604 1.15.062 2.296-.352 3.205-2.067.509-.96 6.372-12.702 6.89-13.486.57-.86 1.029-1.143 1.609-1.113.45.022 1.172.138.992 1.489-.177 1.324-4.891 9.94-5.385 12.05-.662 2.82.886 5.677 3.436 6.927 1.627.797 8.743 2.163 8.169-1.507" fill="#FFF"/><path d="M228.712 147.482a8.394 8.394 0 0 1 0-16.215 8.394 8.394 0 0 1 0 16.215m19.49-15.087l-29.388-10.019c-6.456 2.94-10.946 9.442-10.946 17 0 10.312 18.674 32.462 18.674 32.462h4.34s18.674-22.15 18.674-32.463c0-2.469-.484-4.823-1.354-6.98" fill="#F2DCC9"/><path d="M223.6 163.908c2.814 3.73 4.935 6.246 4.935 6.246s18.673-22.151 18.673-32.464c0-10.314-8.36-18.675-18.673-18.675-10.314 0-18.675 8.36-18.675 18.675 0 5.746 5.797 15.166 10.93 22.384" stroke="#353E48" stroke-width="1.509" stroke-linecap="round" stroke-linejoin="bevel"/><path stroke="#353E48" stroke-width="1.509" stroke-linecap="round" stroke-linejoin="bevel" d="M224.643 130.254l-.607.353-.578.4-.543.446-.501.493-.462.53-.407.572-.371.597-.306.632-.263.651-.206.673-.142.688-.09.697-.03.703.04.732.095.726.15.716.229.696.279.677.333.652.4.613.446.581.493.541.538.496.58.448.619.39.646.343.679.275.697.225.716.151.725.102.733.034.73-.037.727-.098.716-.153.698-.224.676-.279.648-.34.617-.395.58-.446.539-.495.494-.539.449-.579.392-.618.345-.646.278-.677.218-.699.155-.715.095-.726.036-.732-.037-.73-.087-.729-.16-.715-.225-.697-.275-.678-.344-.647-.395-.616-.44-.585-.5-.537-.538-.494-.58-.447-.616-.394-.651-.335-.673-.286-.701-.217-.713-.159-.727-.095-.731-.032m4.977 40.858s13.867-17.133 17.209-28.28"/></g></svg>