<svg width="160" height="152" viewBox="0 0 160 152" fill="none" xmlns="http://www.w3.org/2000/svg"><path fill-rule="evenodd" clip-rule="evenodd" d="M146.693 123.238c-2.101 1.814-4.567 3.061-7.166 4.089-3.72 1.472-7.437 2.953-11.205 4.33-2.407.88-4.834 1.765-7.374 2.316-3.456.751-7.07.911-10.837.372a35.188 35.188 0 01-10.189-3.087c-2.976-1.414-5.743-3.26-8.368-5.476-3.072-2.595-5.7-5.577-7.932-8.893a37.953 37.953 0 01-4.33-8.699c-1.918-5.498-2.553-10.93-1.802-16.2.482-3.375 1.489-6.512 3.089-9.354 1.392-2.473 3.142-4.6 5.146-6.47 1.595-1.486 3.506-2.593 5.496-3.573 2.376-1.17 4.936-1.896 7.634-2.256 4.223-.564 8.561-.124 12.99 1.259 3.554 1.11 6.937 2.815 10.24 4.773 1.506.894 2.897 2.064 4.34 3.11 2.01 1.457 4.03 2.9 6.028 4.38a247.185 247.185 0 015.542 4.208c2.315 1.818 4.626 3.64 6.714 5.783 1.971 2.025 3.683 4.234 5.034 6.68a21.769 21.769 0 012.575 7.816c.539 4.224-.275 7.906-2.252 11.124-.905 1.472-2.082 2.678-3.373 3.768z" fill="#7A1D47"></path><path fill-rule="evenodd" clip-rule="evenodd" d="M101.029 29.33a47.06 47.06 0 00-11.868-3.358c-4.177-.61-8.408-.76-12.638-.526a93.275 93.275 0 00-18.157 2.788c-6.636 1.705-12.85 4.358-18.461 8.29-2.06 1.444-4.094 3.01-5.71 5.022-1.224 1.523-2.7 2.868-3.748 4.497-1.526 2.37-2.931 4.85-4.098 7.417-2.349 5.162-3.146 10.649-2.642 16.292.275 3.088.544 6.205 1.212 9.22.694 3.129 1.834 6.16 2.84 9.213a194.828 194.828 0 002.708 7.706c1.403 3.725 2.663 7.526 4.38 11.104 2.184 4.556 4.412 9.145 7.883 12.924 3.365 3.664 7.307 6.563 12.047 8.078 4.15 1.327 8.41 1.37 12.714.401 4.754-1.069 8.745-3.522 12.274-6.698 2.578-2.32 4.82-5.017 6.82-7.893 1.647-2.37 3.259-4.783 5.114-6.98 1.954-2.314 3.897-4.669 6.298-6.567 3.404-2.692 6.819-5.374 10.177-8.124 2.95-2.417 5.523-5.213 7.914-8.193a31.13 31.13 0 004.656-8.02c2.155-5.428 3.411-11.01 2.617-16.944-.472-3.529-1.05-7.005-2.549-10.252-.729-1.583-1.534-3.144-2.46-4.616-1.127-1.792-2.417-3.478-3.116-4.47-4.457-4.883-8.978-8.057-14.207-10.312z" fill="#E6A386"></path><ellipse cx="58.393" cy="68.757" rx="10.481" ry="10.539" fill="#fff"></ellipse><ellipse cx="116.287" cy="68.757" rx="10.481" ry="10.539" fill="#fff"></ellipse><ellipse cx="87.34" cy="63.738" rx="12.477" ry="12.547" fill="#fff"></ellipse><path d="M58.393 81.304c-9.98 0-18.292 7.36-20.098 17.1-.403 2.172 1.426 3.978 3.636 3.978h32.925c2.209 0 4.038-1.806 3.636-3.979-1.806-9.739-10.118-17.1-20.099-17.1zM116.287 81.304c-9.981 0-18.293 7.36-20.099 17.1-.403 2.172 1.427 3.978 3.636 3.978h32.925c2.209 0 4.039-1.806 3.636-3.979-1.806-9.739-10.118-17.1-20.098-17.1z" fill="#fff"></path><path d="M86.841 78.293c-13.036 0-23.827 10.036-25.673 23.113-.31 2.187 1.511 3.988 3.72 3.988h43.906c2.209 0 4.029-1.801 3.721-3.988-1.847-13.077-12.638-23.114-25.674-23.114z" fill="#fff"></path><ellipse cx="60.389" cy="66.749" rx="10.481" ry="10.539" stroke="#00455D" stroke-width="3" stroke-linecap="round" stroke-linejoin="round"></ellipse><ellipse cx="118.284" cy="66.749" rx="10.481" ry="10.539" stroke="#00455D" stroke-width="3" stroke-linecap="round" stroke-linejoin="round"></ellipse><ellipse cx="89.337" cy="61.731" rx="12.477" ry="12.547" stroke="#00455D" stroke-width="3" stroke-linecap="round" stroke-linejoin="round"></ellipse><path d="M60.39 78.293c-9.981 0-18.293 7.36-20.1 17.1-.402 2.171 1.428 3.978 3.637 3.978h32.925c2.209 0 4.038-1.807 3.636-3.979-1.806-9.739-10.118-17.1-20.099-17.1zM118.283 78.293c-9.981 0-18.293 7.36-20.099 17.1-.403 2.171 1.427 3.978 3.636 3.978h32.925c2.209 0 4.039-1.807 3.636-3.979-1.806-9.739-10.118-17.1-20.098-17.1z" fill="#fff" stroke="#00455D" stroke-width="3" stroke-linecap="round" stroke-linejoin="round"></path><path d="M88.837 75.281c-13.035 0-23.827 10.037-25.673 23.113-.31 2.188 1.512 3.988 3.72 3.988h43.906c2.209 0 4.03-1.8 3.721-3.988-1.847-13.076-12.638-23.113-25.674-23.113z" fill="#fff" stroke="#00455D" stroke-width="3" stroke-linecap="round" stroke-linejoin="round"></path></svg>